<svg width="1171" height="574" xmlns="http://www.w3.org/2000/svg" xmlns:xlink="http://www.w3.org/1999/xlink" overflow="hidden"><defs><clipPath id="clip0"><rect x="129" y="64" width="1171" height="574"/></clipPath></defs><g clip-path="url(#clip0)" transform="translate(-129 -64)"><rect x="447.5" y="351.5" width="163" height="102" stroke="#000000" stroke-width="1.33333" stroke-miterlimit="8" fill="none"/><text font-family="Yu Gothic,Yu Gothic_MSFontService,sans-serif" font-weight="400" font-size="13" transform="translate(484.511 367)">Delivery Truck<tspan font-size="13" x="-27.58" y="16">* Truck Id</tspan><tspan font-size="13" x="-19.9134" y="32">Status</tspan></text><rect x="654.5" y="351.5" width="188" height="102" stroke="#000000" stroke-width="1.33333" stroke-miterlimit="8" fill="none"/><text font-family="Yu Gothic,Yu Gothic_MSFontService,sans-serif" font-weight="400" font-size="13" transform="translate(673.716 367)">Cooling Container Truck<tspan font-size="13" x="-10.2466" y="16">* Truck Id</tspan><tspan font-size="13" x="-2.58002" y="32">Container Temperature</tspan></text><rect x="556.5" y="164.5" width="163" height="124" stroke="#000000" stroke-width="1.33333" stroke-miterlimit="8" fill="none"/><text font-family="Yu Gothic,Yu Gothic_MSFontService,sans-serif" font-weight="400" font-size="13" transform="translate(620.143 180)">Truck<tspan font-size="13" x="-54.4133" y="16">* Truck Id</tspan><tspan font-size="13" x="-46.7466" y="32">Location</tspan><tspan font-size="13" x="-46.7466" y="48">Longitude&lt;&lt;T&gt;&gt;</tspan><tspan font-size="13" x="-46.7466" y="64">Latitude&lt;&lt;T&gt;&gt;</tspan><tspan font-size="13" x="-46.7466" y="80">Attitude&lt;&lt;T&gt;&gt;</tspan><tspan font-size="13" x="-46.7466" y="96">Measured Time</tspan></text><path d="M616.5 308.5 628 288.5 639.5 308.5Z" stroke="#000000" stroke-width="1.33333" stroke-miterlimit="8" fill="none" fill-rule="evenodd"/><path d="M628.117 308.5 628.117 329.766 529.5 329.766 529.5 351.031" stroke="#000000" stroke-width="1.33333" stroke-miterlimit="8" fill="none" fill-rule="evenodd"/><path d="M0 0 21.2658 0 21.2658 120.713 42.5314 120.713" stroke="#000000" stroke-width="1.33333" stroke-miterlimit="8" fill="none" fill-rule="evenodd" transform="matrix(1.83697e-16 1 1 -1.83697e-16 627.5 308.5)"/><text font-family="Yu Gothic,Yu Gothic_MSFontService,sans-serif" font-weight="400" font-size="13" transform="translate(659.901 312)">{complete, disjoint}</text><rect x="748" y="102" width="469" height="139"/><text fill="#D4D4D4" font-family="Consolas,Consolas_MSFontService,sans-serif" font-weight="400" font-size="11" transform="translate(757.642 117)">{<tspan fill="#9CDCFE" font-size="11" x="11.6667" y="13">"@context"</tspan><tspan font-size="11" x="70" y="13">:</tspan><tspan fill="#CE9178" font-size="11" x="81.6667" y="13">"dtmi:dtdl:context;2"</tspan><tspan font-size="11" x="204.167" y="13">,</tspan><tspan fill="#9CDCFE" font-size="11" x="11.6667" y="26">"@id"</tspan><tspan font-size="11" x="40.8334" y="26">:</tspan><tspan fill="#CE9178" font-size="11" x="52.5" y="26">"dtmi:embeddedgeorge:transport:const_temperature:sample:Truck;1"</tspan><tspan font-size="11" x="425.833" y="26">,</tspan><tspan fill="#9CDCFE" font-size="11" x="11.6667" y="38">"@type"</tspan><tspan font-size="11" x="52.5" y="38">:</tspan><tspan fill="#CE9178" font-size="11" x="64.1667" y="38">"Interface"</tspan><tspan font-size="11" x="128.333" y="38">,</tspan><tspan fill="#9CDCFE" font-size="11" x="11.6667" y="51">"</tspan><tspan fill="#9CDCFE" font-size="11" x="17.5" y="51">displayName</tspan><tspan fill="#9CDCFE" font-size="11" x="81.6667" y="51">"</tspan><tspan font-size="11" x="87.5" y="51">:</tspan><tspan fill="#CE9178" font-size="11" x="99.1667" y="51">"Truck"</tspan><tspan font-size="11" x="140" y="51">,</tspan><tspan fill="#9CDCFE" font-size="11" x="11.6667" y="64">"contents"</tspan><tspan font-size="11" x="70" y="64">:</tspan><tspan font-size="11" x="81.6667" y="64">[…]</tspan><tspan font-size="11" x="35" y="77">}</tspan><tspan font-size="11" x="23.3334" y="90">}</tspan><tspan font-size="11" x="11.6667" y="102">]</tspan><tspan font-size="11" x="0" y="115">}</tspan></text><rect x="707" y="487" width="567" height="113"/><text fill="#D4D4D4" font-family="Consolas,Consolas_MSFontService,sans-serif" font-weight="400" font-size="11" transform="translate(716.926 502)">{<tspan fill="#9CDCFE" font-size="11" x="11.6667" y="13">"@context"</tspan><tspan font-size="11" x="70" y="13">:</tspan><tspan fill="#CE9178" font-size="11" x="81.6667" y="13">"dtmi:dtdl:context;2"</tspan><tspan font-size="11" x="204.167" y="13">,</tspan><tspan fill="#9CDCFE" font-size="11" x="11.6667" y="26">"@id"</tspan><tspan font-size="11" x="40.8333" y="26">:</tspan><tspan fill="#CE9178" font-size="11" x="52.5" y="26">"dtmi:embeddedgeorge:transport:const_temperature:sample:CoolingContainerTruck;1"</tspan><tspan font-size="11" x="519.167" y="26">,</tspan><tspan fill="#9CDCFE" font-size="11" x="11.6667" y="38">"@type"</tspan><tspan font-size="11" x="52.5" y="38">:</tspan><tspan fill="#CE9178" font-size="11" x="64.1667" y="38">"Interface"</tspan><tspan font-size="11" x="128.333" y="38">,</tspan><tspan fill="#9CDCFE" font-size="11" x="11.6667" y="51">"</tspan><tspan fill="#9CDCFE" font-size="11" x="17.5" y="51">displayName</tspan><tspan fill="#9CDCFE" font-size="11" x="81.6667" y="51">"</tspan><tspan font-size="11" x="87.5" y="51">:</tspan><tspan fill="#CE9178" font-size="11" x="99.1667" y="51">"</tspan><tspan fill="#CE9178" font-size="11" x="105" y="51">CoolingContainerTruck</tspan><tspan fill="#CE9178" font-size="11" x="227.5" y="51">"</tspan><tspan font-size="11" x="233.333" y="51">,</tspan><tspan fill="#9CDCFE" font-size="11" x="11.6667" y="64">"extends"</tspan>:<tspan fill="#CE9178" font-size="11" x="75.8333" y="64">"dtmi:embeddedgeorge:transport:const_temperature:sample:Truck;1"</tspan><tspan font-size="11" x="449.167" y="64">,</tspan></text><path d="M728.926 566.969 780.926 566.969 780.926 567.969 728.926 567.969Z" fill="#9CDCFE" fill-rule="evenodd"/><path d="M780.926 566.969 792.926 566.969 792.926 567.969 780.926 567.969Z" fill="#D4D4D4" fill-rule="evenodd"/><path d="M792.926 566.969 917.259 566.969 1041.59 566.969 1165.93 566.969 1165.93 567.969 1041.59 567.969 917.259 567.969 792.926 567.969Z" fill="#CE9178" fill-rule="evenodd"/><text fill="#9CDCFE" font-family="Consolas,Consolas_MSFontService,sans-serif" font-weight="400" font-size="11" transform="translate(728.592 579)">"contents"<tspan fill="#D4D4D4" font-size="11" x="58.3333" y="0">:</tspan><tspan fill="#D4D4D4" font-size="11" x="70" y="0">[…]</tspan><tspan fill="#D4D4D4" font-size="11" x="-11.6667" y="13">}</tspan></text><rect x="154" y="490" width="522" height="113"/><text fill="#D4D4D4" font-family="Consolas,Consolas_MSFontService,sans-serif" font-weight="400" font-size="11" transform="translate(163.465 504)">{<tspan fill="#9CDCFE" font-size="11" x="11.6667" y="13">"@context"</tspan>:<tspan fill="#CE9178" font-size="11" x="81.6667" y="13">"dtmi:dtdl:context;2"</tspan><tspan font-size="11" x="204.167" y="13">,</tspan><tspan fill="#9CDCFE" font-size="11" x="11.6667" y="26">"@id"</tspan><tspan font-size="11" x="40.8333" y="26">:</tspan><tspan fill="#CE9178" font-size="11" x="52.5" y="26">"dtmi:embeddedgeorge:transport:const_temperature:sample:DeliveryTruck;1"</tspan><tspan font-size="11" x="472.5" y="26">,</tspan><tspan fill="#9CDCFE" font-size="11" x="11.6667" y="38">"@type"</tspan><tspan font-size="11" x="52.5" y="38">:</tspan><tspan fill="#CE9178" font-size="11" x="64.1667" y="38">"Interface"</tspan><tspan font-size="11" x="128.333" y="38">,</tspan><tspan fill="#9CDCFE" font-size="11" x="11.6667" y="51">"</tspan><tspan fill="#9CDCFE" font-size="11" x="17.5" y="51">displayName</tspan><tspan fill="#9CDCFE" font-size="11" x="81.6667" y="51">"</tspan><tspan font-size="11" x="87.5" y="51">:</tspan><tspan fill="#CE9178" font-size="11" x="99.1667" y="51">"</tspan><tspan fill="#CE9178" font-size="11" x="105" y="51">DeliveryTruck</tspan><tspan fill="#CE9178" font-size="11" x="180.833" y="51">"</tspan><tspan font-size="11" x="186.667" y="51">,</tspan><tspan fill="#9CDCFE" font-size="11" x="11.6667" y="64">"extends"</tspan>:<tspan fill="#CE9178" font-size="11" x="75.8333" y="64">"dtmi:embeddedgeorge:transport:const_temperature:sample:Truck;1"</tspan><tspan font-size="11" x="449.167" y="64">,</tspan></text><path d="M175.465 569.325 227.465 569.325 227.465 570.325 175.465 570.325Z" fill="#9CDCFE" fill-rule="evenodd"/><path d="M227.465 569.325 239.465 569.325 239.465 570.325 227.465 570.325Z" fill="#D4D4D4" fill-rule="evenodd"/><path d="M239.465 569.325 363.798 569.325 488.132 569.325 612.465 569.325 612.465 570.325 488.132 570.325 363.798 570.325 239.465 570.325Z" fill="#CE9178" fill-rule="evenodd"/><text fill="#9CDCFE" font-family="Consolas,Consolas_MSFontService,sans-serif" font-weight="400" font-size="11" transform="translate(175.132 581)">"contents"<tspan fill="#D4D4D4" font-size="11" x="58.3333" y="0">:</tspan><tspan fill="#D4D4D4" font-size="11" x="70" y="0">[…]</tspan><tspan fill="#D4D4D4" font-size="11" x="-11.6667" y="13">}</tspan></text><path d="M0.213959-0.6314 49.1639 15.956 48.736 17.2188-0.213959 0.6314ZM51.0895 10.2734C54.5766 11.4551 56.4456 15.2399 55.2639 18.727 54.0823 22.2141 50.2975 24.0831 46.8103 22.9014 43.3232 21.7197 41.4543 17.9349 42.6359 14.4478 43.8176 10.9607 47.6024 9.09174 51.0895 10.2734Z" fill="#FF0000" transform="matrix(-1 0 0 1 748.45 172.5)"/><path d="M991.274 487.899 784.341 437.148 784.659 435.853 991.592 486.604ZM782.912 442.975C779.336 442.098 777.148 438.488 778.025 434.912 778.902 431.336 782.512 429.148 786.088 430.025 789.664 430.902 791.852 434.512 790.975 438.088 790.098 441.664 786.488 443.852 782.912 442.975Z" fill="#FF0000"/><path d="M0.351414-0.566527 85.9681 52.5412 85.2653 53.6742-0.351414 0.566527ZM89.1308 47.4424C92.2597 49.3833 93.2228 53.493 91.282 56.6219 89.3411 59.7507 85.2314 60.7138 82.1025 58.773 78.9737 56.8322 78.0106 52.7224 79.9514 49.5936 81.8922 46.4647 86.002 45.5016 89.1308 47.4424Z" fill="#FF0000" transform="matrix(1 0 0 -1 415.5 489.608)"/><path d="M509 283.334C509 274.313 516.313 267 525.334 267L779.666 267C788.687 267 796 274.313 796 283.334L796 348.666C796 357.687 788.687 365 779.666 365L525.334 365C516.313 365 509 357.687 509 348.666Z" stroke="#FF0000" stroke-width="2" stroke-miterlimit="8" stroke-dasharray="2 2" fill="none" fill-rule="evenodd"/></g></svg>