<svg width="989" height="618" xmlns="http://www.w3.org/2000/svg" xmlns:xlink="http://www.w3.org/1999/xlink" overflow="hidden"><defs><clipPath id="clip0"><rect x="185" y="79" width="989" height="618"/></clipPath></defs><g clip-path="url(#clip0)" transform="translate(-185 -79)"><rect x="186.5" y="275.5" width="192" height="94" stroke="#000000" stroke-width="1.33333" stroke-miterlimit="8" fill="none"/><text font-family="Yu Gothic,Yu Gothic_MSFontService,sans-serif" font-weight="400" font-size="13" transform="translate(264.909 292)">Truck<tspan font-size="13" x="-68.9133" y="16">* Truck Id</tspan><tspan font-size="13" x="-61.2467" y="32">Location : string</tspan><tspan font-size="13" x="-61.2467" y="48">Current Location&lt;&lt;</tspan><tspan font-size="13" x="61.42" y="48">T</tspan><tspan font-size="13" x="69.7533" y="48">&gt;&gt;</tspan></text><rect x="492" y="79" width="681" height="618"/><text fill="#D4D4D4" font-family="Consolas,Consolas_MSFontService,sans-serif" font-weight="400" font-size="11" transform="translate(501.174 94)">{<tspan fill="#9CDCFE" font-size="11" x="11.6666" y="13">"@context"</tspan><tspan font-size="11" x="70" y="13">:</tspan><tspan fill="#CE9178" font-size="11" x="81.6666" y="13">"dtmi:dtdl:context;2"</tspan><tspan font-size="11" x="204.167" y="13">,</tspan><tspan fill="#9CDCFE" font-size="11" x="11.6666" y="26">"@id"</tspan><tspan font-size="11" x="40.8333" y="26">:</tspan><tspan fill="#CE9178" font-size="11" x="52.5" y="26">"dtmi:embeddedgeorge:transport:const_temperature:sample:Truck;1"</tspan><tspan font-size="11" x="425.833" y="26">,</tspan><tspan fill="#9CDCFE" font-size="11" x="11.6666" y="38">"@type"</tspan><tspan font-size="11" x="52.5" y="38">:</tspan><tspan fill="#CE9178" font-size="11" x="64.1666" y="38">"Interface"</tspan><tspan font-size="11" x="128.333" y="38">,</tspan><tspan fill="#9CDCFE" font-size="11" x="11.6666" y="51">"</tspan><tspan fill="#9CDCFE" font-size="11" x="17.5" y="51">displayName</tspan><tspan fill="#9CDCFE" font-size="11" x="81.6666" y="51">"</tspan><tspan font-size="11" x="87.5" y="51">:</tspan><tspan fill="#CE9178" font-size="11" x="99.1666" y="51">"Truck"</tspan><tspan font-size="11" x="140" y="51">,</tspan><tspan fill="#9CDCFE" font-size="11" x="11.6666" y="64">"contents"</tspan><tspan font-size="11" x="70" y="64">:</tspan><tspan font-size="11" x="81.6666" y="64">[</tspan><tspan font-size="11" x="23.3333" y="77">{</tspan><tspan fill="#9CDCFE" font-size="11" x="35" y="90">"@type"</tspan><tspan font-size="11" x="75.8333" y="90">:</tspan><tspan fill="#CE9178" font-size="11" x="87.5" y="90">"Property"</tspan><tspan font-size="11" x="145.833" y="90">,</tspan><tspan fill="#9CDCFE" font-size="11" x="35" y="102">"name"</tspan>:<tspan fill="#CE9178" font-size="11" x="81.6666" y="102">"</tspan><tspan fill="#CE9178" font-size="11" x="87.5" y="102">TruckId</tspan><tspan fill="#CE9178" font-size="11" x="128.333" y="102">"</tspan><tspan font-size="11" x="134.167" y="102">,</tspan><tspan fill="#9CDCFE" font-size="11" x="35" y="115">"</tspan><tspan fill="#9CDCFE" font-size="11" x="40.8333" y="115">displayName</tspan><tspan fill="#9CDCFE" font-size="11" x="105" y="115">"</tspan><tspan font-size="11" x="110.833" y="115">:</tspan><tspan fill="#CE9178" font-size="11" x="122.5" y="115">"Truck Id"</tspan><tspan font-size="11" x="180.833" y="115">,</tspan><tspan fill="#9CDCFE" font-size="11" x="35" y="128">"@id"</tspan><tspan font-size="11" x="64.1666" y="128">:</tspan><tspan fill="#CE9178" font-size="11" x="75.8333" y="128">"dtmi:embeddedgeorge:transport:const_temperature:sample:Truck:TruckId;1"</tspan><tspan font-size="11" x="495.833" y="128">,</tspan><tspan fill="#9CDCFE" font-size="11" x="35" y="141">"schema"</tspan><tspan font-size="11" x="81.6666" y="141">:</tspan><tspan fill="#CE9178" font-size="11" x="93.3333" y="141">"string"</tspan><tspan font-size="11" x="23.3333" y="154">},</tspan><tspan font-size="11" x="23.3333" y="166">{</tspan><tspan fill="#9CDCFE" font-size="11" x="35" y="179">"@type"</tspan><tspan font-size="11" x="75.8333" y="179">:</tspan><tspan fill="#CE9178" font-size="11" x="87.5" y="179">"Property"</tspan><tspan font-size="11" x="145.833" y="179">,</tspan><tspan fill="#9CDCFE" font-size="11" x="35" y="192">"name"</tspan>:<tspan fill="#CE9178" font-size="11" x="81.6666" y="192">"Location"</tspan><tspan font-size="11" x="140" y="192">,</tspan><tspan fill="#9CDCFE" font-size="11" x="35" y="205">"schema"</tspan><tspan font-size="11" x="81.6666" y="205">:</tspan><tspan fill="#CE9178" font-size="11" x="93.3333" y="205">"string"</tspan><tspan font-size="11" x="23.3333" y="218">},</tspan><tspan font-size="11" x="23.3333" y="230">{</tspan><tspan fill="#9CDCFE" font-size="11" x="35" y="243">"@type"</tspan><tspan font-size="11" x="75.8333" y="243">:</tspan><tspan fill="#CE9178" font-size="11" x="87.5" y="243">"Telemetry"</tspan><tspan font-size="11" x="151.667" y="243">,</tspan><tspan fill="#9CDCFE" font-size="11" x="35" y="256">"name"</tspan>:<tspan fill="#CE9178" font-size="11" x="81.6666" y="256">"</tspan><tspan fill="#CE9178" font-size="11" x="87.5" y="256">currentLocation</tspan><tspan fill="#CE9178" font-size="11" x="175" y="256">"</tspan><tspan font-size="11" x="180.833" y="256">,</tspan><tspan fill="#9CDCFE" font-size="11" x="35" y="269">"</tspan><tspan fill="#9CDCFE" font-size="11" x="40.8333" y="269">displayName</tspan><tspan fill="#9CDCFE" font-size="11" x="105" y="269">"</tspan><tspan font-size="11" x="110.833" y="269">:</tspan><tspan fill="#CE9178" font-size="11" x="122.5" y="269">"Current</tspan><tspan fill="#CE9178" font-size="11" x="175" y="269">Location"</tspan>,<tspan fill="#9CDCFE" font-size="11" x="35" y="282">"schema"</tspan><tspan font-size="11" x="81.6666" y="282">:</tspan><tspan font-size="11" x="93.3333" y="282">{</tspan><tspan fill="#9CDCFE" font-size="11" x="46.6666" y="294">"@type"</tspan><tspan font-size="11" x="87.5" y="294">:</tspan><tspan fill="#CE9178" font-size="11" x="99.1666" y="294">"Object"</tspan><tspan font-size="11" x="145.833" y="294">,</tspan><tspan fill="#9CDCFE" font-size="11" x="46.6666" y="307">"fields"</tspan><tspan font-size="11" x="93.3333" y="307">:</tspan><tspan font-size="11" x="105" y="307">[</tspan><tspan font-size="11" x="58.3333" y="320">{</tspan><tspan fill="#9CDCFE" font-size="11" x="70" y="333">"name"</tspan>:<tspan fill="#CE9178" font-size="11" x="116.667" y="333">"longitude"</tspan><tspan font-size="11" x="180.833" y="333">,</tspan><tspan fill="#9CDCFE" font-size="11" x="70" y="346">"schema"</tspan><tspan font-size="11" x="116.667" y="346">:</tspan><tspan fill="#CE9178" font-size="11" x="128.333" y="346">"double"</tspan><tspan font-size="11" x="58.3333" y="358">},</tspan><tspan font-size="11" x="58.3333" y="371">{</tspan><tspan fill="#9CDCFE" font-size="11" x="70" y="384">"name"</tspan>:<tspan fill="#CE9178" font-size="11" x="116.667" y="384">"latitude"</tspan><tspan font-size="11" x="175" y="384">,</tspan><tspan fill="#9CDCFE" font-size="11" x="70" y="397">"schema"</tspan><tspan font-size="11" x="116.667" y="397">:</tspan><tspan fill="#CE9178" font-size="11" x="128.333" y="397">"double"</tspan><tspan font-size="11" x="58.3333" y="410">},</tspan><tspan font-size="11" x="58.3333" y="422">{</tspan><tspan fill="#9CDCFE" font-size="11" x="70" y="435">"name"</tspan>:<tspan fill="#CE9178" font-size="11" x="116.667" y="435">"attitude"</tspan><tspan font-size="11" x="175" y="435">,</tspan><tspan fill="#9CDCFE" font-size="11" x="70" y="448">"schema"</tspan><tspan font-size="11" x="116.667" y="448">:</tspan><tspan fill="#CE9178" font-size="11" x="128.333" y="448">"double"</tspan><tspan font-size="11" x="58.3333" y="461">},</tspan><tspan font-size="11" x="58.3333" y="474">{</tspan><tspan fill="#9CDCFE" font-size="11" x="70" y="486">"name"</tspan>:<tspan fill="#CE9178" font-size="11" x="116.667" y="486">"</tspan><tspan fill="#CE9178" font-size="11" x="122.5" y="486">measuredtime</tspan><tspan fill="#CE9178" font-size="11" x="192.5" y="486">"</tspan><tspan font-size="11" x="198.333" y="486">,</tspan><tspan fill="#9CDCFE" font-size="11" x="70" y="499">"schema"</tspan><tspan font-size="11" x="116.667" y="499">:</tspan><tspan fill="#CE9178" font-size="11" x="128.333" y="499">"</tspan><tspan fill="#CE9178" font-size="11" x="134.167" y="499">dateTime</tspan><tspan fill="#CE9178" font-size="11" x="180.833" y="499">"</tspan><tspan font-size="11" x="58.3333" y="512">}</tspan><tspan font-size="11" x="46.6666" y="525">]</tspan><tspan font-size="11" x="35" y="538">}</tspan><tspan font-size="11" x="23.3333" y="550">}</tspan><tspan font-size="11" x="11.6666" y="563">]</tspan><tspan font-size="11" x="0" y="576">}</tspan></text></g></svg>