<svg width="1172" height="483" xmlns="http://www.w3.org/2000/svg" xmlns:xlink="http://www.w3.org/1999/xlink" overflow="hidden"><defs><clipPath id="clip0"><rect x="52" y="111" width="1172" height="483"/></clipPath></defs><g clip-path="url(#clip0)" transform="translate(-52 -111)"><rect x="386.5" y="183.5" width="163" height="103" stroke="#000000" stroke-width="1.33333" stroke-miterlimit="8" fill="none"/><text font-family="Yu Gothic,Yu Gothic_MSFontService,sans-serif" font-weight="400" font-size="13" transform="translate(438.005 200)">Customer<tspan font-size="13" x="-41.9133" y="16">* Customer Id</tspan><tspan font-size="13" x="-34.2467" y="32">Name</tspan><tspan font-size="13" x="-34.2467" y="48">Address</tspan><tspan font-size="13" x="-34.2467" y="64">Tel No</tspan></text><rect x="651.5" y="183.5" width="163" height="103" stroke="#000000" stroke-width="1.33333" stroke-miterlimit="8" fill="none"/><text font-family="Yu Gothic,Yu Gothic_MSFontService,sans-serif" font-weight="400" font-size="13" transform="translate(715.435 200)">Order<tspan font-size="13" x="-54.4133" y="16">* Order Id</tspan><tspan font-size="13" x="-46.7467" y="32">Status</tspan></text><path d="M549.5 235.5 651.669 235.5" stroke="#000000" stroke-width="1.33333" stroke-miterlimit="8" fill="none" fill-rule="evenodd"/><text font-family="Yu Gothic,Yu Gothic_MSFontService,sans-serif" font-weight="400" font-size="13" transform="translate(637.534 233)">*<tspan font-size="13" x="-82.877" y="-4">1</tspan><tspan font-size="13" x="-85.8303" y="20">ordered by</tspan></text><rect x="98" y="349" width="481" height="126"/><text fill="#D4D4D4" font-family="Consolas,Consolas_MSFontService,sans-serif" font-weight="400" font-size="11" transform="translate(107.888 364)">{<tspan fill="#9CDCFE" font-size="11" x="11.6667" y="13">"@context"</tspan>:<tspan fill="#CE9178" font-size="11" x="81.6667" y="13">"dtmi:dtdl:context;2"</tspan>,<tspan fill="#9CDCFE" font-size="11" x="11.6667" y="26">"@id"</tspan><tspan font-size="11" x="40.8333" y="26">:</tspan><tspan fill="#CE9178" font-size="11" x="52.5" y="26">"dtmi:embeddedgeorge:transport:const_temperature:sample:Customer;1"</tspan><tspan font-size="11" x="443.333" y="26">,</tspan><tspan fill="#9CDCFE" font-size="11" x="11.6667" y="38">"@type"</tspan><tspan font-size="11" x="52.5" y="38">:</tspan><tspan fill="#CE9178" font-size="11" x="64.1667" y="38">"Interface"</tspan><tspan font-size="11" x="128.333" y="38">,</tspan><tspan fill="#9CDCFE" font-size="11" x="11.6667" y="51">"</tspan><tspan fill="#9CDCFE" font-size="11" x="17.5" y="51">displayName</tspan><tspan fill="#9CDCFE" font-size="11" x="81.6667" y="51">"</tspan><tspan font-size="11" x="87.5" y="51">:</tspan><tspan fill="#CE9178" font-size="11" x="99.1667" y="51">"Customer"</tspan>,<tspan font-size="11" x="11.6667" y="64">…</tspan><tspan font-size="11" x="0" y="77">}</tspan></text><rect x="620" y="319" width="551" height="230"/><text fill="#D4D4D4" font-family="Consolas,Consolas_MSFontService,sans-serif" font-weight="400" font-size="11" transform="translate(629.471 334)">{<tspan fill="#9CDCFE" font-size="11" x="11.6666" y="13">"@context"</tspan><tspan font-size="11" x="70" y="13">:</tspan><tspan fill="#CE9178" font-size="11" x="81.6666" y="13">"dtmi:dtdl:context;2"</tspan><tspan font-size="11" x="204.167" y="13">,</tspan><tspan fill="#9CDCFE" font-size="11" x="11.6666" y="26">"@id"</tspan><tspan font-size="11" x="40.8333" y="26">:</tspan><tspan fill="#CE9178" font-size="11" x="52.5" y="26">"dtmi:embeddedgeorge:transport:const_temperature:sample:Order;1"</tspan><tspan font-size="11" x="425.833" y="26">,</tspan><tspan fill="#9CDCFE" font-size="11" x="11.6666" y="38">"@type"</tspan><tspan font-size="11" x="52.5" y="38">:</tspan><tspan fill="#CE9178" font-size="11" x="64.1666" y="38">"Interface"</tspan><tspan font-size="11" x="128.333" y="38">,</tspan><tspan fill="#9CDCFE" font-size="11" x="11.6666" y="51">"</tspan><tspan fill="#9CDCFE" font-size="11" x="17.5" y="51">displayName</tspan><tspan fill="#9CDCFE" font-size="11" x="81.6666" y="51">"</tspan><tspan font-size="11" x="87.5" y="51">:</tspan><tspan fill="#CE9178" font-size="11" x="99.1666" y="51">"Order"</tspan><tspan font-size="11" x="140" y="51">,</tspan><tspan fill="#9CDCFE" font-size="11" x="11.6666" y="64">"contents"</tspan><tspan font-size="11" x="70" y="64">:</tspan><tspan font-size="11" x="81.6666" y="64">[</tspan><tspan font-size="11" x="23.3333" y="77">…</tspan><tspan font-size="11" x="23.3333" y="90">{</tspan><tspan fill="#9CDCFE" font-size="11" x="35" y="102">"@type"</tspan><tspan font-size="11" x="75.8333" y="102">:</tspan><tspan fill="#CE9178" font-size="11" x="87.5" y="102">"Relationship"</tspan><tspan font-size="11" x="169.167" y="102">,</tspan><tspan fill="#9CDCFE" font-size="11" x="35" y="115">"@id"</tspan><tspan font-size="11" x="64.1666" y="115">:</tspan><tspan fill="#CE9178" font-size="11" x="75.8333" y="115">"dtmi:embeddedgeorge:transport:const_temperature:sample:Order:ordered_by;1"</tspan><tspan font-size="11" x="513.333" y="115">,</tspan><tspan fill="#9CDCFE" font-size="11" x="35" y="128">"name"</tspan>:<tspan fill="#CE9178" font-size="11" x="81.6666" y="128">"</tspan><tspan fill="#CE9178" font-size="11" x="87.5" y="128">ordered_by</tspan><tspan fill="#CE9178" font-size="11" x="145.833" y="128">"</tspan><tspan font-size="11" x="151.667" y="128">,</tspan><tspan fill="#9CDCFE" font-size="11" x="35" y="141">"target"</tspan><tspan font-size="11" x="81.6666" y="141">:</tspan><tspan fill="#CE9178" font-size="11" x="93.3333" y="141">"dtmi:embeddedgeorge:transport:const_temperature:sample:Customer;1"</tspan><tspan font-size="11" x="484.167" y="141">,</tspan><tspan fill="#9CDCFE" font-size="11" x="35" y="154">"</tspan><tspan fill="#9CDCFE" font-size="11" x="40.8333" y="154">maxMultiplicity</tspan><tspan fill="#9CDCFE" font-size="11" x="128.333" y="154">"</tspan><tspan font-size="11" x="134.167" y="154">:</tspan><tspan fill="#B5CEA8" font-size="11" x="145.833" y="154">1</tspan><tspan font-size="11" x="23.3333" y="166">},</tspan><tspan font-size="11" x="23.3333" y="179">…</tspan><tspan font-size="11" x="11.6666" y="192">]</tspan><tspan font-size="11" x="0" y="205">}</tspan></text><path d="M645 422.834C645 413.537 652.537 406 661.834 406L1143.17 406C1152.46 406 1160 413.537 1160 422.834L1160 490.166C1160 499.463 1152.46 507 1143.17 507L661.834 507C652.537 507 645 499.463 645 490.166Z" stroke="#FF0000" stroke-width="2" stroke-miterlimit="8" stroke-dasharray="2 2" fill="none" fill-rule="evenodd"/><path d="M529 221.167C529 216.104 533.104 212 538.167 212L657.833 212C662.896 212 667 216.104 667 221.167L667 257.833C667 262.896 662.896 267 657.833 267L538.167 267C533.104 267 529 262.896 529 257.833Z" stroke="#FF0000" stroke-width="2" stroke-miterlimit="8" stroke-dasharray="2 2" fill="none" fill-rule="evenodd"/><path d="M895.604 321.024 598.383 268.156 598.617 266.844 895.837 319.711ZM597.333 274.064C593.708 273.419 591.292 269.958 591.936 266.333 592.581 262.708 596.043 260.292 599.668 260.936 603.293 261.581 605.708 265.043 605.064 268.668 604.419 272.293 600.958 274.708 597.333 274.064Z" fill="#FF0000"/></g></svg>