<svg width="1172" height="237" xmlns="http://www.w3.org/2000/svg" xmlns:xlink="http://www.w3.org/1999/xlink" overflow="hidden"><defs><clipPath id="clip0"><rect x="7" y="107" width="1172" height="237"/></clipPath></defs><g clip-path="url(#clip0)" transform="translate(-7 -107)"><rect x="372.5" y="183.5" width="162" height="103" stroke="#000000" stroke-width="1.33333" stroke-miterlimit="8" fill="none"/><text font-family="Yu Gothic,Yu Gothic_MSFontService,sans-serif" font-weight="400" font-size="13" transform="translate(423.019 200)">Customer<tspan font-size="13" x="-41.9133" y="16">* Customer Id</tspan><tspan font-size="13" x="-34.2466" y="32">Name</tspan><tspan font-size="13" x="-34.2466" y="48">Address</tspan><tspan font-size="13" x="-34.2466" y="64">Tel No</tspan></text><rect x="651.5" y="183.5" width="163" height="103" stroke="#000000" stroke-width="1.33333" stroke-miterlimit="8" fill="none"/><text font-family="Yu Gothic,Yu Gothic_MSFontService,sans-serif" font-weight="400" font-size="13" transform="translate(715.435 200)">Order<tspan font-size="13" x="-54.4133" y="16">* Order Id</tspan><tspan font-size="13" x="-46.7467" y="32">Status</tspan></text><path d="M535.82 234.833 651.654 234.833 651.654 236.167 535.82 236.167ZM543.484 240.743 534.497 235.5 543.484 230.258C543.802 230.072 544.21 230.179 544.396 230.497 544.581 230.816 544.474 231.224 544.156 231.409L536.156 236.076 536.156 234.924 544.156 239.591C544.474 239.776 544.581 240.185 544.396 240.503 544.21 240.821 543.802 240.928 543.484 240.743Z"/><text font-family="Yu Gothic,Yu Gothic_MSFontService,sans-serif" font-weight="400" font-size="13" transform="translate(637.534 233)">*<tspan font-size="13" x="-94.0675" y="-4">1</tspan><tspan font-size="13" x="-70.3602" y="-9">ordered by</tspan></text></g></svg>