<svg width="2723" height="657" xmlns="http://www.w3.org/2000/svg" xmlns:xlink="http://www.w3.org/1999/xlink" overflow="hidden"><defs><clipPath id="clip0"><rect x="718" y="560" width="2723" height="657"/></clipPath><clipPath id="clip1"><rect x="3117" y="1007" width="40" height="42"/></clipPath><clipPath id="clip2"><rect x="3117" y="1007" width="40" height="42"/></clipPath><clipPath id="clip3"><rect x="3117" y="1007" width="40" height="42"/></clipPath><clipPath id="clip4"><rect x="2145" y="940" width="193" height="165"/></clipPath><clipPath id="clip5"><rect x="2145" y="940" width="193" height="165"/></clipPath><clipPath id="clip6"><rect x="1821" y="599" width="830" height="829"/></clipPath></defs><g clip-path="url(#clip0)" transform="translate(-718 -560)"><path d="M3076.5 991.337 3076.5 991.337 3063.25 991.337 3063.25 978.168 3076.5 978.168 3076.5 991.337ZM3076.5 1017.67 3076.5 1017.67 3063.25 1017.67 3063.25 1004.51 3076.5 1004.51 3076.5 1017.67ZM3076.5 1044.5 3076.5 1044.5 3063.25 1044.5 3063.25 1030.84 3076.5 1030.84 3076.5 1044.5ZM3076.5 1070.84 3076.5 1070.84 3063.25 1070.84 3063.25 1057.67 3076.5 1057.67 3076.5 1070.84ZM3076.5 1097.17 3076.5 1097.17 3063.25 1097.17 3063.25 1084 3076.5 1084 3076.5 1097.17ZM3089.75 978.168 3089.75 978.168 3130 978.168 3130 965 3050 965 3050 1104 3089.75 1104 3089.75 978.168Z" fill="#0072C6" fill-rule="evenodd"/><path d="M3143.4 1030.62 3143.4 1030.62 3156.7 1030.62 3156.7 1044.32 3143.4 1044.32 3143.4 1030.62ZM3130.1 1017.42 3130.1 1017.42 3116.79 1017.42 3116.79 1004.21 3130.1 1004.21 3130.1 1017.42ZM3130.1 1044.32 3130.1 1044.32 3116.79 1044.32 3116.79 1030.62 3130.1 1030.62 3130.1 1044.32ZM3143.4 1004.21 3143.4 1004.21 3156.7 1004.21 3156.7 1017.42 3143.4 1017.42 3143.4 1004.21ZM3170 1104 3170 1104 3170 991 3103 991 3103 1104 3116.79 1104 3116.79 1057.53 3156.7 1057.53 3156.7 1104 3170 1104Z" fill-rule="evenodd"/><path d="M3143 1071 3143 1071 3130 1071 3130 1104 3143 1104 3143 1071Z" fill="#50E6FF" fill-rule="evenodd"/><path d="M3210 1104 3210 1104 3210 974.057 3170 934 3170 977.966 3183.17 977.966 3183.17 1104 3210 1104Z" fill="#50E6FF" fill-rule="evenodd"/><path d="M3064 1017 3064 1017 3077 1017 3077 1004 3064 1004 3064 1017Z" fill="#50E6FF" fill-rule="evenodd"/><rect x="3110" y="1003" width="48.0002" height="45.0001"/><g clip-path="url(#clip1)"><g clip-path="url(#clip2)"><g clip-path="url(#clip3)"><path d="M39.9999 16.2424 23.7575 16.2424 23.7575 0 16.4848 0 16.4848 16.2424 0 16.2424 0 23.5151 16.4848 23.5151 16.4848 39.9999 23.7575 39.9999 23.7575 23.5151 39.9999 23.5151Z" fill="#FFFFFF" transform="matrix(1 0 0 1.00001 3117 1008)"/></g></g></g><path d="M2076 646.334C2076 635.656 2084.66 627 2095.33 627L2386.67 627C2397.34 627 2406 635.656 2406 646.334L2406 723.666C2406 734.344 2397.34 743 2386.67 743L2095.33 743C2084.66 743 2076 734.344 2076 723.666Z" stroke="#FF0000" stroke-width="10.3125" stroke-miterlimit="8" fill-rule="evenodd"/><text fill="#FFFFFF" font-family="Yu Gothic,Yu Gothic_MSFontService,sans-serif" font-weight="400" font-size="46" transform="matrix(1 0 0 1 2184.07 700)">SPO<tspan font-size="37" x="92.8125" y="0">2</tspan></text><path d="M3123 748 3123 748 3137 748 3137 688 3123 688 3123 748Z" fill="#0072C6" fill-rule="evenodd"/><path d="M3065 748 3065 748 3079 748 3079 688 3065 688 3065 748Z" fill="#0072C6" fill-rule="evenodd"/><path d="M3196 688 3196 688 3181 688 3181 748 3196 748 3196 688Z" fill="#0072C6" fill-rule="evenodd"/><path d="M3035 748 3035 748 3049.78 748 3049.78 672.508 3093.59 672.508 3093.59 748 3108.37 748 3108.37 672.508 3152.18 672.508 3152.18 748 3166.41 748 3166.41 672.508 3210.22 672.508 3210.22 748 3225 748 3225 645.353 3130.27 622 3035 645.353 3035 748Z" fill="#0072C6" fill-rule="evenodd"/><path d="M2488.5 684 2512 660.5 2512 672.25 2931 672.25 2931 660.5 2954.5 684 2931 707.5 2931 695.75 2512 695.75 2512 707.5Z" stroke="#2F528F" stroke-width="4.58333" stroke-miterlimit="8" fill="#4472C4" fill-rule="evenodd" fill-opacity="0.501961"/><path d="M2994.88 836.472 2992.16 826.42 2379.59 992.258 2374.15 972.154 2986.71 806.316 2983.99 796.264 3009.54 810.926Z" stroke="#2F528F" stroke-width="4.58333" stroke-miterlimit="8" fill="#4472C4" fill-rule="evenodd" fill-opacity="0.501961"/><path d="M2262.5 786.5 2252 786.5 2252 940.5 2231 940.5 2231 786.5 2220.5 786.5 2241.5 765.5Z" stroke="#2F528F" stroke-width="4.58333" stroke-miterlimit="8" fill="#4472C4" fill-rule="evenodd" fill-opacity="0.501961"/><path d="M0 634.615 10.4138 634.615 10.4138 0 31.2415 0 31.2415 634.615 41.6553 634.615 20.8276 655.443Z" stroke="#FF0000" stroke-width="4.58333" stroke-miterlimit="8" fill="#4472C4" fill-rule="evenodd" fill-opacity="0.501961" transform="matrix(-0.26132 0.965252 0.965252 0.26132 2382.31 780.082)"/><path d="M2398 1014.5 2398 1024.75 3002.5 1024.75 3002.5 1045.25 2398 1045.25 2398 1055.5 2377.5 1035Z" stroke="#FF0000" stroke-width="4.58333" stroke-miterlimit="8" fill="#FF0000" fill-rule="evenodd" fill-opacity="0.501961"/><text font-family="Yu Gothic,Yu Gothic_MSFontService,sans-serif" font-weight="400" font-size="46" transform="matrix(1 0 0 1 2568.79 618)">貸出し・回収<tspan font-size="46" x="-475.475" y="266">計測</tspan><tspan font-size="46" x="-79.6033" y="189">状況通知</tspan><tspan font-size="46" x="-220.543" y="325">申込</tspan><tspan font-size="46" x="59.3074" y="501">救急派遣</tspan></text><rect x="2068" y="1060" width="110" height="45.9998" fill="#4472C4"/><rect x="2081" y="1069" width="36" height="27.9999"/><rect x="2130" y="1069" width="36" height="27.9999"/><path d="M2054.5 1060.5 2066 1014.5 2182 1014.5 2193.5 1060.5Z" stroke="#2F528F" stroke-width="4.58333" stroke-miterlimit="8" fill="#9DC3E6" fill-rule="evenodd"/><g clip-path="url(#clip4)"><g clip-path="url(#clip5)"><g clip-path="url(#clip6)"><path d="M224.461 14815.5C205.309 14820.1 194.201 14841.2 199.563 14862.7 204.926 14884.1 224.461 14897.1 243.613 14892.5 262.764 14887.9 273.873 14866.9 268.51 14845.4 263.147 14824.4 243.613 14811 224.461 14815.5Z" fill="#ED7D31" transform="matrix(1.00247 0 0 1 2014.88 -13865.5)"/><path d="M293.025 14854.2C289.577 14853.9 285.364 14860.7 280.001 14863.4 274.639 14865.7 268.893 14870.7 253.572 14863.4 238.25 14856.2 235.952 14850 222.928 14850 209.905 14850 189.221 14873 188.838 14906.3L319.071 14906.3C318.688 14906.3 317.539 14883.3 310.261 14871.1 301.451 14854.6 296.855 14854.2 293.025 14854.2Z" fill="#ED7D31" transform="matrix(1.00247 0 0 1 1987.2 -13821.3)"/></g></g></g><text font-family="Yu Gothic,Yu Gothic_MSFontService,sans-serif" font-weight="400" font-size="46" transform="matrix(1 0 0 1 751.359 713)">1.<tspan font-size="46" x="82.5" y="0">患者が該当する地域のステーションに申し込み</tspan><tspan font-size="46" x="0" y="55">2.</tspan><tspan font-size="46" x="82.5" y="55">患者</tspan><tspan font-size="46" x="174.167" y="55">の経過観察を行う担当病院割当</tspan><tspan font-size="46" x="0" y="110">3.</tspan><tspan font-size="46" x="82.5" y="110">患者へ</tspan><tspan font-size="46" x="220" y="110">の酸素飽和濃度センサー手配</tspan><tspan font-size="46" x="0" y="165">4.</tspan><tspan font-size="46" x="82.5" y="165">患者へ</tspan><tspan font-size="46" x="220" y="165">の酸素飽和濃度センサー装着</tspan><tspan font-size="46" x="0" y="220">5.</tspan><tspan font-size="46" x="82.5" y="220">センシングし担当病院へ通知</tspan><tspan font-size="46" x="0" y="275">6.</tspan><tspan font-size="46" x="82.5" y="275">危険濃度になった場合救急派遣</tspan><tspan font-size="46" x="0" y="330">7.</tspan><tspan font-size="46" x="82.5" y="330">快癒後、もしくは、病院搬送後、センサー回収</tspan><tspan font-size="46" x="0" y="385">※</tspan><tspan font-size="46" x="59.0104" y="385">酸素飽和濃度センサーは、ステーションが管理</tspan><tspan font-size="46" x="2325" y="463">病院</tspan><tspan font-size="46" x="1447.43" y="453">患者</tspan><tspan font-size="46" x="2285.68" y="99">管理ステーション</tspan></text></g></svg>