<svg width="2872" height="958" xmlns="http://www.w3.org/2000/svg" xmlns:xlink="http://www.w3.org/1999/xlink" overflow="hidden"><defs><clipPath id="clip0"><rect x="912" y="1629" width="2872" height="958"/></clipPath></defs><g clip-path="url(#clip0)" transform="translate(-912 -1629)"><rect x="1101.5" y="1937.5" width="330" height="133" stroke="#ED7D31" stroke-width="4.58333" stroke-miterlimit="8" fill="#FFFFFF"/><text font-family="Yu Gothic,Yu Gothic_MSFontService,sans-serif" font-weight="400" font-size="46" transform="matrix(1 0 0 1 1189.96 2018)">Patient</text><rect x="1101.5" y="1634.5" width="330" height="134" stroke="#000000" stroke-width="4.58333" stroke-miterlimit="8" fill="#FFFFFF"/><text font-family="Yu Gothic,Yu Gothic_MSFontService,sans-serif" font-weight="400" font-size="46" transform="matrix(1 0 0 1 1209.44 1688)">SPO<tspan font-size="37" x="92.8125" y="0">2</tspan><tspan font-size="46" x="-16.6146" y="55">Sensor</tspan></text><rect x="1965.5" y="1634.5" width="330" height="134" stroke="#000000" stroke-width="4.58333" stroke-miterlimit="8" fill="#FFFFFF"/><text font-family="Yu Gothic,Yu Gothic_MSFontService,sans-serif" font-weight="400" font-size="46" transform="matrix(1 0 0 1 2054.54 1715)">Station</text><rect x="1967.5" y="1937.5" width="330" height="133" stroke="#000000" stroke-width="4.58333" stroke-miterlimit="8" fill="#FFFFFF"/><text font-family="Yu Gothic,Yu Gothic_MSFontService,sans-serif" font-weight="400" font-size="46" transform="matrix(1 0 0 1 2044.18 2018)">Hospital</text><rect x="1549.5" y="2201.5" width="330" height="133" stroke="#ED7D31" stroke-width="4.58333" stroke-miterlimit="8" fill="#FFFFFF"/><text font-family="Yu Gothic,Yu Gothic_MSFontService,sans-serif" font-weight="400" font-size="46" transform="matrix(1 0 0 1 1612.78 2254)">Following<tspan font-size="46" x="71.3167" y="55">U</tspan><tspan font-size="46" x="105.119" y="55">p</tspan></text><path d="M1.54959e-06-2.29167 510.801-2.29132 510.801 2.29201-1.54959e-06 2.29167ZM506.217-13.7497 533.717 0.000360892 506.217 13.7503Z" transform="matrix(-1 0 0 1 1965.22 1701.5)"/><path d="M1.54311e-06-2.29167 513.044-2.29132 513.044 2.29201-1.54311e-06 2.29167ZM508.461-13.7497 535.961 0.000360892 508.461 13.7503Z" fill="#ED7D31" transform="matrix(-1 0 0 1 1967.46 2003.5)"/><path d="M1268.79 1768.5 1268.79 1914.64 1264.21 1914.64 1264.21 1768.5ZM1280.25 1910.05 1266.5 1937.55 1252.75 1910.05Z" fill="#ED7D31"/><path d="M2827.92 2265.13 2912.72 2265.13 2912.72 2585.96 1016.7 2585.96 1016.7 1699.21 1078.58 1699.21 1078.58 1703.79 1018.99 1703.79 1021.29 1701.5 1021.29 2583.67 1018.99 2581.38 2910.43 2581.38 2908.13 2583.67 2908.13 2267.42 2910.43 2269.71 2827.92 2269.71ZM1074 1687.75 1101.5 1701.5 1074 1715.25Z" fill="#ED7D31"/><path d="M2.29167-4.19541e-06 2.29199 174.214-2.29135 174.214-2.29167 4.19541e-06ZM13.7503 169.631 0.000360892 197.131-13.7497 169.631Z" fill="#ED7D31" transform="matrix(1 0 0 -1 1714.5 2200.63)"/><path d="M2131.15 1767.98 2133.08 1914.12 2130.79 1914.15 2128.85 1768.02ZM2145.63 1909.37 2132.24 1937.05 2118.13 1909.74Z"/><text font-family="Yu Gothic,Yu Gothic_MSFontService,sans-serif" font-weight="400" font-size="37" transform="matrix(1 0 0 1 1455.39 1684)">＊<tspan font-size="37" x="693.174" y="225">＊</tspan><tspan font-size="37" x="0" y="312">1..</tspan><tspan font-size="37" x="40.1043" y="312">＊</tspan><tspan font-size="37" x="465.489" y="315">1</tspan><tspan font-size="37" x="-424.813" y="0">0..1</tspan></text><rect x="2461.5" y="2200.5" width="367" height="133" stroke="#ED7D31" stroke-width="4.58333" stroke-miterlimit="8" fill="#FFFFFF"/><text font-family="Yu Gothic,Yu Gothic_MSFontService,sans-serif" font-weight="400" font-size="46" transform="matrix(1 0 0 1 2567.85 2254)">Patient <tspan font-size="46" x="-63.2957" y="55">Management</tspan></text><path d="M2295.5 1699.21 2646.97 1699.21 2646.97 2177.63 2642.39 2177.63 2642.39 1701.5 2644.68 1703.79 2295.5 1703.79ZM2658.43 2173.05 2644.68 2200.55 2630.93 2173.05Z"/><path d="M0.0034314-2.29166 558.432-1.45551 558.425 3.12782-0.0034314 2.29166ZM553.866-12.9207 581.346 0.870472 553.825 14.5793Z" fill="#ED7D31" transform="matrix(-1 0 0 1 2460.85 2267.5)"/><text font-family="Yu Gothic,Yu Gothic_MSFontService,sans-serif" font-weight="400" font-size="37" transform="matrix(1 0 0 1 1909.33 2249)">0..1<tspan font-size="37" x="740.984" y="-78">＊</tspan><tspan font-size="37" x="14.3051" y="-564">1</tspan><tspan font-size="37" x="-725.45" y="-328">0..1</tspan><tspan font-size="37" x="951.251" y="2">0..1</tspan><tspan font-size="37" x="1.60632" y="76">assign</tspan><tspan font-size="37" x="-458.526" y="-197">monitor</tspan><tspan font-size="37" x="-451.569" y="-490">manage</tspan><tspan font-size="37" x="-964.395" y="-509">assigned</tspan><tspan font-size="37" x="-158.314" y="-191">response for</tspan><tspan font-size="37" x="75.9043" y="-354">manage</tspan><tspan font-size="37" x="576.394" y="-78">manage</tspan></text><path d="M0 2.29167-82.4993 2.29167-80.2076 0-80.2076 1377.9-82.4993 1375.61 240.212 1375.61 240.212 1380.19-84.7909 1380.19-84.7909-2.29167 0-2.29167ZM235.629 1364.15 263.129 1377.9 235.629 1391.65Z" fill="#ED7D31" transform="matrix(-6.12323e-17 -1 -1 6.12323e-17 2644.4 2333.63)"/><text font-family="Yu Gothic,Yu Gothic_MSFontService,sans-serif" font-weight="400" font-size="37" transform="matrix(1 0 0 1 1209.47 2126)">1<tspan font-size="37" x="92.985" y="9">target</tspan><tspan font-size="37" x="1104.79" y="-447">1</tspan><tspan font-size="37" x="1204.76" y="124">1</tspan><tspan font-size="37" x="87.3262" y="-211">installed</tspan><tspan font-size="46" x="1819.36" y="-221">Stable Twins and Relationships</tspan><tspan font-size="46" x="1819.36" y="-166">Dynamic</tspan><tspan font-size="46" x="2016.45" y="-166">Twins</tspan><tspan font-size="46" x="2155.66" y="-166">and</tspan><tspan font-size="46" x="2247.33" y="-166">Relationship</tspan><tspan font-size="46" x="2510.3" y="-166">s</tspan></text><path d="M2827.5 1887.5 2987.72 1887.5" stroke="#000000" stroke-width="4.58333" stroke-miterlimit="8" fill="none" fill-rule="evenodd"/><path d="M2829.5 1945.5 2989.72 1945.5" stroke="#ED7D31" stroke-width="4.58333" stroke-miterlimit="8" fill="none" fill-rule="evenodd"/></g></svg>