<svg width="3397" height="938" xmlns="http://www.w3.org/2000/svg" xmlns:xlink="http://www.w3.org/1999/xlink" overflow="hidden"><defs><clipPath id="clip0"><rect x="608" y="701" width="3397" height="938"/></clipPath><linearGradient x1="1333.58" y1="788.081" x2="1333.58" y2="843.081" gradientUnits="userSpaceOnUse" spreadMethod="reflect" id="fill1"><stop offset="0" stop-color="#1A1A1A"/><stop offset="0.02917" stop-color="#1A1A1A"/><stop offset="0.3" stop-color="#1A1A1A"/><stop offset="1" stop-color="#1A1A1A"/></linearGradient><linearGradient x1="1190.94" y1="774.331" x2="1190.94" y2="829.331" gradientUnits="userSpaceOnUse" spreadMethod="reflect" id="fill2"><stop offset="0" stop-color="#1A1A1A"/><stop offset="0.02917" stop-color="#1A1A1A"/><stop offset="0.3" stop-color="#1A1A1A"/><stop offset="1" stop-color="#1A1A1A"/></linearGradient><linearGradient x1="2089.24" y1="787.014" x2="2089.24" y2="842.014" gradientUnits="userSpaceOnUse" spreadMethod="reflect" id="fill3"><stop offset="0" stop-color="#1A1A1A"/><stop offset="0.02917" stop-color="#1A1A1A"/><stop offset="0.3" stop-color="#1A1A1A"/><stop offset="1" stop-color="#1A1A1A"/></linearGradient><linearGradient x1="1946.6" y1="773.264" x2="1946.6" y2="828.264" gradientUnits="userSpaceOnUse" spreadMethod="reflect" id="fill4"><stop offset="0" stop-color="#1A1A1A"/><stop offset="0.02917" stop-color="#1A1A1A"/><stop offset="0.3" stop-color="#1A1A1A"/><stop offset="1" stop-color="#1A1A1A"/></linearGradient><linearGradient x1="2839.79" y1="773.264" x2="2839.79" y2="828.264" gradientUnits="userSpaceOnUse" spreadMethod="reflect" id="fill5"><stop offset="0" stop-color="#1A1A1A"/><stop offset="0.02917" stop-color="#1A1A1A"/><stop offset="0.3" stop-color="#1A1A1A"/><stop offset="1" stop-color="#1A1A1A"/></linearGradient><linearGradient x1="2697.15" y1="759.514" x2="2697.15" y2="814.514" gradientUnits="userSpaceOnUse" spreadMethod="reflect" id="fill6"><stop offset="0" stop-color="#1A1A1A"/><stop offset="0.02917" stop-color="#1A1A1A"/><stop offset="0.3" stop-color="#1A1A1A"/><stop offset="1" stop-color="#1A1A1A"/></linearGradient><linearGradient x1="3197.29" y1="998.419" x2="3197.29" y2="1053.42" gradientUnits="userSpaceOnUse" spreadMethod="reflect" id="fill7"><stop offset="0" stop-color="#1A1A1A"/><stop offset="0.02917" stop-color="#1A1A1A"/><stop offset="0.3" stop-color="#1A1A1A"/><stop offset="1" stop-color="#1A1A1A"/></linearGradient><linearGradient x1="3197.29" y1="1314.57" x2="3197.29" y2="1369.57" gradientUnits="userSpaceOnUse" spreadMethod="reflect" id="fill8"><stop offset="0" stop-color="#1A1A1A"/><stop offset="0.02917" stop-color="#1A1A1A"/><stop offset="0.3" stop-color="#1A1A1A"/><stop offset="1" stop-color="#1A1A1A"/></linearGradient><linearGradient x1="2940.19" y1="1286.26" x2="2940.19" y2="1341.26" gradientUnits="userSpaceOnUse" spreadMethod="reflect" id="fill9"><stop offset="0" stop-color="#1A1A1A"/><stop offset="0.02917" stop-color="#1A1A1A"/><stop offset="0.3" stop-color="#1A1A1A"/><stop offset="1" stop-color="#1A1A1A"/></linearGradient><linearGradient x1="3036.2" y1="988.232" x2="3036.2" y2="1043.23" gradientUnits="userSpaceOnUse" spreadMethod="reflect" id="fill10"><stop offset="0" stop-color="#1A1A1A"/><stop offset="0.02917" stop-color="#1A1A1A"/><stop offset="0.3" stop-color="#1A1A1A"/><stop offset="1" stop-color="#1A1A1A"/></linearGradient><linearGradient x1="3043.93" y1="1037.73" x2="3043.93" y2="1092.73" gradientUnits="userSpaceOnUse" spreadMethod="reflect" id="fill11"><stop offset="0" stop-color="#1A1A1A"/><stop offset="0.02917" stop-color="#1A1A1A"/><stop offset="0.3" stop-color="#1A1A1A"/><stop offset="1" stop-color="#1A1A1A"/></linearGradient><linearGradient x1="3002.11" y1="1087.23" x2="3002.11" y2="1142.23" gradientUnits="userSpaceOnUse" spreadMethod="reflect" id="fill12"><stop offset="0" stop-color="#1A1A1A"/><stop offset="0.02917" stop-color="#1A1A1A"/><stop offset="0.3" stop-color="#1A1A1A"/><stop offset="1" stop-color="#1A1A1A"/></linearGradient><linearGradient x1="1230.97" y1="851.571" x2="1230.97" y2="906.571" gradientUnits="userSpaceOnUse" spreadMethod="reflect" id="fill13"><stop offset="0" stop-color="#1A1A1A"/><stop offset="0.02917" stop-color="#1A1A1A"/><stop offset="0.3" stop-color="#1A1A1A"/><stop offset="1" stop-color="#1A1A1A"/></linearGradient><linearGradient x1="1992.35" y1="851.571" x2="1992.35" y2="906.571" gradientUnits="userSpaceOnUse" spreadMethod="reflect" id="fill14"><stop offset="0" stop-color="#1A1A1A"/><stop offset="0.02917" stop-color="#1A1A1A"/><stop offset="0.3" stop-color="#1A1A1A"/><stop offset="1" stop-color="#1A1A1A"/></linearGradient><linearGradient x1="2756.86" y1="851.571" x2="2756.86" y2="906.571" gradientUnits="userSpaceOnUse" spreadMethod="reflect" id="fill15"><stop offset="0" stop-color="#1A1A1A"/><stop offset="0.02917" stop-color="#1A1A1A"/><stop offset="0.3" stop-color="#1A1A1A"/><stop offset="1" stop-color="#1A1A1A"/></linearGradient></defs><g clip-path="url(#clip0)" transform="translate(-608 -701)"><rect x="610" y="703" width="547" height="270" stroke="#1A1A1A" stroke-width="3.89583" stroke-linejoin="round" stroke-miterlimit="10" fill="#FFFFFF"/><text fill="#1A1A1A" font-family="Segoe UI,Segoe UI_MSFontService,sans-serif" font-weight="400" font-size="55" transform="matrix(1 0 0 1 795.346 803)">Factory</text><rect x="1366" y="703" width="547" height="270" stroke="#1A1A1A" stroke-width="3.89583" stroke-linejoin="round" stroke-miterlimit="10" fill="#FFFFFF"/><text fill="#1A1A1A" font-family="Segoe UI,Segoe UI_MSFontService,sans-serif" font-weight="400" font-size="55" transform="matrix(1 0 0 1 1438.1 803)">Production Floor</text><rect x="2123" y="703" width="546" height="270" stroke="#1A1A1A" stroke-width="3.89583" stroke-linejoin="round" stroke-miterlimit="10" fill="#FFFFFF"/><text fill="#1A1A1A" font-family="Segoe UI,Segoe UI_MSFontService,sans-serif" font-weight="400" font-size="55" transform="matrix(1 0 0 1 2206.67 803)">Production Line</text><rect x="2879" y="703" width="546" height="270" stroke="#1A1A1A" stroke-width="3.89583" stroke-linejoin="round" stroke-miterlimit="10" fill="#FFFFFF"/><text fill="#1A1A1A" font-family="Segoe UI,Segoe UI_MSFontService,sans-serif" font-weight="400" font-size="55" transform="matrix(1 0 0 1 2991.45 803)">Machine Tool</text><rect x="2879" y="1367" width="546" height="270" stroke="#1A1A1A" stroke-width="3.89583" stroke-linejoin="round" stroke-miterlimit="10" fill="#FFFFFF"/><text fill="#1A1A1A" font-family="Segoe UI,Segoe UI_MSFontService,sans-serif" font-weight="400" font-size="55" transform="matrix(1 0 0 1 3026.72 1467)">IoT Device</text><path d="M1157.5 836.781 1363.79 836.781 1363.79 840.219 1157.5 840.219ZM1337.15 820.974 1367.2 838.5 1337.15 856.026C1336.33 856.505 1335.28 856.228 1334.8 855.408 1334.32 854.588 1334.6 853.536 1335.42 853.057L1362.92 837.016 1362.92 839.985 1335.42 823.943C1334.6 823.465 1334.32 822.412 1334.8 821.592 1335.28 820.773 1336.33 820.496 1337.15 820.974Z" fill="#1A1A1A"/><path d="M2.95813e-06-1.71875 206.285-1.71839 206.285 1.71911-2.95813e-06 1.71875ZM179.65-17.526 209.695 0.000360567 179.65 17.5266C178.83 18.0049 177.778 17.7279 177.3 16.908 176.821 16.0881 177.098 15.0356 177.918 14.5574L205.418-1.48427 205.418 1.48497 177.918-14.5567C177.098-15.035 176.821-16.0875 177.3-16.9074 177.778-17.7273 178.831-18.0043 179.65-17.526Z" fill="#1A1A1A" transform="matrix(1 0 0 -1 1913.5 838.5)"/><path d="M2.95813e-06-1.71875 206.285-1.71839 206.285 1.71911-2.95813e-06 1.71875ZM179.65-17.526 209.695 0.000360567 179.65 17.5266C178.83 18.0049 177.778 17.7279 177.3 16.908 176.821 16.0881 177.098 15.0356 177.918 14.5574L205.418-1.48427 205.418 1.48497 177.918-14.5567C177.098-15.035 176.821-16.0875 177.3-16.9074 177.778-17.7273 178.831-18.0043 179.65-17.526Z" fill="#1A1A1A" transform="matrix(1 0 0 -1 2669.5 838.5)"/><path d="M3154.22 976.902 3154.22 1364.55 3150.78 1364.55 3150.78 976.902ZM3134.97 1003.54 3152.5 973.492 3170.03 1003.54C3170.5 1004.36 3170.23 1005.41 3169.41 1005.89 3168.59 1006.37 3167.54 1006.09 3167.06 1005.27L3151.02 977.769 3153.98 977.769 3137.94 1005.27C3137.46 1006.09 3136.41 1006.37 3135.59 1005.89 3134.77 1005.41 3134.5 1004.36 3134.97 1003.54ZM3170.03 1337.92 3152.5 1367.96 3134.97 1337.92C3134.5 1337.1 3134.77 1336.04 3135.59 1335.57 3136.41 1335.09 3137.47 1335.36 3137.94 1336.18L3153.98 1363.68 3151.02 1363.68 3167.06 1336.18C3167.54 1335.36 3168.59 1335.09 3169.41 1335.57 3170.23 1336.04 3170.5 1337.1 3170.03 1337.92Z" fill="#1A1A1A"/><rect x="3456" y="1035" width="547" height="270" stroke="#1A1A1A" stroke-width="3.89583" stroke-linejoin="round" stroke-miterlimit="10" fill="#FFFFFF"/><text fill="#1A1A1A" font-family="Segoe UI,Segoe UI_MSFontService,sans-serif" font-weight="400" font-size="55" transform="matrix(1 0 0 1 3604.22 1135)">IoT Device <tspan font-size="55" x="-35.2688" y="59">Machine Tool </tspan><tspan font-size="55" x="16.3396" y="119">Mapping</tspan></text><path d="M3456.72 1172.22 3446.41 1172.22 3446.41 1168.78 3456.72 1168.78ZM3442.97 1172.22 3432.66 1172.22 3432.66 1168.78 3442.97 1168.78ZM3429.22 1172.22 3418.91 1172.22 3418.91 1168.78 3429.22 1168.78ZM3415.47 1172.22 3405.16 1172.22 3405.16 1168.78 3415.47 1168.78ZM3401.72 1172.22 3391.41 1172.22 3391.41 1168.78 3401.72 1168.78ZM3387.97 1172.22 3377.66 1172.22 3377.66 1168.78 3387.97 1168.78ZM3374.22 1172.22 3363.91 1172.22 3363.91 1168.78 3374.22 1168.78ZM3360.47 1172.22 3350.16 1172.22 3350.16 1168.78 3360.47 1168.78ZM3346.72 1172.22 3336.41 1172.22 3336.41 1168.78 3346.72 1168.78ZM3332.97 1172.22 3322.66 1172.22 3322.66 1168.78 3332.97 1168.78ZM3319.22 1172.22 3308.91 1172.22 3308.91 1168.78 3319.22 1168.78ZM3305.47 1172.22 3295.16 1172.22 3295.16 1168.78 3305.47 1168.78ZM3291.72 1172.22 3281.41 1172.22 3281.41 1168.78 3291.72 1168.78ZM3277.97 1172.22 3267.66 1172.22 3267.66 1168.78 3277.97 1168.78ZM3264.22 1172.22 3253.91 1172.22 3253.91 1168.78 3264.22 1168.78ZM3250.47 1172.22 3240.16 1172.22 3240.16 1168.78 3250.47 1168.78ZM3236.72 1172.22 3226.41 1172.22 3226.41 1168.78 3236.72 1168.78ZM3222.97 1172.22 3212.66 1172.22 3212.66 1168.78 3222.97 1168.78ZM3209.22 1172.22 3198.91 1172.22 3198.91 1168.78 3209.22 1168.78ZM3195.47 1172.22 3185.16 1172.22 3185.16 1168.78 3195.47 1168.78ZM3181.72 1172.22 3171.41 1172.22 3171.41 1168.78 3181.72 1168.78ZM3167.97 1172.22 3157.66 1172.22 3157.66 1168.78 3167.97 1168.78ZM3182.54 1188.03 3152.49 1170.5 3182.54 1152.97C3183.36 1152.5 3184.41 1152.77 3184.89 1153.59 3185.37 1154.41 3185.09 1155.46 3184.27 1155.94L3156.77 1171.98 3156.77 1169.02 3184.27 1185.06C3185.09 1185.54 3185.37 1186.59 3184.89 1187.41 3184.41 1188.23 3183.36 1188.5 3182.54 1188.03Z" fill="#1A1A1A"/><path d="M1332.21 800.377 1335.31 800.377 1334.79 807.205 1340.7 804.981 1341.64 807.789 1335.49 809.046 1339.76 814.504 1337.29 816.211 1333.78 810.259 1330.23 816.211 1327.76 814.504 1332.03 809.046 1325.83 807.789 1326.84 804.981 1332.73 807.205Z" fill="url(#fill1)" fill-rule="evenodd"/><text fill="#000000" fill-opacity="0" font-family="Arial,Arial_MSFontService,sans-serif" font-size="15.835" x="1325.83" y="814.232">*</text><path d="M1193.49 785.908 1194.88 785.908 1194.88 818.836 1191.2 818.836 1191.2 791.006C1190.91 791.291 1190.5 791.617 1189.95 791.984 1189.41 792.35 1188.79 792.713 1188.11 793.073 1187.43 793.432 1186.71 793.769 1185.95 794.084 1185.2 794.398 1184.46 794.645 1183.74 794.825L1183.74 791.096C1184.55 790.872 1185.41 790.568 1186.31 790.187 1187.22 789.805 1188.11 789.378 1188.99 788.906 1189.86 788.435 1190.69 787.94 1191.47 787.424 1192.25 786.907 1192.92 786.402 1193.49 785.908Z" fill="url(#fill2)" fill-rule="evenodd"/><text fill="#000000" fill-opacity="0" font-family="Arial,Arial_MSFontService,sans-serif" font-size="32.9277" x="1183.74" y="814.72">1</text><path d="M2087.87 799.309 2090.97 799.309 2090.45 806.137 2096.36 803.914 2097.31 806.721 2091.15 807.979 2095.42 813.437 2092.95 815.144 2089.44 809.192 2085.9 815.144 2083.42 813.437 2087.69 807.979 2081.49 806.721 2082.5 803.914 2088.39 806.137Z" fill="url(#fill3)" fill-rule="evenodd"/><text fill="#000000" fill-opacity="0" font-family="Arial,Arial_MSFontService,sans-serif" font-size="15.835" x="2081.49" y="813.165">*</text><path d="M1949.15 784.84 1950.54 784.84 1950.54 817.768 1946.86 817.768 1946.86 789.939C1946.57 790.223 1946.16 790.549 1945.61 790.916 1945.07 791.283 1944.45 791.646 1943.77 792.005 1943.09 792.365 1942.37 792.702 1941.61 793.016 1940.86 793.331 1940.12 793.578 1939.4 793.757L1939.4 790.029C1940.21 789.804 1941.07 789.501 1941.97 789.119 1942.88 788.737 1943.77 788.31 1944.65 787.839 1945.52 787.367 1946.35 786.873 1947.13 786.356 1947.91 785.84 1948.58 785.334 1949.15 784.84Z" fill="url(#fill4)" fill-rule="evenodd"/><text fill="#000000" fill-opacity="0" font-family="Arial,Arial_MSFontService,sans-serif" font-size="32.9277" x="1939.4" y="813.652">1</text><path d="M2838.42 785.559 2841.52 785.559 2841.01 792.387 2846.91 790.164 2847.86 792.971 2841.7 794.229 2845.97 799.687 2843.5 801.394 2840 795.442 2836.45 801.394 2833.98 799.687 2838.24 794.229 2832.05 792.971 2833.06 790.164 2838.94 792.387Z" fill="url(#fill5)" fill-rule="evenodd"/><text fill="#000000" fill-opacity="0" font-family="Arial,Arial_MSFontService,sans-serif" font-size="15.835" x="2832.05" y="799.415">*</text><path d="M2699.7 771.09 2701.1 771.09 2701.1 804.018 2697.41 804.018 2697.41 776.189C2697.13 776.473 2696.71 776.799 2696.17 777.166 2695.62 777.533 2695.01 777.896 2694.32 778.255 2693.64 778.615 2692.92 778.952 2692.17 779.266 2691.41 779.581 2690.67 779.828 2689.96 780.007L2689.96 776.279C2690.76 776.054 2691.62 775.751 2692.53 775.369 2693.43 774.987 2694.32 774.56 2695.2 774.089 2696.08 773.617 2696.9 773.123 2697.68 772.606 2698.46 772.09 2699.13 771.584 2699.7 771.09Z" fill="url(#fill6)" fill-rule="evenodd"/><text fill="#000000" fill-opacity="0" font-family="Arial,Arial_MSFontService,sans-serif" font-size="32.9277" x="2689.96" y="799.902">1</text><path d="M3195.92 1010.71 3199.02 1010.71 3198.51 1017.54 3204.41 1015.32 3205.36 1018.13 3199.2 1019.38 3203.47 1024.84 3201 1026.55 3197.5 1020.6 3193.95 1026.55 3191.48 1024.84 3195.74 1019.38 3189.55 1018.13 3190.56 1015.32 3196.44 1017.54Z" fill="url(#fill7)" fill-rule="evenodd"/><text fill="#000000" fill-opacity="0" font-family="Arial,Arial_MSFontService,sans-serif" font-size="15.835" x="3189.55" y="1024.57">*</text><path d="M3195.92 1326.86 3199.02 1326.86 3198.51 1333.69 3204.41 1331.47 3205.36 1334.27 3199.2 1335.53 3203.47 1340.99 3201 1342.7 3197.5 1336.74 3193.95 1342.7 3191.48 1340.99 3195.74 1335.53 3189.55 1334.27 3190.56 1331.47 3196.44 1333.69Z" fill="url(#fill8)" fill-rule="evenodd"/><text fill="#000000" fill-opacity="0" font-family="Arial,Arial_MSFontService,sans-serif" font-size="15.835" x="3189.55" y="1340.72">*</text><path d="M2832.42 1319.13 2826.87 1319.89C2825.16 1320.13 2823.87 1320.55 2823.01 1321.16 2822.14 1321.77 2821.7 1322.84 2821.7 1324.38 2821.7 1325.51 2822.1 1326.42 2822.9 1327.14 2823.71 1327.85 2824.77 1328.2 2826.11 1328.2 2827.93 1328.2 2829.44 1327.56 2830.63 1326.28 2831.82 1325 2832.42 1323.38 2832.42 1321.42ZM3093.44 1310.32C3091.3 1310.32 3089.58 1311.07 3088.27 1312.56 3086.97 1314.05 3086.32 1315.92 3086.32 1318.16L3086.32 1321.37C3086.32 1323.28 3086.94 1324.89 3088.17 1326.21 3089.41 1327.54 3090.98 1328.2 3092.88 1328.2 3095.11 1328.2 3096.86 1327.35 3098.12 1325.64 3099.39 1323.93 3100.02 1321.56 3100.02 1318.52 3100.02 1315.96 3099.43 1313.95 3098.25 1312.5 3097.06 1311.05 3095.46 1310.32 3093.44 1310.32ZM2970.52 1310.32C2968.15 1310.32 2966.28 1311.13 2964.9 1312.74 2963.53 1314.35 2962.84 1316.57 2962.84 1319.4 2962.84 1322.12 2963.53 1324.27 2964.93 1325.84 2966.32 1327.42 2968.18 1328.2 2970.52 1328.2 2972.9 1328.2 2974.73 1327.43 2976.01 1325.89 2977.29 1324.35 2977.93 1322.15 2977.93 1319.31 2977.93 1316.43 2977.29 1314.22 2976.01 1312.66 2974.73 1311.1 2972.9 1310.32 2970.52 1310.32ZM2892.52 1310.32C2890.15 1310.32 2888.28 1311.13 2886.9 1312.74 2885.53 1314.35 2884.84 1316.57 2884.84 1319.4 2884.84 1322.12 2885.53 1324.27 2886.93 1325.84 2888.32 1327.42 2890.18 1328.2 2892.52 1328.2 2894.9 1328.2 2896.73 1327.43 2898.01 1325.89 2899.29 1324.35 2899.93 1322.15 2899.93 1319.31 2899.93 1316.43 2899.29 1314.22 2898.01 1312.66 2896.73 1311.1 2894.9 1310.32 2892.52 1310.32ZM2854.44 1310.32C2852.3 1310.32 2850.58 1311.07 2849.27 1312.56 2847.97 1314.05 2847.32 1315.92 2847.32 1318.16L2847.32 1321.37C2847.32 1323.28 2847.94 1324.89 2849.17 1326.21 2850.41 1327.54 2851.98 1328.2 2853.88 1328.2 2856.11 1328.2 2857.86 1327.35 2859.12 1325.64 2860.39 1323.93 2861.02 1321.56 2861.02 1318.52 2861.02 1315.96 2860.43 1313.95 2859.25 1312.5 2858.06 1311.05 2856.46 1310.32 2854.44 1310.32ZM3056.14 1307.76 3059.8 1307.76 3059.8 1320.92C3059.8 1325.78 3061.66 1328.2 3065.37 1328.2 3067.17 1328.2 3068.65 1327.54 3069.81 1326.21 3070.97 1324.89 3071.55 1323.16 3071.55 1321.01L3071.55 1307.76 3075.23 1307.76 3075.23 1330.76 3071.55 1330.76 3071.55 1327.12 3071.46 1327.12C3069.93 1329.91 3067.57 1331.3 3064.36 1331.3 3058.88 1331.3 3056.14 1328.04 3056.14 1321.51ZM2970.79 1307.22C2974.22 1307.22 2976.89 1308.28 2978.82 1310.39 2980.74 1312.5 2981.71 1315.43 2981.71 1319.17 2981.71 1322.84 2980.67 1325.78 2978.59 1327.99 2976.52 1330.2 2973.74 1331.3 2970.25 1331.3 2966.85 1331.3 2964.14 1330.23 2962.11 1328.08 2960.08 1325.93 2959.06 1323.08 2959.06 1319.53 2959.06 1315.67 2960.12 1312.65 2962.23 1310.48 2964.34 1308.31 2967.2 1307.22 2970.79 1307.22ZM2920.96 1307.22C2923.47 1307.22 2925.4 1308.04 2926.73 1309.66 2928.06 1311.29 2928.73 1313.63 2928.73 1316.7L2928.73 1330.76 2925.04 1330.76 2925.04 1317.65C2925.04 1312.76 2923.26 1310.32 2919.7 1310.32 2917.86 1310.32 2916.33 1311.02 2915.13 1312.4 2913.92 1313.79 2913.32 1315.53 2913.32 1317.65L2913.32 1330.76 2909.64 1330.76 2909.64 1307.76 2913.32 1307.76 2913.32 1311.58 2913.41 1311.58C2915.15 1308.68 2917.66 1307.22 2920.96 1307.22ZM2892.79 1307.22C2896.22 1307.22 2898.89 1308.28 2900.82 1310.39 2902.74 1312.5 2903.71 1315.43 2903.71 1319.17 2903.71 1322.84 2902.67 1325.78 2900.59 1327.99 2898.52 1330.2 2895.74 1331.3 2892.25 1331.3 2888.85 1331.3 2886.14 1330.23 2884.11 1328.08 2882.08 1325.93 2881.06 1323.08 2881.06 1319.53 2881.06 1315.67 2882.12 1312.65 2884.23 1310.48 2886.34 1308.31 2889.2 1307.22 2892.79 1307.22ZM2855.36 1307.22C2858.33 1307.22 2860.64 1308.25 2862.3 1310.31 2863.96 1312.37 2864.79 1315.13 2864.79 1318.59 2864.79 1322.44 2863.86 1325.52 2861.99 1327.83 2860.12 1330.15 2857.55 1331.3 2854.31 1331.3 2851.33 1331.3 2849.03 1330.01 2847.41 1327.44L2847.32 1327.44 2847.32 1341.34 2843.64 1341.34 2843.64 1307.76 2847.32 1307.76 2847.32 1311.81 2847.41 1311.81C2849.22 1308.75 2851.87 1307.22 2855.36 1307.22ZM2827.99 1307.22C2833.4 1307.22 2836.1 1310.08 2836.1 1315.8L2836.1 1330.76 2832.42 1330.76 2832.42 1327.17 2832.33 1327.17C2830.72 1329.92 2828.37 1331.3 2825.25 1331.3 2822.96 1331.3 2821.17 1330.7 2819.87 1329.48 2818.58 1328.27 2817.93 1326.66 2817.93 1324.65 2817.93 1320.36 2820.46 1317.86 2825.52 1317.15L2832.42 1316.19C2832.42 1312.28 2830.84 1310.32 2827.68 1310.32 2824.91 1310.32 2822.41 1311.27 2820.18 1313.15L2820.18 1309.38C2822.44 1307.94 2825.04 1307.22 2827.99 1307.22ZM3024.13 1298.55 3027.9 1298.55 3027.9 1312.68 3044.57 1312.68 3044.57 1298.55 3048.34 1298.55 3048.34 1330.76 3044.57 1330.76 3044.57 1316.07 3027.9 1316.07 3027.9 1330.76 3024.13 1330.76ZM2984.83 1298.55 3007.18 1298.55 3007.18 1301.97 2997.88 1301.97 2997.88 1330.76 2994.11 1330.76 2994.11 1301.97 2984.83 1301.97ZM2949.13 1298.55 2952.9 1298.55 2952.9 1330.76 2949.13 1330.76ZM2779.13 1298.55 2784.12 1298.55 2794 1321.01C2794.76 1322.74 2795.26 1324.02 2795.48 1324.88L2795.62 1324.88C2796.26 1323.11 2796.78 1321.79 2797.17 1320.92L2807.25 1298.55 2811.97 1298.55 2811.97 1330.76 2808.22 1330.76 2808.22 1309.16C2808.22 1307.45 2808.32 1305.36 2808.53 1302.89L2808.44 1302.89C2808.08 1304.34 2807.76 1305.38 2807.48 1306.01L2796.47 1330.76 2794.63 1330.76 2783.65 1306.19C2783.33 1305.47 2783.01 1304.37 2782.68 1302.89L2782.59 1302.89C2782.71 1304.18 2782.77 1306.28 2782.77 1309.2L2782.77 1330.76 2779.13 1330.76ZM3082.64 1296.71 3086.32 1296.71 3086.32 1311.81 3086.41 1311.81C3088.22 1308.75 3090.87 1307.22 3094.36 1307.22 3097.31 1307.22 3099.62 1308.25 3101.29 1310.31 3102.96 1312.37 3103.79 1315.13 3103.79 1318.59 3103.79 1322.44 3102.86 1325.52 3100.99 1327.83 3099.12 1330.15 3096.55 1331.3 3093.31 1331.3 3090.27 1331.3 3087.97 1330.01 3086.41 1327.44L3086.32 1327.44 3086.32 1330.76 3082.64 1330.76Z" fill="url(#fill9)" fill-rule="evenodd"/><text fill="#000000" fill-opacity="0" font-family="Arial,Arial_MSFontService,sans-serif" font-size="44.6299" x="2779.13" y="1335.76">Map on IoT Hub</text><path d="M3015.22 1021.1 3009.67 1021.86C3007.96 1022.1 3006.67 1022.53 3005.81 1023.13 3004.94 1023.74 3004.5 1024.81 3004.5 1026.36 3004.5 1027.48 3004.9 1028.4 3005.71 1029.11 3006.51 1029.82 3007.57 1030.18 3008.91 1030.18 3010.73 1030.18 3012.24 1029.54 3013.43 1028.26 3014.62 1026.97 3015.22 1025.35 3015.22 1023.39ZM3075.32 1012.3C3072.95 1012.3 3071.08 1013.1 3069.7 1014.71 3068.33 1016.32 3067.64 1018.54 3067.64 1021.37 3067.64 1024.1 3068.33 1026.24 3069.73 1027.82 3071.12 1029.39 3072.98 1030.18 3075.32 1030.18 3077.7 1030.18 3079.53 1029.4 3080.81 1027.86 3082.09 1026.32 3082.73 1024.13 3082.73 1021.28 3082.73 1018.41 3082.09 1016.19 3080.81 1014.63 3079.53 1013.08 3077.7 1012.3 3075.32 1012.3ZM3037.24 1012.3C3035.1 1012.3 3033.38 1013.04 3032.07 1014.53 3030.77 1016.02 3030.12 1017.89 3030.12 1020.14L3030.12 1023.35C3030.12 1025.25 3030.74 1026.86 3031.97 1028.19 3033.21 1029.51 3034.78 1030.18 3036.68 1030.18 3038.91 1030.18 3040.66 1029.32 3041.92 1027.61 3043.19 1025.91 3043.82 1023.53 3043.82 1020.49 3043.82 1017.93 3043.23 1015.93 3042.05 1014.48 3040.86 1013.02 3039.26 1012.3 3037.24 1012.3ZM3103.76 1009.2C3106.27 1009.2 3108.2 1010.01 3109.53 1011.63 3110.86 1013.26 3111.53 1015.61 3111.53 1018.68L3111.53 1032.74 3107.85 1032.74 3107.85 1019.62C3107.85 1014.74 3106.06 1012.3 3102.5 1012.3 3100.66 1012.3 3099.13 1012.99 3097.93 1014.37 3096.72 1015.76 3096.12 1017.51 3096.12 1019.62L3096.12 1032.74 3092.44 1032.74 3092.44 1009.74 3096.12 1009.74 3096.12 1013.55 3096.21 1013.55C3097.95 1010.65 3100.46 1009.2 3103.76 1009.2ZM3075.59 1009.2C3079.02 1009.2 3081.7 1010.25 3083.62 1012.36 3085.54 1014.48 3086.51 1017.4 3086.51 1021.15 3086.51 1024.81 3085.47 1027.75 3083.39 1029.96 3081.32 1032.17 3078.54 1033.28 3075.05 1033.28 3071.65 1033.28 3068.94 1032.2 3066.91 1030.05 3064.88 1027.9 3063.86 1025.05 3063.86 1021.51 3063.86 1017.64 3064.92 1014.63 3067.03 1012.45 3069.14 1010.28 3072 1009.2 3075.59 1009.2ZM3038.16 1009.2C3041.13 1009.2 3043.44 1010.23 3045.1 1012.29 3046.76 1014.34 3047.6 1017.1 3047.6 1020.56 3047.6 1024.41 3046.66 1027.49 3044.79 1029.8 3042.92 1032.12 3040.36 1033.28 3037.11 1033.28 3034.13 1033.28 3031.83 1031.99 3030.21 1029.41L3030.12 1029.41 3030.12 1043.32 3026.44 1043.32 3026.44 1009.74 3030.12 1009.74 3030.12 1013.78 3030.21 1013.78C3032.02 1010.72 3034.67 1009.2 3038.16 1009.2ZM3010.79 1009.2C3016.2 1009.2 3018.9 1012.06 3018.9 1017.78L3018.9 1032.74 3015.22 1032.74 3015.22 1029.14 3015.13 1029.14C3013.53 1031.9 3011.17 1033.28 3008.05 1033.28 3005.76 1033.28 3003.97 1032.67 3002.67 1031.46 3001.38 1030.24 3000.73 1028.63 3000.73 1026.63 3000.73 1022.33 3003.26 1019.83 3008.32 1019.12L3015.22 1018.16C3015.22 1014.25 3013.64 1012.3 3010.48 1012.3 3007.71 1012.3 3005.21 1013.24 3002.98 1015.13L3002.98 1011.35C3005.24 1009.92 3007.84 1009.2 3010.79 1009.2ZM2961.93 1000.53 2966.92 1000.53 2976.8 1022.99C2977.56 1024.71 2978.06 1026 2978.28 1026.85L2978.42 1026.85C2979.06 1025.08 2979.58 1023.77 2979.97 1022.9L2990.05 1000.53 2994.77 1000.53 2994.77 1032.74 2991.02 1032.74 2991.02 1011.13C2991.02 1009.42 2991.12 1007.33 2991.33 1004.86L2991.24 1004.86C2990.88 1006.31 2990.56 1007.36 2990.28 1007.98L2979.27 1032.74 2977.43 1032.74 2966.45 1008.16C2966.13 1007.45 2965.81 1006.34 2965.48 1004.86L2965.39 1004.86C2965.51 1006.15 2965.57 1008.25 2965.57 1011.17L2965.57 1032.74 2961.93 1032.74Z" fill="url(#fill10)" fill-rule="evenodd"/><text fill="#000000" fill-opacity="0" font-family="Arial,Arial_MSFontService,sans-serif" font-size="42.7881" x="2961.93" y="1037.97">Map on </text><path d="M3015.22 1071.1 3009.67 1071.86C3007.96 1072.1 3006.67 1072.53 3005.81 1073.13 3004.94 1073.74 3004.5 1074.81 3004.5 1076.36 3004.5 1077.48 3004.9 1078.4 3005.71 1079.11 3006.51 1079.82 3007.57 1080.18 3008.91 1080.18 3010.73 1080.18 3012.24 1079.54 3013.43 1078.26 3014.62 1076.97 3015.22 1075.35 3015.22 1073.39ZM3118.4 1062.3C3116.66 1062.3 3115.19 1062.92 3113.97 1064.16 3112.76 1065.4 3112.01 1067.03 3111.73 1069.03L3124.15 1069.03C3124.13 1066.91 3123.62 1065.25 3122.61 1064.07 3121.6 1062.89 3120.2 1062.3 3118.4 1062.3ZM3073.44 1059.74 3077.12 1059.74 3077.12 1082.74 3073.44 1082.74ZM3118.47 1059.2C3121.48 1059.2 3123.8 1060.17 3125.45 1062.12 3127.1 1064.06 3127.92 1066.77 3127.92 1070.23L3127.92 1072.16 3111.68 1072.16C3111.74 1074.72 3112.43 1076.69 3113.75 1078.09 3115.07 1079.48 3116.88 1080.18 3119.19 1080.18 3121.78 1080.18 3124.16 1079.32 3126.33 1077.61L3126.33 1081.07C3124.31 1082.54 3121.63 1083.28 3118.31 1083.28 3115.06 1083.28 3112.51 1082.23 3110.65 1080.14 3108.79 1078.05 3107.86 1075.11 3107.86 1071.33 3107.86 1067.75 3108.88 1064.83 3110.91 1062.58 3112.94 1060.32 3115.46 1059.2 3118.47 1059.2ZM3095.76 1059.2C3098.27 1059.2 3100.2 1060.01 3101.53 1061.63 3102.86 1063.26 3103.53 1065.61 3103.53 1068.68L3103.53 1082.74 3099.85 1082.74 3099.85 1069.62C3099.85 1064.74 3098.06 1062.3 3094.5 1062.3 3092.66 1062.3 3091.13 1062.99 3089.93 1064.37 3088.72 1065.76 3088.12 1067.51 3088.12 1069.62L3088.12 1082.74 3084.44 1082.74 3084.44 1059.74 3088.12 1059.74 3088.12 1063.55 3088.21 1063.55C3089.95 1060.65 3092.46 1059.2 3095.76 1059.2ZM3036.81 1059.2C3038.84 1059.2 3040.62 1059.57 3042.16 1060.32L3042.16 1064.09C3040.45 1062.9 3038.63 1062.3 3036.68 1062.3 3034.33 1062.3 3032.4 1063.14 3030.9 1064.82 3029.39 1066.51 3028.64 1068.72 3028.64 1071.46 3028.64 1074.16 3029.35 1076.28 3030.76 1077.84 3032.18 1079.4 3034.07 1080.18 3036.45 1080.18 3038.46 1080.18 3040.35 1079.51 3042.11 1078.18L3042.11 1081.68C3040.35 1082.74 3038.25 1083.28 3035.83 1083.28 3032.55 1083.28 3029.9 1082.21 3027.89 1080.07 3025.87 1077.94 3024.86 1075.17 3024.86 1071.78 3024.86 1067.99 3025.95 1064.94 3028.12 1062.64 3030.29 1060.35 3033.19 1059.2 3036.81 1059.2ZM3010.79 1059.2C3016.2 1059.2 3018.9 1062.06 3018.9 1067.78L3018.9 1082.74 3015.22 1082.74 3015.22 1079.14 3015.13 1079.14C3013.53 1081.9 3011.17 1083.28 3008.05 1083.28 3005.76 1083.28 3003.97 1082.67 3002.67 1081.46 3001.38 1080.24 3000.73 1078.63 3000.73 1076.63 3000.73 1072.33 3003.26 1069.83 3008.32 1069.12L3015.22 1068.16C3015.22 1064.25 3013.64 1062.3 3010.48 1062.3 3007.71 1062.3 3005.21 1063.24 3002.98 1065.13L3002.98 1061.35C3005.24 1059.92 3007.84 1059.2 3010.79 1059.2ZM2961.93 1050.53 2966.92 1050.53 2976.8 1072.99C2977.56 1074.71 2978.06 1076 2978.28 1076.85L2978.42 1076.85C2979.06 1075.08 2979.58 1073.77 2979.97 1072.9L2990.05 1050.53 2994.77 1050.53 2994.77 1082.74 2991.02 1082.74 2991.02 1061.13C2991.02 1059.42 2991.12 1057.33 2991.33 1054.86L2991.24 1054.86C2990.88 1056.31 2990.56 1057.36 2990.28 1057.98L2979.27 1082.74 2977.43 1082.74 2966.45 1058.16C2966.13 1057.45 2965.81 1056.34 2965.48 1054.86L2965.39 1054.86C2965.51 1056.15 2965.57 1058.25 2965.57 1061.17L2965.57 1082.74 2961.93 1082.74ZM3075.32 1049.11C3076 1049.11 3076.57 1049.34 3077.04 1049.8 3077.51 1050.25 3077.75 1050.83 3077.75 1051.52 3077.75 1052.17 3077.51 1052.74 3077.04 1053.2 3076.57 1053.66 3076 1053.9 3075.32 1053.9 3074.66 1053.9 3074.1 1053.67 3073.64 1053.22 3073.18 1052.77 3072.94 1052.2 3072.94 1051.52 3072.94 1050.83 3073.18 1050.25 3073.64 1049.8 3074.1 1049.34 3074.66 1049.11 3075.32 1049.11ZM3047.44 1048.69 3051.12 1048.69 3051.12 1063.55 3051.21 1063.55C3052.98 1060.65 3055.49 1059.2 3058.76 1059.2 3063.94 1059.2 3066.53 1062.32 3066.53 1068.56L3066.53 1082.74 3062.85 1082.74 3062.85 1069.48C3062.85 1064.69 3061.06 1062.3 3057.5 1062.3 3055.7 1062.3 3054.19 1062.99 3052.96 1064.37 3051.73 1065.76 3051.12 1067.54 3051.12 1069.71L3051.12 1082.74 3047.44 1082.74Z" fill="url(#fill11)" fill-rule="evenodd"/><text fill="#000000" fill-opacity="0" font-family="Arial,Arial_MSFontService,sans-serif" font-size="34.5898" x="2961.93" y="1078.95">Machine </text><path d="M3022.32 1111.3C3019.95 1111.3 3018.08 1112.1 3016.7 1113.71 3015.33 1115.32 3014.64 1117.54 3014.64 1120.37 3014.64 1123.1 3015.33 1125.24 3016.73 1126.82 3018.12 1128.39 3019.98 1129.18 3022.32 1129.18 3024.7 1129.18 3026.53 1128.4 3027.81 1126.86 3029.09 1125.32 3029.73 1123.13 3029.73 1120.28 3029.73 1117.41 3029.09 1115.19 3027.81 1113.63 3026.53 1112.08 3024.7 1111.3 3022.32 1111.3ZM2995.32 1111.3C2992.95 1111.3 2991.08 1112.1 2989.7 1113.71 2988.33 1115.32 2987.64 1117.54 2987.64 1120.37 2987.64 1123.1 2988.33 1125.24 2989.73 1126.82 2991.12 1128.39 2992.98 1129.18 2995.32 1129.18 2997.7 1129.18 2999.53 1128.4 3000.81 1126.86 3002.09 1125.32 3002.73 1123.13 3002.73 1120.28 3002.73 1117.41 3002.09 1115.19 3000.81 1113.63 2999.53 1112.08 2997.7 1111.3 2995.32 1111.3ZM3022.59 1108.2C3026.02 1108.2 3028.7 1109.25 3030.62 1111.36 3032.54 1113.48 3033.51 1116.4 3033.51 1120.15 3033.51 1123.81 3032.47 1126.75 3030.39 1128.96 3028.32 1131.17 3025.54 1132.28 3022.05 1132.28 3018.65 1132.28 3015.94 1131.2 3013.91 1129.05 3011.88 1126.9 3010.86 1124.05 3010.86 1120.51 3010.86 1116.64 3011.92 1113.63 3014.03 1111.45 3016.14 1109.28 3019 1108.2 3022.59 1108.2ZM2995.59 1108.2C2999.02 1108.2 3001.7 1109.25 3003.62 1111.36 3005.54 1113.48 3006.51 1116.4 3006.51 1120.15 3006.51 1123.81 3005.47 1126.75 3003.39 1128.96 3001.32 1131.17 2998.54 1132.28 2995.05 1132.28 2991.65 1132.28 2988.94 1131.2 2986.91 1129.05 2984.88 1126.9 2983.86 1124.05 2983.86 1120.51 2983.86 1116.64 2984.92 1113.63 2987.03 1111.45 2989.14 1109.28 2992 1108.2 2995.59 1108.2ZM2958.63 1099.53 2980.98 1099.53 2980.98 1102.94 2971.68 1102.94 2971.68 1131.74 2967.91 1131.74 2967.91 1102.94 2958.63 1102.94ZM3039.44 1097.69 3043.12 1097.69 3043.12 1131.74 3039.44 1131.74Z" fill="url(#fill12)" fill-rule="evenodd"/><text fill="#000000" fill-opacity="0" font-family="Arial,Arial_MSFontService,sans-serif" font-size="34.5898" x="2958.63" y="1127.95">Tool</text><path d="M1261.71 884.44 1256.16 885.204C1254.46 885.444 1253.17 885.867 1252.3 886.473 1251.43 887.08 1251 888.154 1251 889.696 1251 890.819 1251.4 891.736 1252.2 892.448 1253 893.159 1254.07 893.515 1255.4 893.515 1257.23 893.515 1258.74 892.874 1259.93 891.594 1261.12 890.314 1261.71 888.693 1261.71 886.731ZM1190.82 875.636C1188.45 875.636 1186.58 876.441 1185.2 878.05 1183.82 879.66 1183.13 881.88 1183.13 884.71 1183.13 887.435 1183.83 889.584 1185.22 891.156 1186.61 892.728 1188.48 893.515 1190.82 893.515 1193.2 893.515 1195.03 892.743 1196.31 891.201 1197.59 889.659 1198.23 887.465 1198.23 884.62 1198.23 881.745 1197.59 879.529 1196.31 877.972 1195.03 876.414 1193.2 875.636 1190.82 875.636ZM1272.93 873.075 1276.62 873.075 1276.62 896.075 1272.93 896.075ZM1295.25 872.536C1297.77 872.536 1299.69 873.348 1301.03 874.973 1302.36 876.598 1303.02 878.945 1303.02 882.015L1303.02 896.075 1299.34 896.075 1299.34 882.958C1299.34 878.076 1297.56 875.636 1293.99 875.636 1292.15 875.636 1290.63 876.328 1289.42 877.713 1288.22 879.098 1287.62 880.847 1287.62 882.958L1287.62 896.075 1283.93 896.075 1283.93 873.075 1287.62 873.075 1287.62 876.893 1287.71 876.893C1289.44 873.989 1291.96 872.536 1295.25 872.536ZM1257.29 872.536C1262.69 872.536 1265.4 875.396 1265.4 881.116L1265.4 896.075 1261.71 896.075 1261.71 892.481 1261.62 892.481C1260.02 895.237 1257.66 896.614 1254.55 896.614 1252.26 896.614 1250.46 896.008 1249.17 894.795 1247.87 893.582 1247.23 891.972 1247.23 889.966 1247.23 885.668 1249.76 883.168 1254.82 882.464L1261.71 881.498C1261.71 877.59 1260.13 875.636 1256.97 875.636 1254.2 875.636 1251.7 876.579 1249.47 878.466L1249.47 874.692C1251.73 873.255 1254.34 872.536 1257.29 872.536ZM1219.25 872.536C1221.77 872.536 1223.69 873.348 1225.03 874.973 1226.36 876.598 1227.02 878.945 1227.02 882.015L1227.02 896.075 1223.34 896.075 1223.34 882.958C1223.34 878.076 1221.56 875.636 1217.99 875.636 1216.15 875.636 1214.63 876.328 1213.42 877.713 1212.22 879.098 1211.62 880.847 1211.62 882.958L1211.62 896.075 1207.93 896.075 1207.93 873.075 1211.62 873.075 1211.62 876.893 1211.71 876.893C1213.44 873.989 1215.96 872.536 1219.25 872.536ZM1191.08 872.536C1194.51 872.536 1197.19 873.592 1199.11 875.703 1201.04 877.814 1202 880.742 1202 884.485 1202 888.154 1200.96 891.093 1198.89 893.301 1196.82 895.51 1194.03 896.614 1190.55 896.614 1187.15 896.614 1184.43 895.54 1182.4 893.391 1180.37 891.242 1179.36 888.393 1179.36 884.845 1179.36 880.981 1180.42 877.964 1182.53 875.793 1184.64 873.622 1187.49 872.536 1191.08 872.536ZM1170.31 872.536C1172.33 872.536 1174.11 872.91 1175.66 873.659L1175.66 877.433C1173.95 876.235 1172.12 875.636 1170.17 875.636 1167.82 875.636 1165.9 876.478 1164.39 878.163 1162.89 879.847 1162.13 882.06 1162.13 884.8 1162.13 887.495 1162.84 889.621 1164.26 891.179 1165.67 892.736 1167.57 893.515 1169.95 893.515 1171.96 893.515 1173.84 892.848 1175.61 891.516L1175.61 895.019C1173.84 896.083 1171.75 896.614 1169.32 896.614 1166.04 896.614 1163.4 895.547 1161.38 893.414 1159.37 891.28 1158.36 888.513 1158.36 885.114 1158.36 881.326 1159.45 878.282 1161.62 875.984 1163.79 873.685 1166.69 872.536 1170.31 872.536ZM1238.81 866.269 1238.81 873.075 1244.6 873.075 1244.6 876.22 1238.81 876.22 1238.81 889.18C1238.81 890.722 1239.07 891.823 1239.59 892.481 1240.12 893.14 1240.99 893.47 1242.2 893.47 1243.13 893.47 1243.93 893.215 1244.6 892.706L1244.6 895.851C1243.73 896.33 1242.59 896.569 1241.16 896.569 1237.14 896.569 1235.12 894.323 1235.12 889.831L1235.12 876.22 1231.17 876.22 1231.17 873.075 1235.12 873.075 1235.12 867.46ZM1274.82 862.451C1275.49 862.451 1276.07 862.68 1276.54 863.136 1277.01 863.593 1277.24 864.166 1277.24 864.854 1277.24 865.513 1277.01 866.075 1276.54 866.539 1276.07 867.003 1275.49 867.235 1274.82 867.235 1274.16 867.235 1273.6 867.011 1273.13 866.561 1272.67 866.112 1272.44 865.543 1272.44 864.854 1272.44 864.166 1272.67 863.593 1273.13 863.136 1273.6 862.68 1274.16 862.451 1274.82 862.451Z" fill="url(#fill13)" fill-rule="evenodd"/><text fill="#000000" fill-opacity="0" font-family="Arial,Arial_MSFontService,sans-serif" font-size="34.1631" x="1158.36" y="892.344">contain</text><path d="M2023.09 884.44 2017.55 885.204C2015.84 885.443 2014.55 885.866 2013.68 886.473 2012.81 887.079 2012.38 888.154 2012.38 889.696 2012.38 890.819 2012.78 891.736 2013.58 892.447 2014.38 893.159 2015.45 893.514 2016.78 893.514 2018.61 893.514 2020.12 892.874 2021.31 891.594 2022.5 890.314 2023.09 888.693 2023.09 886.731ZM1952.2 875.635C1949.83 875.635 1947.96 876.44 1946.58 878.05 1945.2 879.66 1944.51 881.879 1944.51 884.71 1944.51 887.435 1945.21 889.584 1946.6 891.156 1948 892.728 1949.86 893.514 1952.2 893.514 1954.58 893.514 1956.41 892.743 1957.69 891.201 1958.97 889.658 1959.61 887.465 1959.61 884.62 1959.61 881.745 1958.97 879.529 1957.69 877.971 1956.41 876.414 1954.58 875.635 1952.2 875.635ZM2034.31 873.075 2038 873.075 2038 896.075 2034.31 896.075ZM2056.63 872.536C2059.15 872.536 2061.07 873.348 2062.41 874.973 2063.74 876.597 2064.4 878.945 2064.4 882.014L2064.4 896.075 2060.72 896.075 2060.72 882.958C2060.72 878.076 2058.94 875.635 2055.38 875.635 2053.53 875.635 2052.01 876.328 2050.8 877.713 2049.6 879.098 2049 880.846 2049 882.958L2049 896.075 2045.31 896.075 2045.31 873.075 2049 873.075 2049 876.893 2049.09 876.893C2050.82 873.988 2053.34 872.536 2056.63 872.536ZM2018.67 872.536C2024.07 872.536 2026.78 875.396 2026.78 881.116L2026.78 896.075 2023.09 896.075 2023.09 892.481 2023 892.481C2021.4 895.236 2019.04 896.614 2015.93 896.614 2013.64 896.614 2011.84 896.007 2010.55 894.794 2009.25 893.582 2008.61 891.972 2008.61 889.965 2008.61 885.668 2011.14 883.167 2016.2 882.463L2023.09 881.498C2023.09 877.589 2021.51 875.635 2018.35 875.635 2015.58 875.635 2013.08 876.579 2010.85 878.465L2010.85 874.692C2013.11 873.254 2015.72 872.536 2018.67 872.536ZM1980.63 872.536C1983.15 872.536 1985.07 873.348 1986.41 874.973 1987.74 876.597 1988.4 878.945 1988.4 882.014L1988.4 896.075 1984.72 896.075 1984.72 882.958C1984.72 878.076 1982.94 875.635 1979.38 875.635 1977.53 875.635 1976.01 876.328 1974.8 877.713 1973.6 879.098 1973 880.846 1973 882.958L1973 896.075 1969.31 896.075 1969.31 873.075 1973 873.075 1973 876.893 1973.09 876.893C1974.82 873.988 1977.34 872.536 1980.63 872.536ZM1952.47 872.536C1955.89 872.536 1958.57 873.591 1960.5 875.703 1962.42 877.814 1963.38 880.741 1963.38 884.485 1963.38 888.154 1962.34 891.092 1960.27 893.301 1958.2 895.51 1955.42 896.614 1951.93 896.614 1948.53 896.614 1945.81 895.539 1943.78 893.391 1941.76 891.242 1940.74 888.393 1940.74 884.844 1940.74 880.981 1941.8 877.964 1943.91 875.793 1946.02 873.621 1948.87 872.536 1952.47 872.536ZM1931.69 872.536C1933.71 872.536 1935.49 872.91 1937.04 873.659L1937.04 877.432C1935.33 876.234 1933.5 875.635 1931.56 875.635 1929.2 875.635 1927.28 876.478 1925.77 878.162 1924.27 879.847 1923.51 882.059 1923.51 884.799 1923.51 887.495 1924.22 889.621 1925.64 891.178 1927.05 892.736 1928.95 893.514 1931.33 893.514 1933.34 893.514 1935.22 892.848 1936.99 891.515L1936.99 895.019C1935.22 896.082 1933.13 896.614 1930.7 896.614 1927.42 896.614 1924.78 895.547 1922.76 893.413 1920.75 891.279 1919.74 888.513 1919.74 885.114 1919.74 881.325 1920.83 878.282 1923 875.983 1925.17 873.685 1928.07 872.536 1931.69 872.536ZM2000.19 866.269 2000.19 873.075 2005.98 873.075 2005.98 876.219 2000.19 876.219 2000.19 889.179C2000.19 890.722 2000.45 891.822 2000.97 892.481 2001.5 893.14 2002.37 893.469 2003.58 893.469 2004.51 893.469 2005.31 893.215 2005.98 892.706L2005.98 895.85C2005.11 896.329 2003.97 896.569 2002.55 896.569 1998.52 896.569 1996.5 894.323 1996.5 889.831L1996.5 876.219 1992.55 876.219 1992.55 873.075 1996.5 873.075 1996.5 867.46ZM2036.2 862.451C2036.87 862.451 2037.45 862.679 2037.92 863.136 2038.39 863.593 2038.63 864.165 2038.63 864.854 2038.63 865.513 2038.39 866.074 2037.92 866.539 2037.45 867.003 2036.87 867.235 2036.2 867.235 2035.54 867.235 2034.98 867.01 2034.52 866.561 2034.05 866.112 2033.82 865.543 2033.82 864.854 2033.82 864.165 2034.05 863.593 2034.52 863.136 2034.98 862.679 2035.54 862.451 2036.2 862.451Z" fill="url(#fill14)" fill-rule="evenodd"/><text fill="#000000" fill-opacity="0" font-family="Arial,Arial_MSFontService,sans-serif" font-size="34.1631" x="1919.74" y="892.343">contain</text><path d="M2761.44 884.44 2755.89 885.204C2754.18 885.443 2752.9 885.866 2752.03 886.473 2751.16 887.079 2750.72 888.154 2750.72 889.696 2750.72 890.819 2751.12 891.736 2751.93 892.447 2752.73 893.159 2753.79 893.514 2755.13 893.514 2756.95 893.514 2758.46 892.874 2759.65 891.594 2760.84 890.314 2761.44 888.693 2761.44 886.731ZM2827.09 875.635C2824.85 875.635 2823.08 876.459 2821.79 878.106 2820.5 879.753 2819.86 882.029 2819.86 884.934 2819.86 887.585 2820.48 889.677 2821.71 891.212 2822.95 892.747 2824.61 893.514 2826.69 893.514 2828.74 893.514 2830.4 892.773 2831.68 891.291 2832.96 889.808 2833.6 887.936 2833.6 885.675L2833.6 882.284C2833.6 880.427 2832.99 878.855 2831.76 877.567 2830.54 876.279 2828.98 875.635 2827.09 875.635ZM2802.62 875.635C2800.88 875.635 2799.41 876.257 2798.19 877.5 2796.98 878.742 2796.23 880.367 2795.95 882.374L2808.37 882.374C2808.35 880.247 2807.84 878.593 2806.83 877.41 2805.82 876.227 2804.42 875.635 2802.62 875.635ZM2676.66 873.075 2680.34 873.075 2680.34 896.075 2676.66 896.075ZM2802.69 872.536C2805.7 872.536 2808.03 873.509 2809.67 875.456 2811.32 877.402 2812.14 880.105 2812.14 883.564L2812.14 885.496 2795.9 885.496C2795.96 888.056 2796.65 890.033 2797.97 891.425 2799.29 892.818 2801.1 893.514 2803.41 893.514 2806 893.514 2808.38 892.661 2810.55 890.954L2810.55 894.413C2808.53 895.88 2805.85 896.614 2802.53 896.614 2799.28 896.614 2796.73 895.569 2794.87 893.481 2793.01 891.392 2792.09 888.453 2792.09 884.665 2792.09 881.086 2793.1 878.17 2795.13 875.916 2797.16 873.663 2799.68 872.536 2802.69 872.536ZM2757.01 872.536C2762.42 872.536 2765.12 875.396 2765.12 881.116L2765.12 896.075 2761.44 896.075 2761.44 892.481 2761.35 892.481C2759.75 895.236 2757.39 896.614 2754.27 896.614 2751.98 896.614 2750.19 896.007 2748.89 894.794 2747.6 893.582 2746.95 891.972 2746.95 889.965 2746.95 885.668 2749.48 883.167 2754.54 882.463L2761.44 881.498C2761.44 877.589 2759.86 875.635 2756.7 875.635 2753.93 875.635 2751.43 876.579 2749.2 878.465L2749.2 874.692C2751.46 873.254 2754.06 872.536 2757.01 872.536ZM2721.11 872.536C2723.11 872.536 2724.89 872.88 2726.46 873.569L2726.46 877.297C2724.77 876.189 2722.82 875.635 2720.62 875.635 2719.93 875.635 2719.31 875.714 2718.76 875.871 2718.2 876.028 2717.73 876.249 2717.33 876.534 2716.93 876.818 2716.63 877.159 2716.41 877.556 2716.19 877.953 2716.08 878.391 2716.08 878.87 2716.08 879.469 2716.19 879.97 2716.41 880.375 2716.63 880.779 2716.94 881.138 2717.36 881.453 2717.78 881.767 2718.29 882.052 2718.89 882.306 2719.49 882.561 2720.17 882.838 2720.94 883.137 2721.95 883.527 2722.87 883.927 2723.68 884.339 2724.48 884.751 2725.17 885.215 2725.74 885.732 2726.31 886.248 2726.75 886.843 2727.06 887.517 2727.36 888.191 2727.52 888.992 2727.52 889.92 2727.52 891.059 2727.27 892.047 2726.76 892.885 2726.26 893.724 2725.59 894.42 2724.75 894.974 2723.91 895.528 2722.95 895.94 2721.86 896.21 2720.76 896.479 2719.62 896.614 2718.42 896.614 2716.05 896.614 2714 896.157 2712.27 895.244L2712.27 891.291C2714.27 892.773 2716.48 893.514 2718.89 893.514 2722.13 893.514 2723.74 892.436 2723.74 890.28 2723.74 889.666 2723.6 889.146 2723.33 888.719 2723.05 888.292 2722.68 887.914 2722.2 887.585 2721.73 887.255 2721.18 886.959 2720.54 886.697 2719.91 886.435 2719.22 886.162 2718.49 885.878 2717.47 885.473 2716.57 885.065 2715.8 884.653 2715.03 884.242 2714.39 883.777 2713.87 883.261 2713.35 882.744 2712.97 882.156 2712.7 881.498 2712.44 880.839 2712.31 880.068 2712.31 879.184 2712.31 878.106 2712.56 877.151 2713.05 876.32 2713.55 875.489 2714.2 874.793 2715.03 874.232 2715.85 873.67 2716.79 873.247 2717.85 872.962 2718.9 872.678 2719.99 872.536 2721.11 872.536ZM2698.98 872.536C2701.49 872.536 2703.42 873.348 2704.75 874.973 2706.08 876.597 2706.75 878.945 2706.75 882.014L2706.75 896.075 2703.07 896.075 2703.07 882.958C2703.07 878.076 2701.28 875.635 2697.72 875.635 2695.88 875.635 2694.35 876.328 2693.15 877.713 2691.94 879.098 2691.34 880.846 2691.34 882.958L2691.34 896.075 2687.66 896.075 2687.66 873.075 2691.34 873.075 2691.34 876.893 2691.43 876.893C2693.17 873.988 2695.68 872.536 2698.98 872.536ZM2737.53 866.269 2737.53 873.075 2743.33 873.075 2743.33 876.219 2737.53 876.219 2737.53 889.179C2737.53 890.722 2737.79 891.822 2738.32 892.481 2738.84 893.14 2739.71 893.469 2740.92 893.469 2741.85 893.469 2742.65 893.215 2743.33 892.706L2743.33 895.85C2742.46 896.329 2741.31 896.569 2739.89 896.569 2735.86 896.569 2733.85 894.323 2733.85 889.831L2733.85 876.219 2729.9 876.219 2729.9 873.075 2733.85 873.075 2733.85 867.46ZM2678.54 862.451C2679.22 862.451 2679.79 862.679 2680.26 863.136 2680.73 863.593 2680.97 864.165 2680.97 864.854 2680.97 865.513 2680.73 866.074 2680.26 866.539 2679.79 867.003 2679.22 867.235 2678.54 867.235 2677.89 867.235 2677.32 867.01 2676.86 866.561 2676.4 866.112 2676.16 865.543 2676.16 864.854 2676.16 864.165 2676.4 863.593 2676.86 863.136 2677.32 862.679 2677.89 862.451 2678.54 862.451ZM2833.6 862.024 2837.29 862.024 2837.29 896.075 2833.6 896.075 2833.6 892.167 2833.52 892.167C2831.81 895.131 2829.17 896.614 2825.61 896.614 2822.72 896.614 2820.41 895.584 2818.68 893.525 2816.95 891.467 2816.09 888.663 2816.09 885.114 2816.09 881.31 2817.04 878.263 2818.96 875.972 2820.88 873.681 2823.43 872.536 2826.62 872.536 2829.78 872.536 2832.08 873.779 2833.52 876.264L2833.6 876.264ZM2782.66 862.024 2786.34 862.024 2786.34 896.075 2782.66 896.075ZM2771.66 862.024 2775.34 862.024 2775.34 896.075 2771.66 896.075Z" fill="url(#fill15)" fill-rule="evenodd"/><text fill="#000000" fill-opacity="0" font-family="Arial,Arial_MSFontService,sans-serif" font-size="34.5898" x="2676.16" y="892.29">installed</text></g></svg>