<svg width="245" height="124" xmlns="http://www.w3.org/2000/svg" xmlns:xlink="http://www.w3.org/1999/xlink" overflow="hidden"><defs><clipPath id="clip0"><rect x="740" y="232" width="245" height="124"/></clipPath><clipPath id="clip1"><rect x="741" y="292" width="63" height="63"/></clipPath><clipPath id="clip2"><rect x="741" y="292" width="63" height="63"/></clipPath><clipPath id="clip3"><rect x="741" y="292" width="63" height="63"/></clipPath><linearGradient x1="772.955" y1="357.835" x2="771.975" y2="263.65" gradientUnits="userSpaceOnUse" spreadMethod="pad" id="fill4"><stop offset="0" stop-color="#198AB3"/><stop offset="0" stop-color="#198AB3"/><stop offset="0.09" stop-color="#22A5CB"/><stop offset="0.19" stop-color="#29BADE"/><stop offset="0.29" stop-color="#2EC9EB"/><stop offset="0.42" stop-color="#31D1F3"/><stop offset="0.62" stop-color="#32D4F5"/><stop offset="1" stop-color="#32D4F5"/></linearGradient><clipPath id="clip5"><rect x="820" y="283" width="41" height="40"/></clipPath><clipPath id="clip6"><rect x="820" y="283" width="41" height="40"/></clipPath><clipPath id="clip7"><rect x="820" y="283" width="41" height="40"/></clipPath><linearGradient x1="17.6444" y1="17.1111" x2="17.6444" y2="8.33333" gradientUnits="userSpaceOnUse" spreadMethod="pad" id="fill8"><stop offset="0" stop-color="#5E9624"/><stop offset="1" stop-color="#76BC2D"/></linearGradient><linearGradient x1="17.6444" y1="31.6889" x2="17.6444" y2="22.9111" gradientUnits="userSpaceOnUse" spreadMethod="pad" id="fill9"><stop offset="0" stop-color="#5E9624"/><stop offset="1" stop-color="#76BC2D"/></linearGradient><clipPath id="clip10"><rect x="888" y="271" width="63" height="63"/></clipPath><clipPath id="clip11"><rect x="888" y="271" width="63" height="63"/></clipPath><clipPath id="clip12"><rect x="888" y="271" width="63" height="63"/></clipPath><linearGradient x1="919.938" y1="330" x2="919.938" y2="274.144" gradientUnits="userSpaceOnUse" spreadMethod="pad" id="fill13"><stop offset="0" stop-color="#FEA11B"/><stop offset="0.284" stop-color="#FEA51A"/><stop offset="0.547" stop-color="#FEB018"/><stop offset="0.8" stop-color="#FFC314"/><stop offset="1" stop-color="#FFD70F"/></linearGradient></defs><g clip-path="url(#clip0)" transform="translate(-740 -232)"><g clip-path="url(#clip1)"><g clip-path="url(#clip2)"><g clip-path="url(#clip3)"><path d="M787.795 321.54C787.795 325.348 784.708 328.435 780.9 328.435 777.092 328.435 774.005 325.348 774.005 321.54 774.005 317.732 777.092 314.645 780.9 314.645 784.708 314.645 787.795 317.732 787.795 321.54Z" fill="#FFFFFF"/><path d="M797.875 342.05C797.875 345.046 795.446 347.475 792.45 347.475 789.454 347.475 787.025 345.046 787.025 342.05 787.025 339.054 789.454 336.625 792.45 336.625 795.446 336.625 797.875 339.054 797.875 342.05Z" fill="#FFFFFF"/><path d="M775.65 338.34C775.65 340.911 773.566 342.995 770.995 342.995 768.424 342.995 766.34 340.911 766.34 338.34 766.34 335.769 768.424 333.685 770.995 333.685 773.566 333.685 775.65 335.769 775.65 338.34Z" fill="#FFFFFF"/><path d="M773.41 302.885C773.41 306.074 770.824 308.66 767.635 308.66 764.446 308.66 761.86 306.074 761.86 302.885 761.86 299.696 764.446 297.11 767.635 297.11 770.824 297.11 773.41 299.696 773.41 302.885Z" fill="#FFFFFF"/><path d="M756.82 324.165C756.82 326.736 754.736 328.82 752.165 328.82 749.594 328.82 747.51 326.736 747.51 324.165 747.51 321.594 749.594 319.51 752.165 319.51 754.736 319.51 756.82 321.594 756.82 324.165Z" fill="#FFFFFF"/><path d="M793.71 340.965 782.055 320.56 780.9 321.225 781.845 320.525 768.65 301.765 766.235 303.515 777.925 320.14 752.025 322.275 752.27 325.285 777.925 323.15 769.42 337.29 771.975 338.83 780.725 324.27 791.12 342.435 793.71 340.965Z" fill="#949494"/><path d="M802.355 296.305 802.355 296.305C802.355 294.894 801.211 293.75 799.8 293.75L786.5 293.75C785.804 293.75 785.24 294.314 785.24 295.01L785.24 299.945C785.24 300.641 785.804 301.205 786.5 301.205L794.725 301.205 794.725 309.255C794.743 309.962 795.313 310.532 796.02 310.55L800.92 310.55C801.627 310.532 802.197 309.962 802.215 309.255L802.215 296.305Z" fill="#949494"/><path d="M758.5 345.795 750.135 345.795 750.135 337.745C750.117 337.038 749.547 336.468 748.84 336.45L743.94 336.45C743.233 336.468 742.663 337.038 742.645 337.745L742.645 350.695 742.645 350.695C742.664 352.092 743.802 353.215 745.2 353.215L758.5 353.215C759.196 353.215 759.76 352.651 759.76 351.955L759.76 347.055C759.76 346.359 759.196 345.795 758.5 345.795Z" fill="#949494"/><path d="M780.9 314.715C784.766 314.716 787.899 317.851 787.898 321.717 787.897 325.583 784.762 328.716 780.896 328.715 777.03 328.714 773.897 325.579 773.898 321.713 773.898 321.655 773.899 321.598 773.9 321.54 773.995 317.743 777.101 314.714 780.9 314.715ZM762 302.885C761.982 306.094 764.568 308.71 767.777 308.728 770.985 308.747 773.601 306.16 773.62 302.952 773.638 299.743 771.052 297.127 767.843 297.108 767.785 297.108 767.728 297.109 767.67 297.11 764.522 297.167 761.999 299.736 762 302.885ZM747.51 324.13C747.51 326.701 749.594 328.785 752.165 328.785 754.736 328.785 756.82 326.701 756.82 324.13 756.82 321.559 754.736 319.475 752.165 319.475 749.594 319.475 747.51 321.559 747.51 324.13ZM766.34 338.305C766.321 340.895 768.405 343.011 770.995 343.03 773.585 343.049 775.7 340.965 775.72 338.375 775.739 335.785 773.655 333.669 771.065 333.65 771.053 333.65 771.042 333.65 771.03 333.65 768.459 333.631 766.359 335.699 766.34 338.27 766.34 338.282 766.34 338.293 766.34 338.305ZM787.06 342.05C787.041 345.046 789.454 347.491 792.45 347.51 795.446 347.529 797.89 345.116 797.91 342.12 797.929 339.124 795.516 336.679 792.52 336.66 792.508 336.66 792.497 336.66 792.485 336.66 789.528 336.621 787.099 338.987 787.06 341.944 787.06 341.98 787.06 342.015 787.06 342.05Z" fill="url(#fill4)"/></g></g></g><g clip-path="url(#clip5)"><g clip-path="url(#clip6)"><g clip-path="url(#clip7)"><path d="M2.35556 3.15556 5.22222 3.15556 5.22222 3.15556 5.22222 11.1111C5.22222 11.467 4.93369 11.7556 4.57778 11.7556L1.71111 11.7556C1.35519 11.7556 1.06667 11.467 1.06667 11.1111L1.06667 4.44444C1.05428 3.74499 1.61126 3.16794 2.31071 3.15556 2.32566 3.15529 2.34061 3.15529 2.35556 3.15556Z" fill="#A3A3A3" transform="matrix(1.025 0 0 1 820 283)"/><path d="M2.35556 3.15556 5.22222 3.15556 5.22222 3.15556 5.22222 11.1111C5.22222 11.467 4.93369 11.7556 4.57778 11.7556L1.71111 11.7556C1.35519 11.7556 1.06667 11.467 1.06667 11.1111L1.06667 4.44444C1.05428 3.74499 1.61126 3.16794 2.31071 3.15556 2.32566 3.15529 2.34061 3.15529 2.35556 3.15556Z" fill="#A3A3A3" fill-opacity="0.5" transform="matrix(1.025 0 0 1 820 283)"/><path d="M34.7778 3.15556 37.6444 3.15556C38.344 3.15556 38.9111 3.72266 38.9111 4.42222L38.9111 11.1111C38.9111 11.467 38.6226 11.7556 38.2667 11.7556L35.4222 11.7556C35.0663 11.7556 34.7778 11.467 34.7778 11.1111L34.7778 3.15556 34.7778 3.15556Z" fill="#A3A3A3" transform="matrix(1.025 0 0 1 820 283)"/><path d="M34.7778 3.15556 37.6444 3.15556C38.344 3.15556 38.9111 3.72266 38.9111 4.42222L38.9111 11.1111C38.9111 11.467 38.6226 11.7556 38.2667 11.7556L35.4222 11.7556C35.0663 11.7556 34.7778 11.467 34.7778 11.1111L34.7778 3.15556 34.7778 3.15556Z" fill="#A3A3A3" fill-opacity="0.5" transform="matrix(1.025 0 0 1 820 283)"/><path d="M19.2444-13.7556 22.0222-13.7556 22.0222-13.7556 22.0222 24.0222 22.0222 24.0222 19.2444 24.0222C18.5449 24.0222 17.9778 23.4551 17.9778 22.7556L17.9778-12.4889C17.9778-13.1884 18.5449-13.7556 19.2444-13.7556Z" fill="#949494" transform="matrix(6.27631e-17 1 -1.025 6.12323e-17 845.784 268.156)"/><path d="M1.71111 28.2 4.57778 28.2C4.93369 28.2 5.22222 28.4885 5.22222 28.8444L5.22222 36.8667 5.22222 36.8667 2.35556 36.8667C1.65611 36.8794 1.0788 36.3227 1.06609 35.6232 1.06568 35.6007 1.06587 35.5781 1.06667 35.5556L1.06667 28.8889C1.04212 28.5338 1.31006 28.2261 1.66513 28.2015 1.68043 28.2005 1.69577 28.2 1.71111 28.2Z" fill="#A3A3A3" transform="matrix(1.025 0 0 1 820 283)"/><path d="M1.71111 28.2 4.57778 28.2C4.93369 28.2 5.22222 28.4885 5.22222 28.8444L5.22222 36.8667 5.22222 36.8667 2.35556 36.8667C1.65611 36.8794 1.0788 36.3227 1.06609 35.6232 1.06568 35.6007 1.06587 35.5781 1.06667 35.5556L1.06667 28.8889C1.04212 28.5338 1.31006 28.2261 1.66513 28.2015 1.68043 28.2005 1.69577 28.2 1.71111 28.2Z" fill="#A3A3A3" fill-opacity="0.5" transform="matrix(1.025 0 0 1 820 283)"/><path d="M35.4222 28.2 38.2889 28.2C38.6448 28.2 38.9333 28.4885 38.9333 28.8444L38.9333 35.5111C38.9333 36.2107 38.3662 36.7778 37.6667 36.7778L34.7778 36.7778 34.7778 36.7778 34.7778 28.8889C34.7532 28.5338 35.0212 28.2261 35.3762 28.2015 35.3915 28.2005 35.4069 28.2 35.4222 28.2Z" fill="#A3A3A3" transform="matrix(1.025 0 0 1 820 283)"/><path d="M35.4222 28.2 38.2889 28.2C38.6448 28.2 38.9333 28.4885 38.9333 28.8444L38.9333 35.5111C38.9333 36.2107 38.3662 36.7778 37.6667 36.7778L34.7778 36.7778 34.7778 36.7778 34.7778 28.8889C34.7532 28.5338 35.0212 28.2261 35.3762 28.2015 35.3915 28.2005 35.4069 28.2 35.4222 28.2Z" fill="#A3A3A3" fill-opacity="0.5" transform="matrix(1.025 0 0 1 820 283)"/><path d="M19.2444 15.9111 22.0222 15.9111 22.0222 15.9111 22.0222 53.6889 22.0222 53.6889 19.2444 53.6889C18.5449 53.6889 17.9778 53.1218 17.9778 52.4222L17.9778 17.1778C17.9778 16.4782 18.5449 15.9111 19.2444 15.9111Z" fill="#949494" transform="matrix(6.27631e-17 -1 1.025 6.12323e-17 804.784 337.844)"/><path d="M33.1333 19.6444 29.0889 15.5556C29.0214 15.4681 28.8958 15.4519 28.8084 15.5193 28.7498 15.5645 28.721 15.6382 28.7333 15.7111L28.7333 18.2222C28.7464 18.3319 28.668 18.4314 28.5584 18.4444 28.5427 18.4463 28.5268 18.4463 28.5111 18.4444L16.8667 18.4444C16.4261 17.8715 15.745 17.535 15.0222 17.5333 13.6783 17.4048 12.4847 18.39 12.3561 19.7339 12.2275 21.0778 13.2127 22.2714 14.5566 22.4 14.7115 22.4148 14.8674 22.4148 15.0222 22.4 15.7542 22.3899 16.4416 22.0462 16.8889 21.4667L28.5111 21.4667C28.6209 21.4544 28.7198 21.5334 28.7321 21.6432 28.733 21.651 28.7334 21.6588 28.7333 21.6667L28.7333 24.1333C28.729 24.2437 28.815 24.3367 28.9254 24.341 28.9886 24.3435 29.0492 24.3159 29.0889 24.2667L33.1333 20.2444C33.2887 20.0746 33.2887 19.8143 33.1333 19.6444Z" fill="#5EA0EF" transform="matrix(1.025 0 0 1 820 283)"/><path d="M25.6667 12.4222 21.6222 8.4C21.5548 8.31254 21.4292 8.29632 21.3417 8.36378 21.2832 8.40893 21.2543 8.48268 21.2667 8.55556L21.2667 11.1111C21.2789 11.2209 21.1999 11.3198 21.0901 11.3321 21.0823 11.333 21.0745 11.3334 21.0667 11.3333L13.7778 11.3333C13.3281 10.7595 12.6401 10.4237 11.9111 10.4222 10.5614 10.3949 9.44504 11.467 9.41775 12.8168 9.39046 14.1665 10.4625 15.2828 11.8123 15.3101 12.5889 15.3258 13.3267 14.9715 13.8 14.3556L21.0667 14.3556C21.1771 14.3556 21.2667 14.4451 21.2667 14.5556L21.2667 16.9111C21.2624 17.0215 21.3483 17.1145 21.4587 17.1188 21.5219 17.1212 21.5825 17.0937 21.6222 17.0444L25.6667 13.0222C25.822 12.8524 25.822 12.592 25.6667 12.4222Z" fill="url(#fill8)" transform="matrix(1.025 0 0 1 820 283)"/><path d="M25.6667 27 21.6222 22.9778C21.5548 22.8903 21.4292 22.8741 21.3417 22.9416 21.2832 22.9867 21.2543 23.0605 21.2667 23.1333L21.2667 25.5778C21.2672 25.6923 21.1806 25.7885 21.0667 25.8L13.7778 25.8C13.3281 25.2262 12.6401 24.8904 11.9111 24.8889 10.5611 24.8907 9.46813 25.9866 9.46994 27.3366 9.47175 28.6866 10.5676 29.7796 11.9177 29.7778 12.6462 29.7768 13.3364 29.4509 13.8 28.8889L21.0667 28.8889C21.1771 28.8889 21.2667 28.9784 21.2667 29.0889L21.2667 31.5556C21.2624 31.6659 21.3483 31.7589 21.4587 31.7632 21.5219 31.7657 21.5825 31.7381 21.6222 31.6889L25.6667 27.6667C25.8508 27.5043 25.8684 27.2235 25.706 27.0394 25.6937 27.0254 25.6806 27.0123 25.6667 27Z" fill="url(#fill9)" transform="matrix(1.025 0 0 1 820 283)"/></g></g></g><g clip-path="url(#clip10)"><g clip-path="url(#clip11)"><g clip-path="url(#clip12)"><path d="M907.391 316.868 905.34 318.925C904.976 319.29 904.384 319.291 904.019 318.927L888.782 303.733C888.052 303.005 888.05 301.824 888.778 301.094L890.839 299.027 890.839 299.027 907.4 315.541C907.765 315.906 907.766 316.497 907.401 316.863Z" fill="#50E6FF"/><path d="M905.022 286.067 907.086 288.126C907.452 288.49 907.453 289.082 907.088 289.447L890.819 305.762 890.819 305.762 888.752 303.701C888.023 302.974 888.021 301.793 888.748 301.063L903.705 286.064C904.07 285.703 904.658 285.705 905.022 286.067Z" fill="#1490DF"/><path d="M948.164 299.042 950.222 301.106C950.95 301.836 950.948 303.017 950.219 303.744L934.982 318.938C934.616 319.303 934.024 319.302 933.66 318.937L931.611 316.882C931.247 316.517 931.248 315.925 931.613 315.56L948.171 299.049 948.171 299.049Z" fill="#50E6FF"/><path d="M950.237 303.692 948.172 305.751 948.172 305.751 931.903 289.436C931.539 289.07 931.54 288.479 931.905 288.114L933.97 286.056C934.335 285.691 934.927 285.692 935.291 286.058L950.248 301.057C950.976 301.786 950.974 302.967 950.244 303.695Z" fill="#1490DF"/><path d="M917.607 305.65 905.045 305.65C904.678 305.664 904.368 305.383 904.345 305.017 904.345 304.925 904.367 304.835 904.408 304.754L919.469 274.955C919.599 274.719 919.85 274.576 920.12 274.584L934.977 274.584C935.344 274.57 935.654 274.851 935.677 275.217 935.676 275.344 935.633 275.467 935.555 275.568L917.869 298.881 935.117 298.881C935.484 298.867 935.794 299.148 935.817 299.514 935.814 299.675 935.749 299.828 935.635 299.941L906.974 329.758C906.704 329.919 904.789 331.508 905.727 329.096L905.727 329.096Z" fill="url(#fill13)"/></g></g></g><path d="M0-1 9.41366-1 9.41366 20.9419 8.41366 19.9419 10.1606 19.9419 10.1606 21.9419 7.41366 21.9419 7.41366 0 8.41366 1 0 1ZM8.8273 16.9419 16.8273 20.9419 8.8273 24.9419Z" fill="#4472C4" transform="matrix(1 0 0 -1 804 323.942)"/><path d="M3.84066e-06-1 20.669-0.999921 20.669 1.00008-3.84066e-06 1ZM19.3357-3.99993 27.3356 0.000104987 19.3356 4.00007Z" fill="#4472C4" transform="matrix(1 0 0 -1 861 303)"/><text font-family="Yu Gothic,Yu Gothic_MSFontService,sans-serif" font-weight="700" font-size="13" transform="translate(862.469 250)">NoticeTelemetry<tspan font-weight="400" font-size="13" x="0" y="16">Create</tspan><tspan font-weight="400" font-size="13" x="45" y="16">telemetry</tspan><tspan font-weight="400" font-size="13" x="0" y="32">to</tspan><tspan font-weight="400" font-size="13" x="16" y="32">AD</tspan><tspan font-weight="400" font-size="13" x="34.6667" y="32">T</tspan></text></g></svg>