<svg width="990" height="496" xmlns="http://www.w3.org/2000/svg" xmlns:xlink="http://www.w3.org/1999/xlink" overflow="hidden"><defs><clipPath id="clip0"><rect x="128" y="13" width="990" height="496"/></clipPath><clipPath id="clip1"><rect x="128" y="14" width="989" height="494"/></clipPath><clipPath id="clip2"><rect x="128" y="14" width="989" height="494"/></clipPath><clipPath id="clip3"><rect x="128" y="14" width="1024" height="692"/></clipPath><clipPath id="clip4"><rect x="128" y="14" width="1024" height="692"/></clipPath></defs><g clip-path="url(#clip0)" transform="translate(-128 -13)"><g clip-path="url(#clip1)"><g clip-path="url(#clip2)"><g clip-path="url(#clip3)"><g clip-path="url(#clip4)"><path d="M77.3799 222.155 239.129 222.155 239.129 324.995 77.3799 324.995Z" stroke="#000000" stroke-width="1.33126" stroke-miterlimit="8" fill="none" transform="matrix(1.00181 0 0 1 52.981 -66.8744)"/><text font-family="Yu Gothic,Yu Gothic_MSFontService,sans-serif" font-weight="400" font-size="13" transform="matrix(1.00025 0 0 0.998449 181.119 172)">Customer<tspan font-size="13" x="-41.9133" y="16.0249">* </tspan><tspan font-size="13" x="-31.9133" y="16.0249">Customer Id</tspan><tspan font-size="13" x="-34.2467" y="32.0497">Name</tspan><tspan font-size="13" x="-34.2467" y="48.0746">Address</tspan><tspan font-size="13" x="-34.2467" y="64.0994">Tel No</tspan></text><path d="M341.969 222.155 503.718 222.155 503.718 324.995 341.969 324.995Z" stroke="#000000" stroke-width="1.33126" stroke-miterlimit="8" fill="none" transform="matrix(1.00181 0 0 1 52.981 -66.8744)"/><text font-family="Yu Gothic,Yu Gothic_MSFontService,sans-serif" font-weight="400" font-size="13" transform="matrix(1.00025 0 0 0.998449 458.62 172)">Order<tspan font-size="13" x="-54.4133" y="16.0249">* </tspan><tspan font-size="13" x="-44.4133" y="16.0249">Order Id</tspan><tspan font-size="13" x="-46.7467" y="32.0497">Status</tspan></text><path d="M585.59 213.169 748.338 213.169 748.338 333.981 585.59 333.981Z" stroke="#000000" stroke-width="1.33126" stroke-miterlimit="8" fill="none" transform="matrix(1.00181 0 0 1 52.981 -66.8744)"/><text font-family="Yu Gothic,Yu Gothic_MSFontService,sans-serif" font-weight="400" font-size="13" transform="matrix(1.00025 0 0 0.998449 696.713 163)">Product<tspan font-size="13" x="-47.7466" y="16.0249">* </tspan><tspan font-size="13" x="-37.7466" y="16.0249">Product Id</tspan><tspan font-size="13" x="-40.08" y="32.0497">現在温度</tspan><tspan font-size="13" x="-40.08" y="48.0746">許容最高温度</tspan><tspan font-size="13" x="-40.08" y="64.0994">許容最低温度</tspan><tspan font-size="13" x="-40.08" y="80.1243">位置</tspan><tspan font-size="13" x="-40.08" y="96.1491">Statu</tspan><tspan font-size="13" x="-7.24664" y="96.1491">s</tspan></text><path d="M463.78 82.3721 626.527 82.3721 626.527 185.212 463.78 185.212Z" stroke="#000000" stroke-width="1.33126" stroke-miterlimit="8" fill="none" transform="matrix(1.00181 0 0 1 52.981 -66.8744)"/><text font-family="Yu Gothic,Yu Gothic_MSFontService,sans-serif" font-weight="400" font-size="13" transform="matrix(1.00025 0 0 0.998449 575.703 32)">Factory<tspan font-size="13" x="-48.7466" y="16.0249">* </tspan><tspan font-size="13" x="-38.7466" y="16.0249">Factor</tspan><tspan font-size="13" x="0.919994" y="16.0249">y</tspan><tspan font-size="13" x="11.2534" y="16.0249">Id</tspan></text><path d="M341.969 441.814 503.718 441.814 503.718 544.654 341.969 544.654Z" stroke="#000000" stroke-width="1.33126" stroke-miterlimit="8" fill="none" transform="matrix(1.00181 0 0 1 52.981 -66.8744)"/><text font-family="Yu Gothic,Yu Gothic_MSFontService,sans-serif" font-weight="400" font-size="13" transform="matrix(1.00025 0 0 0.998449 454.038 391)">Station<tspan font-size="13" x="-49.8333" y="16.0249">* </tspan><tspan font-size="13" x="-39.8333" y="16.0249">Station Id</tspan></text><path d="M632.518 441.814 795.265 441.814 795.265 544.654 632.518 544.654Z" stroke="#000000" stroke-width="1.33126" stroke-miterlimit="8" fill="none" transform="matrix(1.00181 0 0 1 52.981 -66.8744)"/><text font-family="Yu Gothic,Yu Gothic_MSFontService,sans-serif" font-weight="400" font-size="13" transform="matrix(1.00025 0 0 0.998449 723.183 391)">Delivery Truck<tspan font-size="13" x="-27.58" y="16.0249">* </tspan><tspan font-size="13" x="-17.58" y="16.0249">Truck Id</tspan><tspan font-size="13" x="-19.9134" y="32.0497">Status</tspan></text><path d="M239.129 274.074 341.139 274.074" stroke="#000000" stroke-width="1.33126" stroke-miterlimit="8" fill="none" fill-rule="evenodd" transform="matrix(1.00181 0 0 1 52.981 -66.8744)"/><path d="M503.718 274.074 585.529 274.335" stroke="#000000" stroke-width="1.33126" stroke-miterlimit="8" fill="none" fill-rule="evenodd" transform="matrix(1.00181 0 0 1 52.981 -66.8744)"/><path d="M422.843 222.682 422.843 134.291 464.119 134.291" stroke="#000000" stroke-width="1.33126" stroke-miterlimit="8" fill="none" fill-rule="evenodd" transform="matrix(1.00181 0 0 1 52.981 -66.8744)"/><path d="M0 0 79.6449 0 79.6449 40.5349" stroke="#000000" stroke-width="1.33126" stroke-miterlimit="8" fill="none" fill-rule="evenodd" transform="matrix(-1.84029e-16 -1 -1.00181 1.83697e-16 721.248 147.062)"/><path d="M341.52 493.018 158.254 493.018 158.254 324.995" stroke="#000000" stroke-width="1.33126" stroke-miterlimit="8" fill="none" fill-rule="evenodd" transform="matrix(1.00181 0 0 1 52.981 -66.8744)"/><path d="M503.718 492.735 632.087 492.735" stroke="#000000" stroke-width="1.33126" stroke-miterlimit="8" fill="none" fill-rule="evenodd" transform="matrix(1.00181 0 0 1 52.981 -66.8744)"/><path d="M838.198 441.814 1026.9 441.814 1026.9 544.654 838.198 544.654Z" stroke="#000000" stroke-width="1.33126" stroke-miterlimit="8" fill="none" transform="matrix(1.00181 0 0 1 52.981 -66.8744)"/><text font-family="Yu Gothic,Yu Gothic_MSFontService,sans-serif" font-weight="400" font-size="13" transform="matrix(1.00025 0 0 0.998449 912.436 391)">Cooling Container Truck<tspan font-size="13" x="-10.2467" y="16.0249">* </tspan><tspan font-size="13" x="-0.246703" y="16.0249">Truck Id</tspan><tspan font-size="13" x="-2.58004" y="32.0497">Container Temperature</tspan></text><path d="M838.198 222.155 1017.92 222.155 1017.92 324.995 838.198 324.995Z" stroke="#000000" stroke-width="1.33126" stroke-miterlimit="8" fill="none" transform="matrix(1.00181 0 0 1 52.981 -66.8744)"/><text font-family="Yu Gothic,Yu Gothic_MSFontService,sans-serif" font-weight="400" font-size="13" transform="matrix(1.00025 0 0 0.998449 942.864 172)">Temperature <tspan font-size="13" x="-25.8333" y="16.0249">Measurement Device</tspan><tspan font-size="13" x="-40.6667" y="32.0497">* </tspan><tspan font-size="13" x="-30.6667" y="32.0497">Device Id</tspan><tspan font-size="13" x="-33" y="48.0746">Temperature </tspan><tspan font-size="13" x="48" y="48.0746">&lt;&lt;</tspan><tspan font-size="13" x="66" y="48.0746">T</tspan><tspan font-size="13" x="74" y="48.0746">&gt;&gt;</tspan><tspan font-size="13" x="-33" y="64.0994">Measured</tspan><tspan font-size="13" x="32.6667" y="64.0994">Time</tspan><tspan font-size="13" x="67.3333" y="64.0994">&lt;&lt;</tspan><tspan font-size="13" x="85.3333" y="64.0994">T</tspan><tspan font-size="13" x="93.3333" y="64.0994">&gt;</tspan><tspan font-size="13" x="104.667" y="64.0994">&gt;</tspan></text><path d="M0 0 90.2669 0.260697" stroke="#000000" stroke-width="1.33126" stroke-miterlimit="8" fill="none" fill-rule="evenodd" transform="matrix(1.00181 0 0 -1 802.671 207.46)"/><path d="M752.331 594.576 915.079 594.576 915.079 719.383 752.331 719.383Z" stroke="#000000" stroke-width="1.33126" stroke-miterlimit="8" fill="none" transform="matrix(1.00181 0 0 1 52.981 -66.8744)"/><text font-family="Yu Gothic,Yu Gothic_MSFontService,sans-serif" font-weight="400" font-size="13" transform="matrix(1.00025 0 0 0.998449 870.339 544)">Truck<tspan font-size="13" x="-54.4133" y="16.0249">* </tspan><tspan font-size="13" x="-44.4133" y="16.0249">Truck Id</tspan><tspan font-size="13" x="-46.7467" y="32.0497">Location</tspan><tspan font-size="13" x="-46.7467" y="48.0746">Longitude</tspan><tspan font-size="13" x="14.2533" y="48.0746">&lt;&lt;</tspan><tspan font-size="13" x="32.2533" y="48.0746">T</tspan><tspan font-size="13" x="40.2533" y="48.0746">&gt;&gt;</tspan><tspan font-size="13" x="-46.7467" y="64.0994">Latitude</tspan><tspan font-size="13" x="4.25332" y="64.0994">&lt;&lt;</tspan><tspan font-size="13" x="22.2533" y="64.0994">T</tspan><tspan font-size="13" x="30.2533" y="64.0994">&gt;&gt;</tspan><tspan font-size="13" x="-46.7467" y="80.1243">Attitude</tspan><tspan font-size="13" x="2.25328" y="80.1243">&lt;&lt;</tspan><tspan font-size="13" x="20.2533" y="80.1243">T</tspan><tspan font-size="13" x="28.2533" y="80.1243">&gt;&gt;</tspan><tspan font-size="13" x="-46.7467" y="96.1491">Measured Time</tspan></text><path d="M0 18.9705 11.4822 0 22.9643 18.9705Z" stroke="#000000" stroke-width="1.33126" stroke-miterlimit="8" fill="none" fill-rule="evenodd" transform="matrix(1.00181 0 0 -1 876.689 527.702)"/><path d="M0 0 15.3738 0 15.3738 120.097 30.7476 120.097" stroke="#000000" stroke-width="1.33126" stroke-miterlimit="8" fill="none" fill-rule="evenodd" transform="matrix(-1.84029e-16 -1 -1.00181 1.83697e-16 887.976 508.527)"/><path d="M834.204 575.401 834.204 560.028 933.097 560.028 933.097 544.654" stroke="#000000" stroke-width="1.33126" stroke-miterlimit="8" fill="none" fill-rule="evenodd" transform="matrix(1.00181 0 0 1 52.981 -66.8744)"/><text font-family="Yu Gothic,Yu Gothic_MSFontService,sans-serif" font-weight="400" font-size="13" transform="matrix(1.00025 0 0 0.998449 911.261 518)">{<tspan font-size="13" x="4.99996" y="0">complete</tspan><tspan font-size="13" x="60" y="0">, </tspan>disjoint<tspan font-size="13" x="112" y="0">}</tspan></text><path d="M468.772 544.066 468.772 743.854 1050.91 743.854 1050.91 492.735 1026.94 492.735" stroke="#000000" stroke-width="1.33126" stroke-miterlimit="8" fill="none" fill-rule="evenodd" transform="matrix(1.00181 0 0 1 52.981 -66.8744)"/><text font-family="Yu Gothic,Yu Gothic_MSFontService,sans-serif" font-weight="400" font-size="13" transform="matrix(1.00025 0 0 0.998449 529.041 500)">0..<tspan font-size="13" x="13" y="0">1 </tspan><tspan font-size="13" x="24" y="0">drive to</tspan><tspan font-size="13" x="567.956" y="-84.1305">*</tspan><tspan font-size="13" x="140.73" y="-76.118">*</tspan><tspan font-size="13" x="97.475" y="-57.0885">assign to</tspan><tspan font-size="13" x="339.334" y="-299.464">0</tspan>..1<tspan font-size="13" x="281.172" y="-299.464">0</tspan>..<tspan font-size="13" x="294.172" y="-299.464">1</tspan><tspan font-size="13" x="281.172" y="-283.44">target</tspan><tspan font-size="13" x="89.6375" y="-298.463">0</tspan>..<tspan font-size="13" x="102.637" y="-298.463">1</tspan><tspan font-size="13" x="64.8041" y="-282.438">created</tspan><tspan font-size="13" x="33.0907" y="-298.463">1</tspan><tspan font-size="13" x="202.866" y="-357.555">*</tspan><tspan font-size="13" x="160.381" y="-459.713">1</tspan><tspan font-size="13" x="160.381" y="-443.688">is created at</tspan><tspan font-size="13" x="-26.1804" y="-433.673">1</tspan><tspan font-size="13" x="-108.68" y="-417.648">is assigned for</tspan><tspan font-size="13" x="-63.207" y="-353.548">*</tspan><tspan font-size="13" x="-305.388" y="-228.354">responsible for</tspan><tspan font-size="13" x="-332.745" y="-225.349">*</tspan><tspan font-size="13" x="-151.61" y="-81.1258">1</tspan><tspan font-size="13" x="36.3345" y="-84.1305">1</tspan><tspan font-size="13" x="-148.306" y="-295.458">*</tspan><tspan font-size="13" x="-231.182" y="-299.464">1</tspan><tspan font-size="13" x="-234.136" y="-275.427">ordered by</tspan></text><path d="M380.908 544.001 380.908 772.019 1095.19 772.019 1095.19 274.074 1018.3 274.074" stroke="#000000" stroke-width="1.33126" stroke-miterlimit="8" fill="none" fill-rule="evenodd" transform="matrix(1.00181 0 0 1 52.981 -66.8744)"/><text font-family="Yu Gothic,Yu Gothic_MSFontService,sans-serif" font-weight="400" font-size="13" transform="matrix(1.00025 0 0 0.998449 1078.21 223)">assign to<tspan font-size="13" x="-656.597" y="273.424">1</tspan><tspan font-size="13" x="5.12139" y="-23.0357">*</tspan></text><path d="M422.843 441.984 422.843 410.828 623.55 410.828 623.55 334.98" stroke="#000000" stroke-width="1.33126" stroke-miterlimit="8" fill="none" fill-rule="evenodd" transform="matrix(1.00181 0 0 1 52.981 -66.8744)"/><path d="M0 0 71.3399 0 71.3399 90.267 107.397 90.267" stroke="#000000" stroke-width="1.33126" stroke-miterlimit="8" fill="none" fill-rule="evenodd" transform="matrix(-1.84029e-16 -1 -1.00181 1.83697e-16 812.08 374.504)"/><path d="M0 0 84.158 0 84.158 211.852 105.983 211.852" stroke="#000000" stroke-width="1.33126" stroke-miterlimit="8" fill="none" fill-rule="evenodd" transform="matrix(-1.84029e-16 -1 -1.00181 1.83697e-16 986.898 375.087)"/><text font-family="Yu Gothic,Yu Gothic_MSFontService,sans-serif" font-weight="400" font-size="13" transform="matrix(1.00025 0 0 0.998449 993.895 368)">0..<tspan font-size="13" x="13" y="0">1</tspan><tspan font-size="13" x="-170.144" y="1.00155">0</tspan>..<tspan font-size="13" x="-157.144" y="1.00155">1</tspan><tspan font-size="13" x="-511.095" y="3.00466">0</tspan>..1<tspan font-size="13" x="-208.956" y="-87.1351">carrying</tspan><tspan font-size="13" x="-286.742" y="-76.118">carrying</tspan><tspan font-size="13" x="-368.575" y="-82.1274">staying</tspan><tspan font-size="13" x="-311.884" y="-78.1212">*</tspan><tspan font-size="13" x="-286.699" y="-86.1336">*</tspan><tspan font-size="13" x="-232.392" y="-83.1289">*</tspan></text></g></g></g></g><path d="M980.71 362.637 983.273 359.137 983.087 359.414 985.149 356.039 984.971 356.364 986.533 353.177 986.353 353.606 987.478 350.419 987.328 350.966 987.953 347.841 987.878 348.465 988.003 345.34 988.012 345.807 987.762 342.557 987.833 343.063 987.146 339.75 987.241 340.119 986.178 336.681 986.273 336.953 984.836 333.265 984.979 333.59 980.979 325.528 981.055 325.672 978.555 321.11 978.598 321.186 975.785 316.311 975.802 316.341 972.672 311.018 969.291 305.196 969.5 305.519 967.437 302.644 967.963 303.241 965.276 300.741 965.737 301.111 962.549 298.923 962.976 299.179 959.226 297.241 959.664 297.435 955.477 295.873 955.749 295.963 951.062 294.588 951.356 294.663 946.356 293.6 946.552 293.637 941.115 292.762 941.392 292.796 929.579 291.734 929.82 291.748 917.008 291.373 917.217 291.374 903.655 291.686 903.759 291.683 889.759 292.37 889.861 292.364 875.674 293.426 875.747 293.42 861.684 294.733 848.071 296.044 835.12 297.295 823.126 298.363 817.57 298.742 812.388 299.058 807.545 299.249 803.089 299.313 799.035 299.183 795.497 298.916 789.735 298.074 784.943 297.221 781.095 296.19 778.004 295.04 775.446 293.719 773.42 291.997 771.959 289.806 771.384 287.363 771.627 285.24 779.575 286.149 779.412 287.579 779.331 286.209 779.581 287.271 779.016 285.969 779.766 287.094 779.028 286.265 780.278 287.327 779.522 286.821 781.46 287.821 781.02 287.626 783.707 288.626 783.347 288.511 786.847 289.449 786.514 289.374 791.076 290.187 790.953 290.167 796.516 290.979 796.239 290.949 799.551 291.199 799.379 291.19 803.254 291.315 803.067 291.313 807.38 291.25 807.28 291.253 812.03 291.066 811.944 291.07 817.069 290.757 817.04 290.759 822.54 290.384 822.458 290.391 834.395 289.328 834.365 289.331 847.304 288.081 860.941 286.767 875.04 285.451 889.315 284.382 903.418 283.69 917.137 283.374 930.175 283.755 942.248 284.841 947.921 285.754 953.168 286.869 958.139 288.327 962.686 290.024 966.87 292.186 970.508 294.682 973.705 297.656 976.112 301.012 979.584 306.991 979.573 306.972 982.706 312.299 985.549 317.227 988.109 321.899 992.225 330.194 993.779 334.181 994.94 337.938 995.719 341.688 996.006 345.426 995.859 349.1 995.117 352.813 993.819 356.489 992.072 360.052 989.826 363.728 987.165 367.363ZM756.081 305.868 776.377 277.794 790.824 309.28C791.745 311.288 790.864 313.662 788.857 314.583 786.849 315.505 784.474 314.624 783.553 312.616L771.965 287.363 778.843 288.038 762.564 310.555C761.27 312.345 758.769 312.747 756.979 311.453 755.189 310.159 754.787 307.658 756.081 305.868Z" fill="#FF0000" fill-opacity="0.301961"/><path d="M3.60119e-06-4 108.694-3.9999 108.694 4.0001-3.60119e-06 4ZM86.709-17.455 116.632 0.000105526 86.709 17.4552C84.8008 18.5683 82.3515 17.9238 81.2384 16.0156 80.1253 14.1073 80.7698 11.6581 82.678 10.545L106.678-3.45502 106.678 3.45521 82.6781-10.5448C80.7699-11.6579 80.1253-14.1072 81.2384-16.0154 82.3516-17.9236 84.8008-18.5682 86.709-17.455Z" fill="#FF0000" fill-opacity="0.301961" transform="matrix(-1 0 0 1 404.614 207)"/><path d="M3.60119e-06-4 108.694-3.9999 108.694 4.0001-3.60119e-06 4ZM86.709-17.455 116.632 0.000105526 86.709 17.4552C84.8008 18.5683 82.3515 17.9238 81.2384 16.0156 80.1253 14.1073 80.7698 11.6581 82.678 10.545L106.678-3.45502 106.678 3.45521 82.6781-10.5448C80.7699-11.6579 80.1253-14.1072 81.2384-16.0154 82.3516-17.9236 84.8008-18.5682 86.709-17.455Z" fill="#FF0000" fill-opacity="0.301961" transform="matrix(-1 0 0 1 653.614 207)"/></g></svg>