<svg width="807" height="378" xmlns="http://www.w3.org/2000/svg" xmlns:xlink="http://www.w3.org/1999/xlink" overflow="hidden"><defs><clipPath id="clip0"><rect x="128" y="13" width="807" height="378"/></clipPath><clipPath id="clip1"><rect x="129" y="13" width="806" height="378"/></clipPath><clipPath id="clip2"><rect x="129" y="13" width="807" height="378"/></clipPath><clipPath id="clip3"><rect x="129" y="13" width="1023" height="695"/></clipPath><clipPath id="clip4"><rect x="129" y="13" width="1023" height="695"/></clipPath></defs><g clip-path="url(#clip0)" transform="translate(-128 -13)"><g clip-path="url(#clip1)"><g clip-path="url(#clip2)"><g clip-path="url(#clip3)"><g clip-path="url(#clip4)"><path d="M77.4842 222.454 239.451 222.454 239.451 325.433 77.4842 325.433Z" stroke="#000000" stroke-width="1.33306" stroke-miterlimit="8" fill="none" transform="matrix(1 0 0 1.00242 54.0153 -68.1793)"/><text font-family="Yu Gothic,Yu Gothic_MSFontService,sans-serif" font-weight="400" font-size="13" transform="matrix(0.999795 0 0 1.00221 182.095 171)">Customer<tspan font-size="13" x="-41.9133" y="15.9647">* </tspan>Customer Id<tspan font-size="13" x="-34.2467" y="31.9293">Name</tspan><tspan font-size="13" x="-34.2467" y="47.894">Address</tspan><tspan font-size="13" x="-34.2467" y="63.8587">Tel No</tspan></text><path d="M342.43 222.454 504.397 222.454 504.397 325.433 342.43 325.433Z" stroke="#000000" stroke-width="1.33306" stroke-miterlimit="8" fill="none" transform="matrix(1 0 0 1.00242 54.0153 -68.1793)"/><text font-family="Yu Gothic,Yu Gothic_MSFontService,sans-serif" font-weight="400" font-size="13" transform="matrix(0.999795 0 0 1.00221 459.468 171)">Order<tspan font-size="13" x="-54.4133" y="15.9647">* </tspan>Order Id<tspan font-size="13" x="-46.7467" y="31.9293">Status</tspan></text><path d="M586.38 213.456 749.347 213.456 749.347 334.432 586.38 334.432Z" stroke="#000000" stroke-width="1.33306" stroke-miterlimit="8" fill="none" transform="matrix(1 0 0 1.00242 54.0153 -68.1793)"/><text font-family="Yu Gothic,Yu Gothic_MSFontService,sans-serif" font-weight="400" font-size="13" transform="matrix(0.999795 0 0 1.00221 697.453 162)">Product<tspan font-size="13" x="-47.7466" y="15.9647">* </tspan><tspan font-size="13" x="-37.7466" y="15.9647">Product Id</tspan><tspan font-size="13" x="-40.08" y="31.9293">現在温度</tspan><tspan font-size="13" x="-40.08" y="47.894">許容最高温度</tspan><tspan font-size="13" x="-40.08" y="63.8587">許容最低温度</tspan><tspan font-size="13" x="-40.08" y="80.8211">位置</tspan><tspan font-size="13" x="-40.08" y="96.7858">Statu</tspan><tspan font-size="13" x="-7.24666" y="96.7858">s</tspan></text><path d="M464.405 82.4832 627.372 82.4832 627.372 185.462 464.405 185.462Z" stroke="#000000" stroke-width="1.33306" stroke-miterlimit="8" fill="none" transform="matrix(1 0 0 1.00242 54.0153 -68.1793)"/><text font-family="Yu Gothic,Yu Gothic_MSFontService,sans-serif" font-weight="400" font-size="13" transform="matrix(0.999795 0 0 1.00221 576.498 31)">Factory<tspan font-size="13" x="-48.7466" y="15.9647">* </tspan><tspan font-size="13" x="-38.7466" y="15.9647">Factor</tspan><tspan font-size="13" x="0.919988" y="15.9647">y</tspan><tspan font-size="13" x="11.2534" y="15.9647">Id</tspan></text><path d="M342.43 442.409 504.397 442.409 504.397 545.388 342.43 545.388Z" stroke="#000000" stroke-width="1.33306" stroke-miterlimit="8" fill="none" transform="matrix(1 0 0 1.00242 54.0153 -68.1793)"/><text font-family="Yu Gothic,Yu Gothic_MSFontService,sans-serif" font-weight="400" font-size="13" transform="matrix(0.999795 0 0 1.00221 454.889 392)">Station<tspan font-size="13" x="-49.8333" y="15.9647">* </tspan>Station Id</text><path d="M633.37 442.409 796.337 442.409 796.337 545.388 633.37 545.388Z" stroke="#000000" stroke-width="1.33306" stroke-miterlimit="8" fill="none" transform="matrix(1 0 0 1.00242 54.0153 -68.1793)"/><text font-family="Yu Gothic,Yu Gothic_MSFontService,sans-serif" font-weight="400" font-size="13" transform="matrix(0.999795 0 0 1.00221 723.911 392)">Delivery Truck<tspan font-size="13" x="-27.58" y="15.9647">* </tspan><tspan font-size="13" x="-17.58" y="15.9647">Truck Id</tspan><tspan font-size="13" x="-19.9134" y="31.9293">Status</tspan></text><path d="M239.451 274.444 341.599 274.444" stroke="#000000" stroke-width="1.33306" stroke-miterlimit="8" fill="none" fill-rule="evenodd" transform="matrix(1 0 0 1.00242 54.0153 -68.1793)"/><path d="M504.397 274.444 586.318 274.705" stroke="#000000" stroke-width="1.33306" stroke-miterlimit="8" fill="none" fill-rule="evenodd" transform="matrix(1 0 0 1.00242 54.0153 -68.1793)"/><path d="M423.413 222.982 423.413 134.472 464.745 134.472" stroke="#000000" stroke-width="1.33306" stroke-miterlimit="8" fill="none" fill-rule="evenodd" transform="matrix(1 0 0 1.00242 54.0153 -68.1793)"/><path d="M0 0 79.7523 0 79.7523 40.5896" stroke="#000000" stroke-width="1.33306" stroke-miterlimit="8" fill="none" fill-rule="evenodd" transform="matrix(-1.83697e-16 -1.00242 -1 1.84141e-16 721.977 146.564)"/><path d="M341.98 493.683 158.468 493.683 158.468 325.433" stroke="#000000" stroke-width="1.33306" stroke-miterlimit="8" fill="none" fill-rule="evenodd" transform="matrix(1 0 0 1.00242 54.0153 -68.1793)"/><path d="M504.397 493.399 632.939 493.399" stroke="#000000" stroke-width="1.33306" stroke-miterlimit="8" fill="none" fill-rule="evenodd" transform="matrix(1 0 0 1.00242 54.0153 -68.1793)"/><path d="M839.328 442.409 1028.29 442.409 1028.29 545.388 839.328 545.388Z" stroke="#000000" stroke-width="1.33306" stroke-miterlimit="8" fill="none" transform="matrix(1 0 0 1.00242 54.0153 -68.1793)"/><text font-family="Yu Gothic,Yu Gothic_MSFontService,sans-serif" font-weight="400" font-size="13" transform="matrix(0.999795 0 0 1.00221 913.078 392)">Cooling Container Truck<tspan font-size="13" x="-10.2467" y="15.9647">* </tspan><tspan font-size="13" x="-0.246694" y="15.9647">Truck Id</tspan><tspan font-size="13" x="-2.58006" y="31.9293">Container Temperature</tspan></text><path d="M839.328 222.454 1019.29 222.454 1019.29 325.433 839.328 325.433Z" stroke="#000000" stroke-width="1.33306" stroke-miterlimit="8" fill="none" transform="matrix(1 0 0 1.00242 54.0153 -68.1793)"/><text font-family="Yu Gothic,Yu Gothic_MSFontService,sans-serif" font-weight="400" font-size="13" transform="matrix(0.999795 0 0 1.00221 943.491 171)">Temperature <tspan font-size="13" x="-25.8333" y="15.9647">Measurement Device</tspan><tspan font-size="13" x="-40.6667" y="31.9293">* </tspan><tspan font-size="13" x="-30.6667" y="31.9293">Device Id</tspan><tspan font-size="13" x="-33" y="47.894">Temperature </tspan><tspan font-size="13" x="48" y="47.894">&lt;&lt;</tspan><tspan font-size="13" x="66" y="47.894">T</tspan><tspan font-size="13" x="74" y="47.894">&gt;&gt;</tspan><tspan font-size="13" x="-33" y="63.8587">Measured</tspan><tspan font-size="13" x="32.6667" y="63.8587">Time</tspan><tspan font-size="13" x="67.3333" y="63.8587">&lt;&lt;</tspan><tspan font-size="13" x="85.3333" y="63.8587">T</tspan><tspan font-size="13" x="93.3333" y="63.8587">&gt;</tspan><tspan font-size="13" x="104.667" y="63.8587">&gt;</tspan></text><path d="M0 0 90.3886 0.261049" stroke="#000000" stroke-width="1.33306" stroke-miterlimit="8" fill="none" fill-rule="evenodd" transform="matrix(1 0 0 -1.00242 803.362 207.19)"/><path d="M753.346 595.378 916.312 595.378 916.312 720.353 753.346 720.353Z" stroke="#000000" stroke-width="1.33306" stroke-miterlimit="8" fill="none" transform="matrix(1 0 0 1.00242 54.0153 -68.1793)"/><text font-family="Yu Gothic,Yu Gothic_MSFontService,sans-serif" font-weight="400" font-size="13" transform="matrix(0.999795 0 0 1.00221 870.999 545)">Truck<tspan font-size="13" x="-54.4133" y="15.9647">* </tspan><tspan font-size="13" x="-44.4133" y="15.9647">Truck Id</tspan><tspan font-size="13" x="-46.7467" y="31.9293">Location</tspan><tspan font-size="13" x="-46.7467" y="47.894">Longitude</tspan><tspan font-size="13" x="14.2533" y="47.894">&lt;&lt;</tspan><tspan font-size="13" x="32.2533" y="47.894">T</tspan><tspan font-size="13" x="40.2533" y="47.894">&gt;&gt;</tspan><tspan font-size="13" x="-46.7467" y="63.8587">Latitude</tspan><tspan font-size="13" x="4.25331" y="63.8587">&lt;&lt;</tspan><tspan font-size="13" x="22.2533" y="63.8587">T</tspan><tspan font-size="13" x="30.2533" y="63.8587">&gt;&gt;</tspan><tspan font-size="13" x="-46.7467" y="79.8233">Attitude</tspan><tspan font-size="13" x="2.25333" y="79.8233">&lt;&lt;</tspan><tspan font-size="13" x="20.2533" y="79.8233">T</tspan><tspan font-size="13" x="28.2533" y="79.8233">&gt;&gt;</tspan><tspan font-size="13" x="-46.7467" y="95.788">Measured Time</tspan></text><path d="M0 18.9961 11.4976 0 22.9953 18.9961Z" stroke="#000000" stroke-width="1.33306" stroke-miterlimit="8" fill="none" fill-rule="evenodd" transform="matrix(1 0 0 -1.00242 877.347 528.639)"/><path d="M0 0 15.3946 0 15.3946 120.259 30.7891 120.259" stroke="#000000" stroke-width="1.33306" stroke-miterlimit="8" fill="none" fill-rule="evenodd" transform="matrix(-1.83697e-16 -1.00242 -1 1.84141e-16 888.629 509.391)"/><path d="M835.329 576.177 835.329 560.783 934.355 560.783 934.355 545.388" stroke="#000000" stroke-width="1.33306" stroke-miterlimit="8" fill="none" fill-rule="evenodd" transform="matrix(1 0 0 1.00242 54.0153 -68.1793)"/><text font-family="Yu Gothic,Yu Gothic_MSFontService,sans-serif" font-weight="400" font-size="13" transform="matrix(0.999795 0 0 1.00221 911.903 519)">{<tspan font-size="13" x="4.99999" y="0">complete</tspan><tspan font-size="13" x="59.9999" y="0">, </tspan><tspan font-size="13" x="67" y="0">disjoint</tspan><tspan font-size="13" x="112" y="0">}</tspan></text><path d="M469.404 544.8 469.404 744.857 1052.32 744.857 1052.32 493.399 1028.33 493.399" stroke="#000000" stroke-width="1.33306" stroke-miterlimit="8" fill="none" fill-rule="evenodd" transform="matrix(1 0 0 1.00242 54.0153 -68.1793)"/><text font-family="Yu Gothic,Yu Gothic_MSFontService,sans-serif" font-weight="400" font-size="13" transform="matrix(0.999795 0 0 1.00221 529.858 501)">0<tspan font-size="13" x="7.00003" y="0">..</tspan><tspan font-size="13" x="13" y="0">1 </tspan><tspan font-size="13" x="24" y="0">drive to</tspan><tspan font-size="13" x="567.956" y="-83.8145">*</tspan><tspan font-size="13" x="140.73" y="-75.8322">*</tspan><tspan font-size="13" x="97.475" y="-56.8741">assign to</tspan><tspan font-size="13" x="339.334" y="-300.335">0</tspan><tspan font-size="13" x="346.334" y="-300.335">..</tspan><tspan font-size="13" x="352.334" y="-300.335">1</tspan><tspan font-size="13" x="281.172" y="-300.335">0</tspan><tspan font-size="13" x="288.172" y="-300.335">..</tspan>1<tspan font-size="13" x="281.172" y="-284.371">target</tspan><tspan font-size="13" x="89.6375" y="-299.337">0</tspan><tspan font-size="13" x="96.6375" y="-299.337">..</tspan>1<tspan font-size="13" x="64.8041" y="-283.373">created</tspan><tspan font-size="13" x="33.0907" y="-299.337">1</tspan><tspan font-size="13" x="202.866" y="-358.207">*</tspan><tspan font-size="13" x="160.381" y="-459.982">1</tspan><tspan font-size="13" x="160.381" y="-444.017">is created at</tspan><tspan font-size="13" x="-26.1804" y="-434.039">1</tspan><tspan font-size="13" x="-108.68" y="-418.075">is assigned for</tspan><tspan font-size="13" x="-63.207" y="-354.216">*</tspan><tspan font-size="13" x="-305.388" y="-228.494">responsible for</tspan><tspan font-size="13" x="-332.745" y="-225.501">*</tspan><tspan font-size="13" x="-151.61" y="-80.8211">1</tspan><tspan font-size="13" x="36.3345" y="-83.8145">1</tspan><tspan font-size="13" x="-148.306" y="-296.344">*</tspan><tspan font-size="13" x="-231.182" y="-300.335">1</tspan><tspan font-size="13" x="-234.136" y="-276.388">ordered by</tspan></text><path d="M381.422 544.735 381.422 773.06 1096.67 773.06 1096.67 274.444 1019.67 274.444" stroke="#000000" stroke-width="1.33306" stroke-miterlimit="8" fill="none" fill-rule="evenodd" transform="matrix(1 0 0 1.00242 54.0153 -68.1793)"/><text font-family="Yu Gothic,Yu Gothic_MSFontService,sans-serif" font-weight="400" font-size="13" transform="matrix(0.999795 0 0 1.00221 1078.78 222)">assign to<tspan font-size="13" x="-656.597" y="274.393">1</tspan><tspan font-size="13" x="5.12141" y="-22.9492">*</tspan></text><path d="M423.413 442.58 423.413 411.382 624.391 411.382 624.391 335.431" stroke="#000000" stroke-width="1.33306" stroke-miterlimit="8" fill="none" fill-rule="evenodd" transform="matrix(1 0 0 1.00242 54.0153 -68.1793)"/><path d="M0 0 71.4361 0 71.4361 90.3887 107.542 90.3887" stroke="#000000" stroke-width="1.33306" stroke-miterlimit="8" fill="none" fill-rule="evenodd" transform="matrix(-1.83697e-16 -1.00242 -1 1.84141e-16 812.767 374.863)"/><path d="M0 0 84.2715 0 84.2715 212.138 106.126 212.138" stroke="#000000" stroke-width="1.33306" stroke-miterlimit="8" fill="none" fill-rule="evenodd" transform="matrix(-1.83697e-16 -1.00242 -1 1.84141e-16 987.505 375.448)"/><text font-family="Yu Gothic,Yu Gothic_MSFontService,sans-serif" font-weight="400" font-size="13" transform="matrix(0.999795 0 0 1.00221 994.499 369)">0<tspan font-size="13" x="7.00003" y="0">..</tspan><tspan font-size="13" x="13" y="0">1</tspan><tspan font-size="13" x="-170.144" y="0.997792">0</tspan><tspan font-size="13" x="-163.144" y="0.997792">..</tspan><tspan font-size="13" x="-157.144" y="0.997792">1</tspan><tspan font-size="13" x="-511.095" y="2.99337">0</tspan>..1<tspan font-size="13" x="-208.956" y="-87.8057">carrying</tspan><tspan font-size="13" x="-286.742" y="-76.83">carrying</tspan><tspan font-size="13" x="-368.575" y="-82.8167">staying</tspan><tspan font-size="13" x="-311.884" y="-78.8255">*</tspan><tspan font-size="13" x="-286.699" y="-86.8079">*</tspan><tspan font-size="13" x="-232.392" y="-83.8145">*</tspan></text></g></g></g></g><path d="M288 203 396.694 203 396.694 211 288 211ZM374.709 189.545 404.632 207 374.709 224.455C372.801 225.568 370.352 224.924 369.238 223.016 368.125 221.107 368.77 218.658 370.678 217.545L394.678 203.545 394.678 210.455 370.678 196.455C368.77 195.342 368.125 192.893 369.238 190.985 370.352 189.076 372.801 188.432 374.709 189.545Z" fill="#FF0000" fill-opacity="0.301961"/><path d="M543 203 651.694 203 651.694 211 543 211ZM629.709 189.545 659.632 207 629.709 224.455C627.801 225.568 625.352 224.924 624.238 223.016 623.125 221.107 623.77 218.658 625.678 217.545L649.678 203.545 649.678 210.455 625.678 196.455C623.77 195.342 623.125 192.893 624.238 190.985 625.352 189.076 627.801 188.432 629.709 189.545Z" fill="#FF0000" fill-opacity="0.301961"/><path d="M653 191.167C653 183.895 658.895 178 666.167 178L738.833 178C746.105 178 752 183.895 752 191.167L752 243.833C752 251.105 746.105 257 738.833 257L666.167 257C658.895 257 653 251.105 653 243.833Z" stroke="#FF0000" stroke-width="8" stroke-miterlimit="8" stroke-opacity="0.301961" fill="none" fill-rule="evenodd"/></g></svg>