<svg width="661" height="295" xmlns="http://www.w3.org/2000/svg" xmlns:xlink="http://www.w3.org/1999/xlink" overflow="hidden"><defs><clipPath id="clip0"><rect x="75" y="85" width="661" height="295"/></clipPath><clipPath id="clip1"><rect x="624" y="279" width="56" height="48"/></clipPath><clipPath id="clip2"><rect x="623" y="279" width="57" height="48"/></clipPath><clipPath id="clip3"><rect x="529" y="179" width="243" height="243"/></clipPath></defs><g clip-path="url(#clip0)" transform="translate(-75 -85)"><path d="M165 270.391 176.629 270.236 175.686 252 166.1 252Z" fill="#0072C6" fill-rule="evenodd"/><path d="M166.45 245 166 252.2 175.15 252.2 174.7 245Z" fill="#50E6FF" fill-rule="evenodd"/><path d="M185 271.236 196.472 271.236 195.529 253 185.943 253Z" fill="#0072C6" fill-rule="evenodd"/><path d="M186.45 246 186 253.35 195.15 253.35 194.85 246Z" fill="#50E6FF" fill-rule="evenodd"/><path d="M204 271.391 215.629 271.236 214.686 253 205.1 253Z" fill="#0072C6" fill-rule="evenodd"/><path d="M206.45 245 206 252.2 215.15 252.2 214.7 245Z" fill="#50E6FF" fill-rule="evenodd"/><path d="M152 271 152 303.55 176.066 303.55 176.066 292.855 188.021 292.855 188.021 303.55 212.242 303.55 212.242 271Z" fill="#7F7F7F" fill-rule="evenodd"/><path d="M162 280 165.6 280 165.6 283.6 162 283.6Z" fill-rule="evenodd"/><path d="M172 280 175.6 280 175.6 283.6 172 283.6Z" fill-rule="evenodd"/><path d="M182 280 185.6 280 185.6 283.6 182 283.6Z" fill-rule="evenodd"/><path d="M192 280 195.6 280 195.6 283.6 192 283.6Z" fill-rule="evenodd"/><path d="M202 280 205.6 280 205.6 283.6 202 283.6Z" fill-rule="evenodd"/><path d="M213 271 228.3 271 228.3 303.61 213 303.61Z" fill="#5B5C5E" fill-rule="evenodd"/><path d="M426 302 426 302 430 302 430 285 426 285 426 302Z" fill="#0072C6" fill-rule="evenodd"/><path d="M409 302 409 302 413 302 413 285 409 285 409 302Z" fill="#0072C6" fill-rule="evenodd"/><path d="M447 285 447 285 442 285 442 302 447 302 447 285Z" fill="#0072C6" fill-rule="evenodd"/><path d="M400 302 400 302 404.28 302 404.28 280.431 416.96 280.431 416.96 302 421.239 302 421.239 280.431 433.919 280.431 433.919 302 438.04 302 438.04 280.431 450.72 280.431 450.72 302 455 302 455 272.672 427.579 266 400 272.672 400 302Z" fill="#0072C6" fill-rule="evenodd"/><path d="M240 284.25 240.531 284.25 240.531 292.75 240 292.75ZM241.062 284.25 242.125 284.25 242.125 292.75 241.062 292.75ZM242.656 284.25 384.5 284.25 384.5 280 393 288.5 384.5 297 384.5 292.75 242.656 292.75Z" fill="#4472C4" fill-rule="evenodd" fill-opacity="0.4"/><rect x="522.5" y="181.5" width="38" height="24" fill="#FFC000"/><path d="M560.5 181.5 568.5 173.5 568.5 197.5 560.5 205.5Z" fill="#CD9A00" fill-rule="evenodd"/><path d="M522.5 181.5 530.5 173.5 568.5 173.5 560.5 181.5Z" fill="#FFCC32" fill-rule="evenodd"/><path d="M522.5 181.5 530.5 173.5 568.5 173.5 568.5 197.5 560.5 205.5 522.5 205.5ZM522.5 181.5 560.5 181.5 568.5 173.5M560.5 181.5 560.5 205.5" stroke="#BC8C00" stroke-width="1.33333" stroke-miterlimit="8" fill="none" fill-rule="evenodd"/><path d="M267 263 267 301.633 271.579 301.633C271.859 298.195 274.756 295.481 278.4 295.481 282.044 295.481 284.941 298.195 285.221 301.633L324 301.633 324 263 267 263Z" fill-rule="evenodd"/><path d="M283.54 302.77C283.54 305.404 281.404 307.54 278.77 307.54 276.136 307.54 274 305.404 274 302.77 274 300.136 276.136 298 278.77 298 281.404 298 283.54 300.136 283.54 302.77Z" fill="#0072C6" fill-rule="evenodd"/><path d="M344.364 286.503C344.364 277.385 337 270 327.909 270L324 270 324 301.638 327.364 301.638C327.546 298.082 330.454 295.256 334 295.256 337.546 295.256 340.454 298.082 340.636 301.638L344.273 301.638 344.273 286.503ZM339.182 283.038 330.818 283.038 330.818 274.376C335.455 274.376 339.182 278.115 339.182 282.765L339.182 283.038Z" fill-rule="evenodd"/><path d="M338.54 302.77C338.54 305.404 336.404 307.54 333.77 307.54 331.136 307.54 329 305.404 329 302.77 329 300.136 331.136 298 333.77 298 336.404 298 338.54 300.136 338.54 302.77Z" fill="#0072C6" fill-rule="evenodd"/><path d="M468 284.25 468.531 284.25 468.531 292.75 468 292.75ZM469.063 284.25 470.125 284.25 470.125 292.75 469.063 292.75ZM470.656 284.25 582.5 284.25 582.5 280 591 288.5 582.5 297 582.5 292.75 470.656 292.75Z" fill="#4472C4" fill-rule="evenodd" fill-opacity="0.4"/><path d="M553.983 299.055C553.983 297.288 555.364 296.11 556.942 296.11 558.519 296.11 559.9 297.288 559.9 299.055 559.9 300.626 558.519 302 556.942 302 555.364 302 553.983 300.626 553.983 299.055ZM511.778 302C513.356 302 514.736 300.626 514.736 299.055 514.736 297.288 513.356 296.11 511.778 296.11 510.2 296.11 508.819 297.288 508.819 299.055 508.819 300.626 510.2 302 511.778 302ZM564.239 299.055C564.239 291.595 564.239 291.595 564.239 291.595 564.239 290.221 563.056 289.043 561.675 289.043 536.825 289.043 536.825 289.043 536.825 289.043M514.736 299.055C553.983 299.055 553.983 299.055 553.983 299.055M559.9 299.055C567 299.055 567 299.055 567 299.055M536.825 299.055C536.825 270 536.825 270 536.825 270 500.339 270 500.339 270 500.339 270 500.339 299.055 500.339 299.055 500.339 299.055 508.819 299.055 508.819 299.055 508.819 299.055M554.181 289.043C545.503 280.209 545.503 280.209 545.503 280.209 536.825 280.209 536.825 280.209 536.825 280.209M500.339 296.11C496 296.11 496 296.11 496 296.11" stroke="#000000" stroke-width="1.66667" stroke-miterlimit="8" fill="#A9D18E" fill-rule="evenodd"/><path d="M504.5 162 524 142.5 591.5 142.5 591.5 201 572 220.5 504.5 220.5ZM504.5 162 572 162 591.5 142.5M572 162 572 220.5" stroke="#2F528F" stroke-width="1.33333" stroke-miterlimit="8" fill="none" fill-rule="evenodd"/><rect x="519.5" y="170.718" width="46.7816" height="2.78157" fill="#4472C4"/><path d="M566.282 170.718 574.5 162.5 574.5 165.282 566.282 173.5Z" fill="#375C9E" fill-rule="evenodd"/><path d="M519.5 170.718 527.719 162.5 574.5 162.5 566.282 170.718Z" fill="#698ED0" fill-rule="evenodd"/><path d="M519.5 170.718 527.719 162.5 574.5 162.5 574.5 165.282 566.282 173.5 519.5 173.5ZM519.5 170.718 566.282 170.718 574.5 162.5M566.282 170.718 566.282 173.5" stroke="#2F528F" stroke-width="1.33333" stroke-miterlimit="8" fill="none" fill-rule="evenodd"/><text font-family="Yu Gothic,Yu Gothic_MSFontService,sans-serif" font-weight="400" font-size="13" transform="translate(516.544 120)">Cooling<tspan font-size="13" x="50" y="0">Box</tspan><tspan font-size="13" x="106.553" y="44">Temperature </tspan><tspan font-size="13" x="114.14" y="60">measuring </tspan><tspan font-size="13" x="126.553" y="76">device</tspan><tspan font-size="13" x="-80.8393" y="68">Product</tspan></text><path d="M606.542 177.901 555.243 168.978 555.757 166.022 607.056 174.945ZM554.215 174.889C550.134 174.179 547.401 170.296 548.111 166.215 548.821 162.134 552.704 159.401 556.785 160.111 560.866 160.821 563.599 164.704 562.889 168.785 562.179 172.866 558.296 175.599 554.215 174.889Z" fill="#A9D18E"/><path d="M1.34432-0.665444 10.1785 17.1813 7.48991 18.5122-1.34432 0.665444ZM15.5558 14.5195C17.3934 18.2317 15.8737 22.7307 12.1614 24.5683 8.44922 26.4059 3.95022 24.8862 2.11265 21.1739 0.275075 17.4617 1.79478 12.9627 5.50701 11.1251 9.21923 9.28757 13.7182 10.8073 15.5558 14.5195Z" fill="#A9D18E" transform="matrix(-1 0 0 1 554.334 129.5)"/><path d="M489.667 186.009 539.598 191.607 539.264 194.589 489.333 188.991ZM540.267 185.645C544.383 186.106 547.346 189.817 546.884 193.934 546.423 198.05 542.712 201.013 538.596 200.551 534.479 200.09 531.516 196.379 531.978 192.263 532.439 188.146 536.151 185.183 540.267 185.645Z" fill="#A9D18E"/><text font-family="Yu Gothic,Yu Gothic_MSFontService,sans-serif" font-weight="400" font-size="13" transform="translate(160.804 326)">Factory<tspan font-size="13" x="462.592" y="13">Customer</tspan><tspan font-size="13" x="246.882" y="-3">Station</tspan><tspan font-size="13" x="238.128" y="13">Collection</tspan><tspan font-size="13" x="238.295" y="29">&amp;</tspan><tspan font-size="13" x="251.795" y="29">deliver</tspan>y</text><path d="M417.5 86.5001 470.333 86.5001 470.333 86.5001 549.583 86.5001 734.5 86.5001 734.5 180.415 734.5 180.415 734.5 220.665 734.5 247.497 549.583 247.497 523.495 273.83 470.333 247.497 417.5 247.497 417.5 220.665 417.5 180.415 417.5 180.415Z" stroke="#2F528F" stroke-width="1.33333" stroke-miterlimit="8" fill="none" fill-rule="evenodd"/><rect x="142.5" y="191.75" width="37.75" height="24.75" fill="#FFC000"/><path d="M180.25 191.75 188.5 183.5 188.5 208.25 180.25 216.5Z" fill="#CD9A00" fill-rule="evenodd"/><path d="M142.5 191.75 150.75 183.5 188.5 183.5 180.25 191.75Z" fill="#FFCC32" fill-rule="evenodd"/><path d="M142.5 191.75 150.75 183.5 188.5 183.5 188.5 208.25 180.25 216.5 142.5 216.5ZM142.5 191.75 180.25 191.75 188.5 183.5M180.25 191.75 180.25 216.5" stroke="#BC8C00" stroke-width="1.33333" stroke-miterlimit="8" fill="none" fill-rule="evenodd"/><path d="M106.5 158.5 174.167 158.5 174.167 158.5 203.167 158.5 222.5 158.5 222.5 197 222.5 197 222.5 213.5 222.5 224.5 203.167 224.5 215.994 256.744 174.167 224.5 106.5 224.5 106.5 213.5 106.5 197 106.5 197Z" stroke="#2F528F" stroke-width="1.33333" stroke-miterlimit="8" fill="none" fill-rule="evenodd"/><text font-family="Yu Gothic,Yu Gothic_MSFontService,sans-serif" font-weight="400" font-size="13" transform="translate(112.692 177)">Create Products</text><rect x="262.5" y="211.5" width="38" height="24" fill="#FFC000"/><path d="M300.5 211.5 308.5 203.5 308.5 227.5 300.5 235.5Z" fill="#CD9A00" fill-rule="evenodd"/><path d="M262.5 211.5 270.5 203.5 308.5 203.5 300.5 211.5Z" fill="#FFCC32" fill-rule="evenodd"/><path d="M262.5 211.5 270.5 203.5 308.5 203.5 308.5 227.5 300.5 235.5 262.5 235.5ZM262.5 211.5 300.5 211.5 308.5 203.5M300.5 211.5 300.5 235.5" stroke="#BC8C00" stroke-width="1.33333" stroke-miterlimit="8" fill="none" fill-rule="evenodd"/><rect x="302.5" y="211.5" width="38" height="24" fill="#FFC000"/><path d="M340.5 211.5 348.5 203.5 348.5 227.5 340.5 235.5Z" fill="#CD9A00" fill-rule="evenodd"/><path d="M302.5 211.5 310.5 203.5 348.5 203.5 340.5 211.5Z" fill="#FFCC32" fill-rule="evenodd"/><path d="M302.5 211.5 310.5 203.5 348.5 203.5 348.5 227.5 340.5 235.5 302.5 235.5ZM302.5 211.5 340.5 211.5 348.5 203.5M340.5 211.5 340.5 235.5" stroke="#BC8C00" stroke-width="1.33333" stroke-miterlimit="8" fill="none" fill-rule="evenodd"/><rect x="283.5" y="186.75" width="37.75" height="24.75" fill="#FFC000"/><path d="M321.25 186.75 329.5 178.5 329.5 203.25 321.25 211.5Z" fill="#CD9A00" fill-rule="evenodd"/><path d="M283.5 186.75 291.75 178.5 329.5 178.5 321.25 186.75Z" fill="#FFCC32" fill-rule="evenodd"/><path d="M283.5 186.75 291.75 178.5 329.5 178.5 329.5 203.25 321.25 211.5 283.5 211.5ZM283.5 186.75 321.25 186.75 329.5 178.5M321.25 186.75 321.25 211.5" stroke="#BC8C00" stroke-width="1.33333" stroke-miterlimit="8" fill="none" fill-rule="evenodd"/><path d="M250.5 167.5 268.833 167.5 268.833 167.5 296.333 167.5 360.5 167.5 360.5 214.75 360.5 214.75 360.5 235 360.5 248.5 296.333 248.5 297.831 268.053 268.833 248.5 250.5 248.5 250.5 235 250.5 214.75 250.5 214.75Z" stroke="#2F528F" stroke-width="1.33333" stroke-miterlimit="8" fill="none" fill-rule="evenodd"/><path d="M345.6 261.579C358.4 261.579 358.4 261.579 358.4 261.579 364 275 364 275 364 275 340 275 340 275 340 275L345.6 261.579ZM352 259.007C353.333 259.007 354.4 257.894 354.4 256.503 354.4 255.113 353.333 254 352 254 350.667 254 349.6 255.113 349.6 256.503 349.6 257.894 350.667 259.007 352 259.007ZM352 259.007C352 269.02 352 269.02 352 269.02M342.4 269.159C361.533 269.159 361.533 269.159 361.533 269.159M347.4 269.159C346.267 275 346.267 275 346.267 275M357.8 275C354.8 261.579 354.8 261.579 354.8 261.579M355.733 265.752C360.133 265.752 360.133 265.752 360.133 265.752" stroke="#000000" stroke-width="1.66667" stroke-linecap="square" stroke-miterlimit="8" fill="none" fill-rule="evenodd"/><path d="M548.6 267.219C561.4 267.219 561.4 267.219 561.4 267.219 567 280 567 280 567 280 543 280 543 280 543 280L548.6 267.219ZM555 264.768C556.333 264.768 557.4 263.709 557.4 262.384 557.4 261.06 556.333 260 555 260 553.667 260 552.6 261.06 552.6 262.384 552.6 263.709 553.667 264.768 555 264.768ZM555 264.768C555 274.305 555 274.305 555 274.305M545.4 274.437C564.533 274.437 564.533 274.437 564.533 274.437M550.4 274.437C549.267 280 549.267 280 549.267 280M560.8 280C557.8 267.219 557.8 267.219 557.8 267.219M558.733 271.192C563.133 271.192 563.133 271.192 563.133 271.192" stroke="#000000" stroke-width="1.66667" stroke-linecap="square" stroke-miterlimit="8" fill="none" fill-rule="evenodd"/><rect x="92" y="229" width="51" height="72" fill="#50E6FF"/><path d="M130 281 130 281 141 281 141 270 130 270 130 281Z" fill="#FFFFFF" fill-rule="evenodd"/><path d="M139.702 247.941 139.702 247.941 128.902 247.941 128.902 236.97 139.702 236.97 139.702 247.941ZM139.702 264.5 139.702 264.5 128.902 264.5 128.902 253.53 139.702 253.53 139.702 264.5ZM139.498 281.059 139.498 281.059 128.902 281.059 128.902 270.089 139.498 270.089 139.498 281.059ZM123.4 247.941 123.4 247.941 112.6 247.941 112.6 236.97 123.4 236.97 123.4 247.941ZM123.4 264.5 123.4 264.5 112.6 264.5 112.6 253.53 123.4 253.53 123.4 264.5ZM123.4 281.059 123.4 281.059 112.6 281.059 112.6 270.089 123.4 270.089 123.4 281.059ZM123.4 297.618 123.4 297.618 112.6 297.618 112.6 286.648 123.4 286.648 123.4 297.618ZM107.098 264.5 107.098 264.5 96.2981 264.5 96.2981 253.53 107.098 253.53 107.098 264.5ZM107.098 281.059 107.098 281.059 96.2981 281.059 96.2981 270.089 107.098 270.089 107.098 281.059ZM91 303 91 303 145 303 145 226 91 226 91 303Z" fill="#0072C6" fill-rule="evenodd"/><rect x="603" y="288" width="42" height="18"/><path d="M606.451 305.49 606.451 305.49 606.318 291.71 641.682 291.71 641.815 305.49 606.451 305.49ZM641.682 283 641.682 283C641.682 284.95 640.087 286.51 638.092 286.51 636.231 286.51 634.636 284.95 634.636 283 634.636 284.95 633.04 286.51 631.046 286.51 629.052 286.51 627.59 284.95 627.457 283 627.457 284.95 625.861 286.51 624 286.51 622.006 286.51 620.41 284.95 620.41 283 620.41 284.95 618.815 286.51 616.954 286.51 614.96 286.51 613.364 284.95 613.364 283 613.364 284.95 611.769 286.51 609.775 286.51 607.913 286.51 606.318 284.95 606.318 283 606.185 284.95 604.723 286.51 602.728 286.51 602.064 286.51 601.532 286.25 601 285.99L601 309 647 309 647 285.99C646.468 286.25 645.936 286.51 645.272 286.51 643.277 286.51 641.682 284.95 641.682 283Z" fill="#0072C6" fill-rule="evenodd"/><path d="M607 279 607 279 607 282.434 607 282.434C606.852 284.415 605.222 286 603 286 602.259 286 601.667 285.736 601.074 285.472 599.889 284.943 599 283.755 599 282.434L599 279 607 279Z" fill="#50E6FF" fill-rule="evenodd"/><path d="M614 279 614 279 614 282.434 614 282.434C614 284.415 612.415 286 610.434 286 608.585 286 607 284.415 607 282.434L607 282.434 607 279 614 279Z" fill="#50E6FF" fill-rule="evenodd"/><path d="M621 279 621 279 621 282.434 621 282.434C621 284.415 619.415 286 617.434 286 615.585 286 614 284.415 614 282.434 614 282.434 614 282.434 614 282.434L614 279 621 279Z" fill="#50E6FF" fill-rule="evenodd"/><path d="M628 282.434 628 282.434C628 284.415 626.415 286 624.566 286 622.585 286 621 284.415 621 282.434L621 282.434 621 279 628 279 628 282.434C628 282.434 628 282.434 628 282.434Z" fill="#50E6FF" fill-rule="evenodd"/><path d="M635 279 635 279 635 282.434 635 282.434C635 284.415 633.415 286 631.434 286 629.585 286 628 284.415 628 282.434L628 282.434 628 279 635 279Z" fill="#50E6FF" fill-rule="evenodd"/><path d="M642 279 642 279 642 282.434 642 282.434C642 284.415 640.415 286 638.434 286 636.585 286 635 284.415 635 282.434L635 282.434 635 279 642 279Z" fill="#50E6FF" fill-rule="evenodd"/><path d="M649 282.434 649 282.434C649 283.755 648.34 284.943 647.283 285.472 646.755 285.736 646.094 286 645.566 286 643.585 286 642 284.415 642 282.434L642 282.434 642 279 649 279 649 282.434Z" fill="#50E6FF" fill-rule="evenodd"/><path d="M649 279 649 279 599 279 606.239 268.5 622.324 268.5 622.324 266.663 609.724 266.663 609.724 258 638.276 258 638.276 266.663 625.81 266.663 625.81 268.5 641.895 268.5 649 279Z" fill="#50E6FF" fill-rule="evenodd"/><g clip-path="url(#clip1)"><g clip-path="url(#clip2)"><g clip-path="url(#clip3)"><path d="M65.6296 4331.89C60.0298 4333.23 56.7819 4339.39 58.3498 4345.66 59.9178 4351.94 65.6296 4355.74 71.2294 4354.4 76.8292 4353.06 80.077 4346.9 78.5091 4340.62 76.9412 4334.46 71.2294 4330.54 65.6296 4331.89Z" fill="#00188F" transform="matrix(1 0 0 1.00101 586.048 -4054.31)"/><path d="M85.6768 4343.2C84.6689 4343.09 83.4369 4345.1 81.869 4345.89 80.301 4346.56 78.6211 4348.02 74.1413 4345.89 69.6614 4343.76 68.9895 4341.97 65.1816 4341.97 61.3737 4341.97 55.326 4348.69 55.214 4358.43L93.2926 4358.43C93.1806 4358.43 92.8446 4351.71 90.7167 4348.13 88.1407 4343.31 86.7968 4343.2 85.6768 4343.2Z" fill="#00188F" transform="matrix(1 0 0 1.00101 577.975 -4041.4)"/></g></g></g><text font-family="Yu Gothic,Yu Gothic_MSFontService,sans-serif" font-weight="400" font-size="13" transform="translate(88.5757 326)">Company</text><path d="M0 0.333333-24 0.333333-23.6667 0-23.6667 535.904-24 535.57 6.30625 535.57 6.30625 536.237-24.3334 536.237-24.3334-0.333333 0-0.333333ZM4.97291 531.904 12.9729 535.904 4.97291 539.904Z" fill="#4472C4" transform="matrix(-6.12323e-17 -1 -1 6.12323e-17 653.404 348.473)"/><text font-family="Yu Gothic,Yu Gothic_MSFontService,sans-serif" font-weight="400" font-size="13" transform="translate(241.219 367)">Order<tspan font-size="13" x="8.40314" y="-46">Cooling Container </tspan><tspan font-size="13" x="46.0698" y="-30">Truck</tspan><tspan font-size="13" x="240.092" y="-39">Delivery Truck</tspan></text></g></svg>