<svg width="1023" height="693" xmlns="http://www.w3.org/2000/svg" xmlns:xlink="http://www.w3.org/1999/xlink" overflow="hidden"><defs><clipPath id="clip0"><rect x="75" y="81" width="1023" height="693"/></clipPath></defs><g clip-path="url(#clip0)" transform="translate(-75 -81)"><rect x="77.5001" y="222.5" width="162" height="103" stroke="#000000" stroke-width="1.33333" stroke-miterlimit="8" fill="none"/><text font-family="Yu Gothic,Yu Gothic_MSFontService,sans-serif" font-weight="400" font-size="13" transform="translate(128.106 239)">Customer<tspan font-size="13" x="-41.9133" y="16">* Customer Id</tspan><tspan font-size="13" x="-34.2467" y="32">Name</tspan><tspan font-size="13" x="-34.2467" y="48">Address</tspan><tspan font-size="13" x="-34.2467" y="64">Tel No</tspan></text><rect x="342.5" y="222.5" width="162" height="103" stroke="#000000" stroke-width="1.33333" stroke-miterlimit="8" fill="none"/><text font-family="Yu Gothic,Yu Gothic_MSFontService,sans-serif" font-weight="400" font-size="13" transform="translate(405.536 239)">Order<tspan font-size="13" x="-54.4133" y="16">* Order Id</tspan><tspan font-size="13" x="-46.7467" y="32">Status</tspan></text><rect x="586.5" y="213.5" width="163" height="121" stroke="#000000" stroke-width="1.33333" stroke-miterlimit="8" fill="none"/><text font-family="Yu Gothic,Yu Gothic_MSFontService,sans-serif" font-weight="400" font-size="13" transform="translate(643.569 230)">Product<tspan font-size="13" x="-47.7466" y="16">* Product Id</tspan><tspan font-size="13" x="-40.08" y="32">現在温度</tspan><tspan font-size="13" x="-40.08" y="48">許容最高温度</tspan><tspan font-size="13" x="-40.08" y="64">許容最低温度</tspan><tspan font-size="13" x="-40.08" y="80">位置</tspan><tspan font-size="13" x="-40.08" y="96">Statu</tspan><tspan font-size="13" x="-7.24664" y="96">s</tspan></text><rect x="464.5" y="82.5001" width="163" height="103" stroke="#000000" stroke-width="1.33333" stroke-miterlimit="8" fill="none"/><text font-family="Yu Gothic,Yu Gothic_MSFontService,sans-serif" font-weight="400" font-size="13" transform="translate(522.59 99)">Factory<tspan font-size="13" x="-48.7466" y="16">* Factor</tspan><tspan font-size="13" x="0.919983" y="16">y</tspan><tspan font-size="13" x="11.2534" y="16">Id</tspan></text><rect x="342.5" y="442.5" width="162" height="103" stroke="#000000" stroke-width="1.33333" stroke-miterlimit="8" fill="none"/><text font-family="Yu Gothic,Yu Gothic_MSFontService,sans-serif" font-weight="400" font-size="13" transform="translate(400.956 459)">Station<tspan font-size="13" x="-49.8333" y="16">* Station Id</tspan></text><rect x="633.5" y="442.5" width="163" height="103" stroke="#000000" stroke-width="1.33333" stroke-miterlimit="8" fill="none"/><text font-family="Yu Gothic,Yu Gothic_MSFontService,sans-serif" font-weight="400" font-size="13" transform="translate(670.033 459)">Delivery Truck<tspan font-size="13" x="-27.58" y="16">* Truck Id</tspan><tspan font-size="13" x="-19.9134" y="32">Status</tspan></text><path d="M239.5 274.5 341.669 274.5" stroke="#000000" stroke-width="1.33333" stroke-miterlimit="8" fill="none" fill-rule="evenodd"/><path d="M504.5 274.5 586.438 274.761" stroke="#000000" stroke-width="1.33333" stroke-miterlimit="8" fill="none" fill-rule="evenodd"/><path d="M423.5 223.028 423.5 134.5 464.84 134.5" stroke="#000000" stroke-width="1.33333" stroke-miterlimit="8" fill="none" fill-rule="evenodd"/><path d="M0 0 79.7686 0 79.7686 40.5979" stroke="#000000" stroke-width="1.33333" stroke-miterlimit="8" fill="none" fill-rule="evenodd" transform="matrix(-1.83697e-16 -1 -1 1.83697e-16 668.098 214.269)"/><path d="M342.05 493.784 158.5 493.784 158.5 325.5" stroke="#000000" stroke-width="1.33333" stroke-miterlimit="8" fill="none" fill-rule="evenodd"/><path d="M504.5 493.5 633.069 493.5" stroke="#000000" stroke-width="1.33333" stroke-miterlimit="8" fill="none" fill-rule="evenodd"/><rect x="839.5" y="442.5" width="189" height="103" stroke="#000000" stroke-width="1.33333" stroke-miterlimit="8" fill="none"/><text font-family="Yu Gothic,Yu Gothic_MSFontService,sans-serif" font-weight="400" font-size="13" transform="translate(859.238 459)">Cooling Container Truck<tspan font-size="13" x="-10.2467" y="16">* Truck Id</tspan><tspan font-size="13" x="-2.58002" y="32">Container Temperature</tspan></text><rect x="839.5" y="222.5" width="180" height="103" stroke="#000000" stroke-width="1.33333" stroke-miterlimit="8" fill="none"/><text font-family="Yu Gothic,Yu Gothic_MSFontService,sans-serif" font-weight="400" font-size="13" transform="translate(889.658 239)">Temperature <tspan font-size="13" x="-25.8333" y="16">Measurement Device</tspan><tspan font-size="13" x="-40.6667" y="32">* Device Id</tspan><tspan font-size="13" x="-33" y="48">Temperature &lt;&lt;T&gt;&gt;</tspan><tspan font-size="13" x="-33" y="64">Measured</tspan><tspan font-size="13" x="32.6667" y="64">Time</tspan><tspan font-size="13" x="67.3333" y="64">&lt;&lt;T&gt;</tspan><tspan font-size="13" x="104.667" y="64">&gt;</tspan></text><path d="M0 0 90.4071 0.261102" stroke="#000000" stroke-width="1.33333" stroke-miterlimit="8" fill="none" fill-rule="evenodd" transform="matrix(1 0 0 -1 749.5 274.761)"/><rect x="753.5" y="595.5" width="163" height="125" stroke="#000000" stroke-width="1.33333" stroke-miterlimit="8" fill="none"/><text font-family="Yu Gothic,Yu Gothic_MSFontService,sans-serif" font-weight="400" font-size="13" transform="translate(817.151 612)">Truck<tspan font-size="13" x="-54.4133" y="16">* Truck Id</tspan><tspan font-size="13" x="-46.7467" y="32">Location</tspan><tspan font-size="13" x="-46.7467" y="48">Longitude&lt;&lt;T&gt;&gt;</tspan><tspan font-size="13" x="-46.7467" y="64">Latitude&lt;&lt;T&gt;&gt;</tspan><tspan font-size="13" x="-46.7467" y="80">Attitude&lt;&lt;T&gt;&gt;</tspan><tspan font-size="13" x="-46.7467" y="96">Measured Time</tspan></text><path d="M0 19 11.5 0 23 19Z" stroke="#000000" stroke-width="1.33333" stroke-miterlimit="8" fill="none" fill-rule="evenodd" transform="matrix(1 0 0 -1 823.5 595.5)"/><path d="M0 0 15.3977 0 15.3977 120.284 30.7954 120.284" stroke="#000000" stroke-width="1.33333" stroke-miterlimit="8" fill="none" fill-rule="evenodd" transform="matrix(-1.83697e-16 -1 -1 1.83697e-16 834.784 576.295)"/><path d="M835.5 576.295 835.5 560.898 934.546 560.898 934.546 545.5" stroke="#000000" stroke-width="1.33333" stroke-miterlimit="8" fill="none" fill-rule="evenodd"/><text font-family="Yu Gothic,Yu Gothic_MSFontService,sans-serif" font-weight="400" font-size="13" transform="translate(858.063 586)">{complete, disjoint}</text><path d="M469.5 544.911 469.5 745.009 1052.54 745.009 1052.54 493.5 1028.54 493.5" stroke="#000000" stroke-width="1.33333" stroke-miterlimit="8" fill="none" fill-rule="evenodd"/><text font-family="Yu Gothic,Yu Gothic_MSFontService,sans-serif" font-weight="400" font-size="13" transform="translate(475.94 568)">0..1 drive to<tspan font-size="13" x="567.956" y="-84">*</tspan><tspan font-size="13" x="140.73" y="-76">*</tspan><tspan font-size="13" x="97.475" y="-57">assign to</tspan><tspan font-size="13" x="339.334" y="-300">0..1</tspan><tspan font-size="13" x="281.172" y="-300">0..1</tspan><tspan font-size="13" x="281.172" y="-284">target</tspan><tspan font-size="13" x="89.6375" y="-299">0..1</tspan><tspan font-size="13" x="64.8041" y="-283">created</tspan><tspan font-size="13" x="33.0907" y="-299">1</tspan><tspan font-size="13" x="202.866" y="-358">*</tspan><tspan font-size="13" x="160.381" y="-460">1</tspan><tspan font-size="13" x="160.381" y="-444">is created at</tspan><tspan font-size="13" x="-26.1804" y="-434">1</tspan><tspan font-size="13" x="-108.68" y="-418">is assigned for</tspan><tspan font-size="13" x="-63.207" y="-354">*</tspan><tspan font-size="13" x="-305.388" y="-229">responsible for</tspan><tspan font-size="13" x="-332.745" y="-226">*</tspan><tspan font-size="13" x="-151.61" y="-81">1</tspan><tspan font-size="13" x="36.3345" y="-84">1</tspan><tspan font-size="13" x="-148.306" y="-296">*</tspan><tspan font-size="13" x="-231.182" y="-300">1</tspan><tspan font-size="13" x="-234.136" y="-276">ordered by</tspan></text><path d="M381.5 544.846 381.5 773.218 1096.89 773.218 1096.89 274.5 1019.88 274.5" stroke="#000000" stroke-width="1.33333" stroke-miterlimit="8" fill="none" fill-rule="evenodd"/><text font-family="Yu Gothic,Yu Gothic_MSFontService,sans-serif" font-weight="400" font-size="13" transform="translate(1024.97 290)">assign to<tspan font-size="13" x="-656.597" y="274">1</tspan><tspan font-size="13" x="5.12134" y="-23">*</tspan></text><path d="M423.5 442.671 423.5 411.466 624.519 411.466 624.519 335.5" stroke="#000000" stroke-width="1.33333" stroke-miterlimit="8" fill="none" fill-rule="evenodd"/><path d="M0 0 71.4507 0 71.4507 90.4072 107.564 90.4072" stroke="#000000" stroke-width="1.33333" stroke-miterlimit="8" fill="none" fill-rule="evenodd" transform="matrix(-1.83697e-16 -1 -1 1.83697e-16 758.907 442.064)"/><path d="M0 0 84.2887 0 84.2887 212.181 106.148 212.181" stroke="#000000" stroke-width="1.33333" stroke-miterlimit="8" fill="none" fill-rule="evenodd" transform="matrix(-1.83697e-16 -1 -1 1.83697e-16 933.681 442.648)"/><text font-family="Yu Gothic,Yu Gothic_MSFontService,sans-serif" font-weight="400" font-size="13" transform="translate(940.676 436)">0..1<tspan font-size="13" x="-170.144" y="1">0..1</tspan><tspan font-size="13" x="-511.095" y="3">0..1</tspan><tspan font-size="13" x="-208.956" y="-88">carrying</tspan><tspan font-size="13" x="-286.742" y="-77">carrying</tspan><tspan font-size="13" x="-368.575" y="-83">staying</tspan><tspan font-size="13" x="-311.884" y="-79">*</tspan><tspan font-size="13" x="-286.699" y="-87">*</tspan><tspan font-size="13" x="-232.392" y="-84">*</tspan></text></g></svg>