<svg width="809" height="270" xmlns="http://www.w3.org/2000/svg" xmlns:xlink="http://www.w3.org/1999/xlink" overflow="hidden"><defs><clipPath id="clip0"><rect x="97" y="392" width="809" height="270"/></clipPath><clipPath id="clip1"><rect x="832" y="554" width="56" height="48"/></clipPath><clipPath id="clip2"><rect x="831" y="554" width="57" height="48"/></clipPath><clipPath id="clip3"><rect x="737" y="454" width="243" height="243"/></clipPath></defs><g clip-path="url(#clip0)" transform="translate(-97 -392)"><rect x="329.5" y="575.75" width="37.75" height="24.75" fill="#FFC000"/><path d="M367.25 575.75 375.5 567.5 375.5 592.25 367.25 600.5Z" fill="#CD9A00" fill-rule="evenodd"/><path d="M329.5 575.75 337.75 567.5 375.5 567.5 367.25 575.75Z" fill="#FFCC32" fill-rule="evenodd"/><path d="M329.5 575.75 337.75 567.5 375.5 567.5 375.5 592.25 367.25 600.5 329.5 600.5ZM329.5 575.75 367.25 575.75 375.5 567.5M367.25 575.75 367.25 600.5" stroke="#BC8C00" stroke-width="1.33333" stroke-miterlimit="8" fill="none" fill-rule="evenodd"/><rect x="118" y="535" width="51" height="72" fill="#50E6FF"/><path d="M156 587 156 587 167 587 167 576 156 576 156 587Z" fill="#FFFFFF" fill-rule="evenodd"/><path d="M165.702 554.656 165.702 554.656 154.902 554.656 154.902 543.828 165.702 543.828 165.702 554.656ZM165.702 571 165.702 571 154.902 571 154.902 560.172 165.702 560.172 165.702 571ZM165.498 587.344 165.498 587.344 154.902 587.344 154.902 576.516 165.498 576.516 165.498 587.344ZM149.4 554.656 149.4 554.656 138.6 554.656 138.6 543.828 149.4 543.828 149.4 554.656ZM149.4 571 149.4 571 138.6 571 138.6 560.172 149.4 560.172 149.4 571ZM149.4 587.344 149.4 587.344 138.6 587.344 138.6 576.516 149.4 576.516 149.4 587.344ZM149.4 603.688 149.4 603.688 138.6 603.688 138.6 592.86 149.4 592.86 149.4 603.688ZM133.098 571 133.098 571 122.298 571 122.298 560.172 133.098 560.172 133.098 571ZM133.098 587.344 133.098 587.344 122.298 587.344 122.298 576.516 133.098 576.516 133.098 587.344ZM117 609 117 609 171 609 171 533 117 533 117 609Z" fill="#0072C6" fill-rule="evenodd"/><path d="M233 576.391 244.629 576.236 243.686 558 234.1 558Z" fill="#0072C6" fill-rule="evenodd"/><path d="M234.45 551 234 558.2 243.15 558.2 242.7 551Z" fill="#50E6FF" fill-rule="evenodd"/><path d="M253 577.236 264.472 577.236 263.529 559 253.943 559Z" fill="#0072C6" fill-rule="evenodd"/><path d="M254.45 551 254 559.575 263.15 559.575 262.85 551Z" fill="#50E6FF" fill-rule="evenodd"/><path d="M272 576.391 283.629 576.236 282.686 558 273.1 558Z" fill="#0072C6" fill-rule="evenodd"/><path d="M273.5 551 273 558.2 283.167 558.2 282.667 551Z" fill="#50E6FF" fill-rule="evenodd"/><path d="M220 576 220 608.55 244.066 608.55 244.066 597.855 256.021 597.855 256.021 608.55 280.242 608.55 280.242 576Z" fill="#7F7F7F" fill-rule="evenodd"/><path d="M230 585 233.6 585 233.6 589.8 230 589.8Z" fill-rule="evenodd"/><path d="M240 585 243.6 585 243.6 589.8 240 589.8Z" fill-rule="evenodd"/><path d="M250 585 253.6 585 253.6 589.8 250 589.8Z" fill-rule="evenodd"/><path d="M260 585 263.6 585 263.6 589.8 260 589.8Z" fill-rule="evenodd"/><path d="M270 585 273.6 585 273.6 589.8 270 589.8Z" fill-rule="evenodd"/><path d="M280 576 296.32 576 296.32 609.629 280 609.629Z" fill="#5B5C5E" fill-rule="evenodd"/><path d="M418 563 418 602.65 422.498 602.65C422.774 599.121 425.62 596.336 429.2 596.336 432.78 596.336 435.626 599.121 435.902 602.65L474 602.65 474 563 418 563Z" fill-rule="evenodd"/><path d="M433.54 602.77C433.54 605.404 431.404 607.54 428.77 607.54 426.136 607.54 424 605.404 424 602.77 424 600.136 426.136 598 428.77 598 431.404 598 433.54 600.136 433.54 602.77Z" fill="#0072C6" fill-rule="evenodd"/><path d="M494.364 587.503C494.364 578.385 487 571 477.909 571L474 571 474 602.638 477.364 602.638C477.546 599.082 480.454 596.256 484 596.256 487.546 596.256 490.454 599.082 490.636 602.638L494.273 602.638 494.273 587.503ZM489.182 584.038 480.818 584.038 480.818 575.376C485.455 575.376 489.182 579.115 489.182 583.765L489.182 584.038Z" fill-rule="evenodd"/><path d="M488.54 602.77C488.54 605.404 486.404 607.54 483.77 607.54 481.136 607.54 479 605.404 479 602.77 479 600.136 481.136 598 483.77 598 486.404 598 488.54 600.136 488.54 602.77Z" fill="#0072C6" fill-rule="evenodd"/><path d="M556 601 556 601 560 601 560 583 556 583 556 601Z" fill="#0072C6" fill-rule="evenodd"/><path d="M539 601 539 601 543 601 543 583 539 583 539 601Z" fill="#0072C6" fill-rule="evenodd"/><path d="M577 583 577 583 573 583 573 601 577 601 577 583Z" fill="#0072C6" fill-rule="evenodd"/><path d="M530 601 530 601 534.28 601 534.28 578.832 546.96 578.832 546.96 601 551.239 601 551.239 578.832 563.919 578.832 563.919 601 568.04 601 568.04 578.832 580.72 578.832 580.72 601 585 601 585 570.858 557.579 564 530 570.858 530 601Z" fill="#0072C6" fill-rule="evenodd"/><path d="M685.983 598.963C685.983 597.141 687.364 595.926 688.942 595.926 690.519 595.926 691.9 597.141 691.9 598.963 691.9 600.583 690.519 602 688.942 602 687.364 602 685.983 600.583 685.983 598.963ZM643.778 602C645.356 602 646.736 600.583 646.736 598.963 646.736 597.141 645.356 595.926 643.778 595.926 642.2 595.926 640.819 597.141 640.819 598.963 640.819 600.583 642.2 602 643.778 602ZM696.239 598.963C696.239 591.27 696.239 591.27 696.239 591.27 696.239 589.853 695.056 588.638 693.675 588.638 668.825 588.638 668.825 588.638 668.825 588.638M646.736 598.963C685.983 598.963 685.983 598.963 685.983 598.963M691.9 598.963C699 598.963 699 598.963 699 598.963M668.825 598.963C668.825 569 668.825 569 668.825 569 632.339 569 632.339 569 632.339 569 632.339 598.963 632.339 598.963 632.339 598.963 640.819 598.963 640.819 598.963 640.819 598.963M686.181 588.638C677.503 579.528 677.503 579.528 677.503 579.528 668.825 579.528 668.825 579.528 668.825 579.528M632.339 595.926C628 595.926 628 595.926 628 595.926" stroke="#000000" stroke-width="1.66667" stroke-miterlimit="8" fill="#A9D18E" fill-rule="evenodd"/><g clip-path="url(#clip1)"><g clip-path="url(#clip2)"><g clip-path="url(#clip3)"><path d="M65.6296 4331.89C60.0298 4333.23 56.7819 4339.39 58.3498 4345.66 59.9178 4351.94 65.6296 4355.74 71.2294 4354.4 76.8292 4353.06 80.077 4346.9 78.5091 4340.62 76.9412 4334.46 71.2294 4330.54 65.6296 4331.89Z" fill="#00188F" transform="matrix(1 0 0 1.00101 794.048 -3779.31)"/><path d="M85.6768 4343.2C84.6689 4343.09 83.4369 4345.1 81.869 4345.89 80.301 4346.56 78.6211 4348.02 74.1413 4345.89 69.6614 4343.76 68.9895 4341.97 65.1816 4341.97 61.3737 4341.97 55.326 4348.69 55.214 4358.43L93.2926 4358.43C93.1806 4358.43 92.8446 4351.71 90.7167 4348.13 88.1407 4343.31 86.7968 4343.2 85.6768 4343.2Z" fill="#00188F" transform="matrix(1 0 0 1.00101 785.975 -3766.4)"/></g></g></g><rect x="741.5" y="593.719" width="46.7816" height="2.78156" fill="#4472C4"/><path d="M788.282 593.719 796.5 585.5 796.5 588.282 788.282 596.5Z" fill="#375C9E" fill-rule="evenodd"/><path d="M741.5 593.719 749.719 585.5 796.5 585.5 788.282 593.719Z" fill="#698ED0" fill-rule="evenodd"/><path d="M741.5 593.719 749.719 585.5 796.5 585.5 796.5 588.282 788.282 596.5 741.5 596.5ZM741.5 593.719 788.282 593.719 796.5 585.5M788.282 593.719 788.282 596.5" stroke="#2F528F" stroke-width="1.33333" stroke-miterlimit="8" fill="none" fill-rule="evenodd"/><text font-family="Yu Gothic,Yu Gothic_MSFontService,sans-serif" font-weight="400" font-size="13" transform="translate(110.901 627)">Company<tspan font-size="13" x="116.851" y="0">Factory</tspan><tspan font-size="13" x="207.973" y="0">Product</tspan><tspan font-size="13" x="289.184" y="-4">Cooling Container </tspan><tspan font-size="13" x="326.851" y="12">Truck</tspan><tspan font-size="13" x="507.594" y="-7">Delivery Truck</tspan><tspan font-size="13" x="428.489" y="-3">Station</tspan><tspan font-size="13" x="618.229" y="-7">Temperature </tspan><tspan font-size="13" x="604.149" y="9">measuring device</tspan><tspan font-size="13" x="721.355" y="-10">Customer</tspan><tspan fill="#FF0000" font-size="128" x="370.118" y="-78">?</tspan></text></g></svg>