<svg width="369" height="263" xmlns="http://www.w3.org/2000/svg" xmlns:xlink="http://www.w3.org/1999/xlink" overflow="hidden"><defs><clipPath id="clip0"><rect x="741" y="440" width="369" height="263"/></clipPath><clipPath id="clip1"><rect x="767" y="478" width="62" height="63"/></clipPath><clipPath id="clip2"><rect x="767" y="478" width="62" height="63"/></clipPath><clipPath id="clip3"><rect x="767" y="478" width="62" height="63"/></clipPath><linearGradient x1="31.4478" y1="64.79" x2="30.4833" y2="-27.9" gradientUnits="userSpaceOnUse" spreadMethod="pad" id="fill4"><stop offset="0" stop-color="#198AB3"/><stop offset="0" stop-color="#198AB3"/><stop offset="0.09" stop-color="#22A5CB"/><stop offset="0.19" stop-color="#29BADE"/><stop offset="0.29" stop-color="#2EC9EB"/><stop offset="0.42" stop-color="#31D1F3"/><stop offset="0.62" stop-color="#32D4F5"/><stop offset="1" stop-color="#32D4F5"/></linearGradient><clipPath id="clip5"><rect x="912" y="478" width="63" height="63"/></clipPath><clipPath id="clip6"><rect x="912" y="478" width="63" height="63"/></clipPath><clipPath id="clip7"><rect x="912" y="478" width="63" height="63"/></clipPath><linearGradient x1="943.938" y1="537" x2="943.938" y2="481.144" gradientUnits="userSpaceOnUse" spreadMethod="pad" id="fill8"><stop offset="0" stop-color="#FEA11B"/><stop offset="0.284" stop-color="#FEA51A"/><stop offset="0.547" stop-color="#FEB018"/><stop offset="0.8" stop-color="#FFC314"/><stop offset="1" stop-color="#FFD70F"/></linearGradient><clipPath id="clip9"><rect x="767" y="604" width="62" height="63"/></clipPath><clipPath id="clip10"><rect x="767" y="604" width="62" height="63"/></clipPath><clipPath id="clip11"><rect x="767" y="604" width="62" height="63"/></clipPath><linearGradient x1="31.4478" y1="64.79" x2="30.4833" y2="-27.9" gradientUnits="userSpaceOnUse" spreadMethod="pad" id="fill12"><stop offset="0" stop-color="#198AB3"/><stop offset="0" stop-color="#198AB3"/><stop offset="0.09" stop-color="#22A5CB"/><stop offset="0.19" stop-color="#29BADE"/><stop offset="0.29" stop-color="#2EC9EB"/><stop offset="0.42" stop-color="#31D1F3"/><stop offset="0.62" stop-color="#32D4F5"/><stop offset="1" stop-color="#32D4F5"/></linearGradient><clipPath id="clip13"><rect x="1016" y="604" width="63" height="63"/></clipPath><clipPath id="clip14"><rect x="1016" y="604" width="63" height="63"/></clipPath><clipPath id="clip15"><rect x="1016" y="604" width="63" height="63"/></clipPath><linearGradient x1="1047.94" y1="663" x2="1047.94" y2="607.144" gradientUnits="userSpaceOnUse" spreadMethod="pad" id="fill16"><stop offset="0" stop-color="#FEA11B"/><stop offset="0.284" stop-color="#FEA51A"/><stop offset="0.547" stop-color="#FEB018"/><stop offset="0.8" stop-color="#FFC314"/><stop offset="1" stop-color="#FFD70F"/></linearGradient><clipPath id="clip17"><rect x="866" y="604" width="63" height="63"/></clipPath><clipPath id="clip18"><rect x="866" y="604" width="63" height="63"/></clipPath><clipPath id="clip19"><rect x="866" y="604" width="63" height="63"/></clipPath></defs><g clip-path="url(#clip0)" transform="translate(-741 -440)"><g clip-path="url(#clip1)"><g clip-path="url(#clip2)"><g clip-path="url(#clip3)"><path d="M46.0522 29.0711C46.0522 32.8187 43.0142 35.8567 39.2667 35.8567 35.5191 35.8567 32.4811 32.8187 32.4811 29.0711 32.4811 25.3236 35.5191 22.2856 39.2667 22.2856 43.0142 22.2856 46.0522 25.3236 46.0522 29.0711Z" fill="#FFFFFF" transform="matrix(1 0 0 1.01613 767 478)"/><path d="M55.9722 49.2556C55.9722 52.2041 53.5819 54.5944 50.6333 54.5944 47.6847 54.5944 45.2944 52.2041 45.2944 49.2556 45.2944 46.307 47.6847 43.9167 50.6333 43.9167 53.5819 43.9167 55.9722 46.307 55.9722 49.2556Z" fill="#FFFFFF" transform="matrix(1 0 0 1.01613 767 478)"/><path d="M34.1 45.6044C34.1 48.1345 32.049 50.1856 29.5189 50.1856 26.9888 50.1856 24.9378 48.1345 24.9378 45.6044 24.9378 43.0744 26.9888 41.0233 29.5189 41.0233 32.049 41.0233 34.1 43.0744 34.1 45.6044Z" fill="#FFFFFF" transform="matrix(1 0 0 1.01613 767 478)"/><path d="M31.8956 10.7122C31.8956 13.851 29.351 16.3956 26.2122 16.3956 23.0734 16.3956 20.5289 13.851 20.5289 10.7122 20.5289 7.5734 23.0734 5.02889 26.2122 5.02889 29.351 5.02889 31.8956 7.5734 31.8956 10.7122Z" fill="#FFFFFF" transform="matrix(1 0 0 1.01613 767 478)"/><path d="M15.5689 31.6544C15.5689 34.1845 13.5179 36.2356 10.9878 36.2356 8.4577 36.2356 6.40667 34.1845 6.40667 31.6544 6.40667 29.1244 8.4577 27.0733 10.9878 27.0733 13.5179 27.0733 15.5689 29.1244 15.5689 31.6544Z" fill="#FFFFFF" transform="matrix(1 0 0 1.01613 767 478)"/><path d="M51.8733 48.1878 40.4033 28.1067 39.2667 28.7611 40.1967 28.0722 27.2111 9.61 24.8344 11.3322 36.3389 27.6933 10.85 29.7944 11.0911 32.7567 36.3389 30.6556 27.9689 44.5711 30.4833 46.0867 39.0944 31.7578 49.3244 49.6344 51.8733 48.1878Z" fill="#949494" transform="matrix(1 0 0 1.01613 767 478)"/><path d="M60.3811 4.23667 60.3811 4.23667C60.3811 2.84798 59.2554 1.72222 57.8667 1.72222L44.7778 1.72222C44.0929 1.72222 43.5378 2.27739 43.5378 2.96222L43.5378 7.81889C43.5378 8.50372 44.0929 9.05889 44.7778 9.05889L52.8722 9.05889 52.8722 16.9811C52.8903 17.6773 53.4504 18.2375 54.1467 18.2556L58.9689 18.2556C59.6651 18.2375 60.2252 17.6773 60.2433 16.9811L60.2433 4.23667Z" fill="#949494" transform="matrix(1 0 0 1.01613 767 478)"/><path d="M17.2222 52.9411 8.99 52.9411 8.99 45.0189C8.97191 44.3227 8.41178 43.7625 7.71556 43.7444L2.89333 43.7444C2.19711 43.7625 1.63698 44.3227 1.61889 45.0189L1.61889 57.7633 1.61889 57.7633C1.63773 59.1386 2.75798 60.2435 4.13333 60.2433L17.2222 60.2433C17.9071 60.2433 18.4622 59.6882 18.4622 59.0033L18.4622 54.1811C18.4622 53.4963 17.9071 52.9411 17.2222 52.9411Z" fill="#949494" transform="matrix(1 0 0 1.01613 767 478)"/><path d="M39.2667 22.3544C43.0713 22.3556 46.1546 25.4409 46.1534 29.2455 46.1522 33.0501 43.067 36.1334 39.2624 36.1322 35.4577 36.131 32.3744 33.0458 32.3756 29.2412 32.3756 29.1845 32.3764 29.1278 32.3778 29.0711 32.4712 25.3339 35.5283 22.3533 39.2667 22.3544ZM20.6667 10.7122C20.6486 13.87 23.1938 16.4446 26.3516 16.4627 29.5094 16.4808 32.0839 13.9356 32.102 10.7778 32.1201 7.62001 29.5749 5.04543 26.4171 5.02733 26.3603 5.027 26.3035 5.02752 26.2467 5.02889 23.1483 5.08523 20.6662 7.61332 20.6667 10.7122ZM6.40667 31.62C6.40667 34.1501 8.4577 36.2011 10.9878 36.2011 13.5179 36.2011 15.5689 34.1501 15.5689 31.62 15.5689 29.0899 13.5179 27.0389 10.9878 27.0389 8.4577 27.0389 6.40667 29.0899 6.40667 31.62ZM24.9378 45.57C24.9188 48.119 26.9697 50.2008 29.5188 50.2199 32.0678 50.2389 34.1496 48.1879 34.1686 45.6389 34.1877 43.0899 32.1367 41.008 29.5876 40.989 29.5762 40.9889 29.5648 40.9889 29.5533 40.9889 27.0233 40.9699 24.9569 43.0054 24.9379 45.5354 24.9378 45.5469 24.9378 45.5585 24.9378 45.57ZM45.3289 49.2556C45.3099 52.2041 47.6847 54.6098 50.6332 54.6288 53.5817 54.6478 55.9874 52.273 56.0064 49.3244 56.0255 46.3759 53.6506 43.9702 50.7021 43.9512 50.6907 43.9512 50.6792 43.9511 50.6678 43.9511 47.7575 43.913 45.3673 46.2414 45.3292 49.1517 45.3288 49.1863 45.3287 49.2209 45.3289 49.2556Z" fill="url(#fill4)" transform="matrix(1 0 0 1.01613 767 478)"/></g></g></g><path d="M829 508 905.121 508 905.121 510 829 510ZM903.788 505 911.788 509 903.788 513Z" fill="#4472C4"/><g clip-path="url(#clip5)"><g clip-path="url(#clip6)"><g clip-path="url(#clip7)"><path d="M931.391 523.868 929.34 525.925C928.976 526.29 928.384 526.291 928.019 525.927L912.782 510.733C912.052 510.005 912.05 508.824 912.778 508.094L914.839 506.027 914.839 506.027 931.4 522.541C931.765 522.906 931.766 523.497 931.401 523.863Z" fill="#50E6FF"/><path d="M929.022 493.067 931.086 495.126C931.452 495.49 931.453 496.082 931.088 496.447L914.819 512.762 914.819 512.762 912.752 510.701C912.023 509.974 912.021 508.793 912.748 508.063L927.705 493.064C928.07 492.703 928.658 492.705 929.022 493.067Z" fill="#1490DF"/><path d="M972.164 506.042 974.222 508.106C974.95 508.836 974.948 510.017 974.219 510.744L958.982 525.938C958.616 526.303 958.024 526.302 957.66 525.937L955.611 523.882C955.247 523.517 955.248 522.925 955.613 522.56L972.171 506.049 972.171 506.049Z" fill="#50E6FF"/><path d="M974.237 510.692 972.172 512.751 972.172 512.751 955.903 496.436C955.539 496.07 955.54 495.479 955.905 495.114L957.97 493.056C958.335 492.691 958.927 492.692 959.291 493.058L974.248 508.057C974.976 508.786 974.974 509.967 974.244 510.695Z" fill="#1490DF"/><path d="M941.607 512.65 929.045 512.65C928.678 512.664 928.368 512.383 928.345 512.016 928.345 511.925 928.367 511.835 928.408 511.754L943.469 481.955C943.599 481.719 943.85 481.576 944.12 481.584L958.977 481.584C959.344 481.57 959.654 481.851 959.677 482.217 959.676 482.344 959.633 482.467 959.555 482.568L941.869 505.881 959.117 505.881C959.484 505.867 959.794 506.148 959.817 506.514 959.814 506.675 959.749 506.828 959.635 506.941L930.974 536.758C930.704 536.919 928.789 538.508 929.727 536.096L929.727 536.096Z" fill="url(#fill8)"/></g></g></g><text font-family="Yu Gothic,Yu Gothic_MSFontService,sans-serif" font-weight="400" font-size="13" transform="translate(751.335 457)">Built<tspan font-size="13" x="28.3333" y="0">-</tspan><tspan font-size="13" x="34.1666" y="0">in Endpoint</tspan><tspan font-size="13" x="140.46" y="0">IoT Hub Binding</tspan></text><path d="M0.275039-0.188321 29.8913 43.0655 29.3412 43.4422-0.275039 0.188321ZM35.117 39.4874C37.1972 42.5254 36.4207 46.6745 33.3827 48.7546 30.3447 50.8348 26.1956 50.0583 24.1155 47.0203 22.0354 43.9823 22.8119 39.8332 25.8498 37.7531 28.8878 35.6729 33.0369 36.4494 35.117 39.4874Z" fill="#000000" fill-opacity="0.301961" transform="matrix(-1 0 0 1 942.116 466.5)"/><path d="M804.787 466.33 830.402 509.584 829.829 509.924 804.213 466.67ZM835.852 506.357C837.728 509.525 836.681 513.614 833.513 515.49 830.345 517.366 826.256 516.319 824.379 513.151 822.503 509.983 823.55 505.894 826.719 504.018 829.887 502.141 833.976 503.189 835.852 506.357Z" fill="#000000" fill-opacity="0.301961"/><g clip-path="url(#clip9)"><g clip-path="url(#clip10)"><g clip-path="url(#clip11)"><path d="M46.0522 29.0711C46.0522 32.8187 43.0142 35.8567 39.2667 35.8567 35.5191 35.8567 32.4811 32.8187 32.4811 29.0711 32.4811 25.3236 35.5191 22.2856 39.2667 22.2856 43.0142 22.2856 46.0522 25.3236 46.0522 29.0711Z" fill="#FFFFFF" transform="matrix(1 0 0 1.01613 767 604)"/><path d="M55.9722 49.2556C55.9722 52.2041 53.5819 54.5944 50.6333 54.5944 47.6847 54.5944 45.2944 52.2041 45.2944 49.2556 45.2944 46.307 47.6847 43.9167 50.6333 43.9167 53.5819 43.9167 55.9722 46.307 55.9722 49.2556Z" fill="#FFFFFF" transform="matrix(1 0 0 1.01613 767 604)"/><path d="M34.1 45.6044C34.1 48.1345 32.049 50.1856 29.5189 50.1856 26.9888 50.1856 24.9378 48.1345 24.9378 45.6044 24.9378 43.0744 26.9888 41.0233 29.5189 41.0233 32.049 41.0233 34.1 43.0744 34.1 45.6044Z" fill="#FFFFFF" transform="matrix(1 0 0 1.01613 767 604)"/><path d="M31.8956 10.7122C31.8956 13.851 29.351 16.3956 26.2122 16.3956 23.0734 16.3956 20.5289 13.851 20.5289 10.7122 20.5289 7.5734 23.0734 5.02889 26.2122 5.02889 29.351 5.02889 31.8956 7.5734 31.8956 10.7122Z" fill="#FFFFFF" transform="matrix(1 0 0 1.01613 767 604)"/><path d="M15.5689 31.6544C15.5689 34.1845 13.5179 36.2356 10.9878 36.2356 8.4577 36.2356 6.40667 34.1845 6.40667 31.6544 6.40667 29.1244 8.4577 27.0733 10.9878 27.0733 13.5179 27.0733 15.5689 29.1244 15.5689 31.6544Z" fill="#FFFFFF" transform="matrix(1 0 0 1.01613 767 604)"/><path d="M51.8733 48.1878 40.4033 28.1067 39.2667 28.7611 40.1967 28.0722 27.2111 9.61 24.8344 11.3322 36.3389 27.6933 10.85 29.7944 11.0911 32.7567 36.3389 30.6556 27.9689 44.5711 30.4833 46.0867 39.0944 31.7578 49.3244 49.6344 51.8733 48.1878Z" fill="#949494" transform="matrix(1 0 0 1.01613 767 604)"/><path d="M60.3811 4.23667 60.3811 4.23667C60.3811 2.84798 59.2554 1.72222 57.8667 1.72222L44.7778 1.72222C44.0929 1.72222 43.5378 2.27739 43.5378 2.96222L43.5378 7.81889C43.5378 8.50372 44.0929 9.05889 44.7778 9.05889L52.8722 9.05889 52.8722 16.9811C52.8903 17.6773 53.4504 18.2375 54.1467 18.2556L58.9689 18.2556C59.6651 18.2375 60.2252 17.6773 60.2433 16.9811L60.2433 4.23667Z" fill="#949494" transform="matrix(1 0 0 1.01613 767 604)"/><path d="M17.2222 52.9411 8.99 52.9411 8.99 45.0189C8.97191 44.3227 8.41178 43.7625 7.71556 43.7444L2.89333 43.7444C2.19711 43.7625 1.63698 44.3227 1.61889 45.0189L1.61889 57.7633 1.61889 57.7633C1.63773 59.1386 2.75798 60.2435 4.13333 60.2433L17.2222 60.2433C17.9071 60.2433 18.4622 59.6882 18.4622 59.0033L18.4622 54.1811C18.4622 53.4963 17.9071 52.9411 17.2222 52.9411Z" fill="#949494" transform="matrix(1 0 0 1.01613 767 604)"/><path d="M39.2667 22.3544C43.0713 22.3556 46.1546 25.4409 46.1534 29.2455 46.1522 33.0501 43.067 36.1334 39.2624 36.1322 35.4577 36.131 32.3744 33.0458 32.3756 29.2412 32.3756 29.1845 32.3764 29.1278 32.3778 29.0711 32.4712 25.3339 35.5283 22.3533 39.2667 22.3544ZM20.6667 10.7122C20.6486 13.87 23.1938 16.4446 26.3516 16.4627 29.5094 16.4808 32.0839 13.9356 32.102 10.7778 32.1201 7.62001 29.5749 5.04543 26.4171 5.02733 26.3603 5.027 26.3035 5.02752 26.2467 5.02889 23.1483 5.08523 20.6662 7.61332 20.6667 10.7122ZM6.40667 31.62C6.40667 34.1501 8.4577 36.2011 10.9878 36.2011 13.5179 36.2011 15.5689 34.1501 15.5689 31.62 15.5689 29.0899 13.5179 27.0389 10.9878 27.0389 8.4577 27.0389 6.40667 29.0899 6.40667 31.62ZM24.9378 45.57C24.9188 48.119 26.9697 50.2008 29.5188 50.2199 32.0678 50.2389 34.1496 48.1879 34.1686 45.6389 34.1877 43.0899 32.1367 41.008 29.5876 40.989 29.5762 40.9889 29.5648 40.9889 29.5533 40.9889 27.0233 40.9699 24.9569 43.0054 24.9379 45.5354 24.9378 45.5469 24.9378 45.5585 24.9378 45.57ZM45.3289 49.2556C45.3099 52.2041 47.6847 54.6098 50.6332 54.6288 53.5817 54.6478 55.9874 52.273 56.0064 49.3244 56.0255 46.3759 53.6506 43.9702 50.7021 43.9512 50.6907 43.9512 50.6792 43.9511 50.6678 43.9511 47.7575 43.913 45.3673 46.2414 45.3292 49.1517 45.3288 49.1863 45.3287 49.2209 45.3289 49.2556Z" fill="url(#fill12)" transform="matrix(1 0 0 1.01613 767 604)"/></g></g></g><path d="M829 634 858.835 634 858.835 636 829 636ZM857.502 631 865.502 635 857.502 639Z" fill="#4472C4"/><g clip-path="url(#clip13)"><g clip-path="url(#clip14)"><g clip-path="url(#clip15)"><path d="M1035.39 649.868 1033.34 651.925C1032.98 652.29 1032.38 652.291 1032.02 651.927L1016.78 636.733C1016.05 636.005 1016.05 634.824 1016.78 634.094L1018.84 632.028 1018.84 632.028 1035.4 648.541C1035.77 648.906 1035.77 649.497 1035.4 649.863Z" fill="#50E6FF"/><path d="M1033.02 619.067 1035.09 621.126C1035.45 621.49 1035.45 622.082 1035.09 622.447L1018.82 638.762 1018.82 638.762 1016.75 636.701C1016.02 635.974 1016.02 634.793 1016.75 634.063L1031.71 619.064C1032.07 618.703 1032.66 618.705 1033.02 619.067Z" fill="#1490DF"/><path d="M1076.16 632.042 1078.22 634.106C1078.95 634.836 1078.95 636.017 1078.22 636.744L1062.98 651.938C1062.62 652.303 1062.02 652.302 1061.66 651.937L1059.61 649.882C1059.25 649.517 1059.25 648.925 1059.61 648.56L1076.17 632.049 1076.17 632.049Z" fill="#50E6FF"/><path d="M1078.24 636.692 1076.17 638.751 1076.17 638.751 1059.9 622.436C1059.54 622.07 1059.54 621.479 1059.91 621.114L1061.97 619.056C1062.34 618.691 1062.93 618.692 1063.29 619.057L1078.25 634.057C1078.98 634.786 1078.97 635.967 1078.24 636.695Z" fill="#1490DF"/><path d="M1045.61 638.65 1033.05 638.65C1032.68 638.664 1032.37 638.383 1032.34 638.016 1032.35 637.925 1032.37 637.835 1032.41 637.754L1047.47 607.955C1047.6 607.719 1047.85 607.576 1048.12 607.584L1062.98 607.584C1063.34 607.57 1063.65 607.851 1063.68 608.218 1063.68 608.344 1063.63 608.467 1063.55 608.568L1045.87 631.881 1063.12 631.881C1063.48 631.867 1063.79 632.148 1063.82 632.515 1063.81 632.675 1063.75 632.828 1063.64 632.942L1034.97 662.758C1034.7 662.919 1032.79 664.508 1033.73 662.096L1033.73 662.096Z" fill="url(#fill16)"/></g></g></g><g clip-path="url(#clip17)"><g clip-path="url(#clip18)"><g clip-path="url(#clip19)"><path d="M903.905 633.47C903.925 633.96 903.554 634.378 903.065 634.415L895.75 634.415C895.26 634.435 894.842 634.064 894.805 633.575L894.805 628.115C894.785 627.625 895.156 627.207 895.645 627.17L902.96 627.17C903.45 627.15 903.868 627.521 903.905 628.01L903.905 633.47Z" fill="#76BC2D"/><path d="M916.89 639C916.91 639.49 916.539 639.908 916.05 639.945L908.735 639.945C908.245 639.965 907.827 639.594 907.79 639.105L907.79 633.68C907.77 633.19 908.141 632.772 908.63 632.735L915.945 632.735C916.435 632.715 916.853 633.086 916.89 633.575L916.89 639Z" fill="#76BC2D"/><path d="M903.905 644.6C903.925 645.09 903.554 645.508 903.065 645.545L895.75 645.545C895.26 645.565 894.842 645.194 894.805 644.705L894.805 639.245C894.785 638.755 895.156 638.337 895.645 638.3L902.96 638.3C903.45 638.28 903.868 638.651 903.905 639.14L903.905 644.6Z" fill="#76BC2D"/><path d="M890.92 627.94C890.94 628.411 890.585 628.813 890.115 628.85L882.59 628.85C882.112 628.872 881.7 628.52 881.645 628.045L881.645 622.375C881.661 621.912 882.023 621.535 882.485 621.5L889.8 621.5C890.57 621.5 890.92 621.885 890.92 622.445Z" fill="#86D633"/><path d="M890.92 639C890.96 639.482 890.602 639.904 890.121 639.945 890.119 639.945 890.117 639.945 890.115 639.945L882.59 639.945C882.088 639.965 881.665 639.574 881.645 639.071 881.644 639.048 881.644 639.024 881.645 639L881.645 633.47C881.644 632.994 882.01 632.597 882.485 632.56L889.8 632.56C890.57 632.56 890.92 632.945 890.92 633.47Z" fill="#76BC2D"/><path d="M890.92 650.165C890.96 650.647 890.602 651.069 890.121 651.11 890.119 651.11 890.117 651.11 890.115 651.11L882.59 651.11C882.1 651.13 881.682 650.759 881.645 650.27L881.645 644.6C881.625 644.117 882.001 643.71 882.484 643.69 882.484 643.69 882.485 643.69 882.485 643.69L889.8 643.69C890.57 643.69 890.92 644.04 890.92 644.6Z" fill="#76BC2D"/><path d="M869.745 609.285 874.26 609.285 874.26 609.285 874.26 621.885C874.26 622.446 873.806 622.9 873.245 622.9L868.765 622.9C868.204 622.9 867.75 622.446 867.75 621.885L867.75 611.385C867.692 610.285 868.537 609.346 869.637 609.288 869.673 609.286 869.709 609.285 869.745 609.285Z" fill="#999999"/><path d="M869.745 609.285 874.26 609.285 874.26 609.285 874.26 621.885C874.26 622.446 873.806 622.9 873.245 622.9L868.765 622.9C868.204 622.9 867.75 622.446 867.75 621.885L867.75 611.385C867.692 610.285 868.537 609.346 869.637 609.288 869.673 609.286 869.709 609.285 869.745 609.285Z" fill="#999999" fill-opacity="0.5"/><path d="M920.74 609.285 925.255 609.285C926.357 609.285 927.25 610.178 927.25 611.28L927.25 621.78C927.25 622.341 926.796 622.795 926.235 622.795L921.72 622.795C921.159 622.795 920.705 622.341 920.705 621.78L920.705 609.285 920.74 609.285Z" fill="#999999"/><path d="M920.74 609.285 925.255 609.285C926.357 609.285 927.25 610.178 927.25 611.28L927.25 621.78C927.25 622.341 926.796 622.795 926.235 622.795L921.72 622.795C921.159 622.795 920.705 622.341 920.705 621.78L920.705 609.285 920.74 609.285Z" fill="#999999" fill-opacity="0.5"/><path d="M927.25 611.28 927.25 615.655 927.25 615.655 867.75 615.655 867.75 615.655 867.75 611.28C867.75 610.178 868.643 609.285 869.745 609.285L925.29 609.285C926.378 609.304 927.25 610.192 927.25 611.28Z" fill="#949494"/><path d="M868.765 648.66 873.28 648.66C873.841 648.66 874.295 649.114 874.295 649.675L874.295 662.275 874.295 662.275 869.745 662.275C868.643 662.275 867.75 661.382 867.75 660.28L867.75 649.5C867.836 649.009 868.266 648.653 868.765 648.66Z" fill="#999999"/><path d="M868.765 648.66 873.28 648.66C873.841 648.66 874.295 649.114 874.295 649.675L874.295 662.275 874.295 662.275 869.745 662.275C868.643 662.275 867.75 661.382 867.75 660.28L867.75 649.5C867.836 649.009 868.266 648.653 868.765 648.66Z" fill="#999999" fill-opacity="0.5"/><path d="M921.72 648.66 926.235 648.66C926.796 648.66 927.25 649.114 927.25 649.675L927.25 660.175C927.25 661.277 926.357 662.17 925.255 662.17L920.74 662.17 920.74 662.17 920.74 649.5C920.824 649.022 921.234 648.669 921.72 648.66Z" fill="#999999"/><path d="M921.72 648.66 926.235 648.66C926.796 648.66 927.25 649.114 927.25 649.675L927.25 660.175C927.25 661.277 926.357 662.17 925.255 662.17L920.74 662.17 920.74 662.17 920.74 649.5C920.824 649.022 921.234 648.669 921.72 648.66Z" fill="#999999" fill-opacity="0.5"/><path d="M867.75 660.28 867.75 655.905 867.75 655.905 927.25 655.905 927.25 655.905 927.25 660.28C927.25 661.382 926.357 662.275 925.255 662.275L869.745 662.275C868.643 662.275 867.75 661.382 867.75 660.28Z" fill="#949494"/></g></g></g><path d="M929 634 1009.65 634 1009.65 636 929 636ZM1008.32 631 1016.32 635 1008.32 639Z" fill="#4472C4"/><text font-family="Yu Gothic,Yu Gothic_MSFontService,sans-serif" font-weight="400" font-size="13" transform="translate(855.767 581)">Custom Endpoint</text><path d="M909.806 590.368 929.273 635.558 928.661 635.822 909.194 590.632ZM935.089 633.052C936.546 636.434 934.986 640.356 931.604 641.813 928.223 643.269 924.301 641.709 922.844 638.327 921.387 634.946 922.948 631.024 926.329 629.567 929.711 628.11 933.633 629.671 935.089 633.052Z" fill="#000000" fill-opacity="0.301961"/><text font-family="Yu Gothic,Yu Gothic_MSFontService,sans-serif" font-weight="400" font-size="13" transform="translate(984.647 581)">Event Hub Binding</text><path d="M0.288328-0.167266 26.5041 45.0227 25.9274 45.3572-0.288328 0.167266ZM31.9823 41.8446C33.8299 45.0294 32.7459 49.1089 29.5611 50.9565 26.3763 52.8041 22.2968 51.72 20.4492 48.5352 18.6016 45.3505 19.6856 41.2709 22.8704 39.4234 26.0552 37.5758 30.1347 38.6598 31.9823 41.8446Z" fill="#000000" fill-opacity="0.301961" transform="matrix(-1 0 0 1 1042.72 590.5)"/><text font-family="Yu Gothic,Yu Gothic_MSFontService,sans-serif" font-weight="400" font-size="13" transform="translate(754.968 690)">Message Routing with filter</text><path d="M0.327718-0.060924 7.40688 38.0189 6.75144 38.1407-0.327718 0.060924ZM13.6335 36.8613C14.3065 40.4812 11.9175 43.9612 8.29764 44.6342 4.67776 45.3071 1.19774 42.9181 0.524792 39.2983-0.148156 35.6784 2.2408 32.1984 5.86068 31.5254 9.48056 30.8525 12.9606 33.2414 13.6335 36.8613Z" fill="#000000" fill-opacity="0.301961" transform="matrix(1 0 0 -1 841.5 673.58)"/></g></svg>