<svg width="4332" height="2182" xmlns="http://www.w3.org/2000/svg" xmlns:xlink="http://www.w3.org/1999/xlink" overflow="hidden"><defs><clipPath id="clip0"><rect x="63" y="114" width="4332" height="2182"/></clipPath></defs><g clip-path="url(#clip0)" transform="translate(-63 -114)"><path d="M65.5002 1342.5 68.9992 1342.5 68.9992 1398.5 65.5002 1398.5ZM72.4982 1342.5 79.501 1342.5 79.501 1398.5 72.4982 1398.5ZM83 1342.5 4321.5 1342.5 4321.5 1314.5 4377.5 1370.5 4321.5 1426.5 4321.5 1398.5 83 1398.5Z" stroke="#2F528F" stroke-width="4.58333" stroke-miterlimit="8" stroke-opacity="0.301961" fill="#4472C4" fill-rule="evenodd" fill-opacity="0.301961"/><rect x="1007.5" y="373.5" width="398" height="131" stroke="#FFC000" stroke-width="4.58333" stroke-miterlimit="8" fill="#FFFFFF"/><text font-family="Yu Gothic,Yu Gothic_MSFontService,sans-serif" font-weight="400" font-size="55" transform="matrix(1 0 0 1 1150.68 457)">倉庫</text><rect x="1266.5" y="564.5" width="398" height="131" stroke="#FFC000" stroke-width="4.58333" stroke-miterlimit="8" fill="#FFFFFF"/><text font-family="Yu Gothic,Yu Gothic_MSFontService,sans-serif" font-weight="400" font-size="55" transform="matrix(1 0 0 1 1410.21 647)">区画</text><rect x="1536.5" y="755.5" width="397" height="131" stroke="#FFC000" stroke-width="4.58333" stroke-miterlimit="8" fill="#FFFFFF"/><text font-family="Yu Gothic,Yu Gothic_MSFontService,sans-serif" font-weight="400" font-size="55" transform="matrix(1 0 0 1 1707.09 838)">棚</text><rect x="1807.5" y="945.5" width="398" height="132" stroke="#FFC000" stroke-width="4.58333" stroke-miterlimit="8" fill="#FFFFFF"/><text font-family="Yu Gothic,Yu Gothic_MSFontService,sans-serif" font-weight="400" font-size="55" transform="matrix(1 0 0 1 1896.15 1029)">パレット</text><rect x="1807.5" y="1296.5" width="398" height="131" stroke="#FFC000" stroke-width="4.58333" stroke-miterlimit="8" fill="#FFFFFF"/><text font-family="Yu Gothic,Yu Gothic_MSFontService,sans-serif" font-weight="400" font-size="55" transform="matrix(1 0 0 1 1951.15 1380)">商品</text><path d="M0-2.29167 127.52-2.29167 127.52 60.6213 122.937 60.6213 122.937 0 125.228 2.29167 0 2.29167ZM0 13.75C-7.59392 13.75-13.75 7.59392-13.75 0-13.75-7.59392-7.59392-13.75 0-13.75 7.59392-13.75 13.75-7.59392 13.75 0 13.75 7.59392 7.59392 13.75 0 13.75Z" fill="#FFC000" transform="matrix(1.83697e-16 1 1 -1.83697e-16 1206.5 504.5)"/><path d="M0-2.29167 127.52-2.29167 127.52 70.4689 122.937 70.4689 122.937 0 125.228 2.29167 0 2.29167ZM0 13.75C-7.59392 13.75-13.75 7.59392-13.75 0-13.75-7.59392-7.59392-13.75 0-13.75 7.59392-13.75 13.75-7.59392 13.75 0 13.75 7.59392 7.59392 13.75 0 13.75Z" fill="#FFC000" transform="matrix(1.83697e-16 1 1 -1.83697e-16 1465.5 695.5)"/><path d="M0-2.29167 127.52-2.29167 127.52 72.6527 122.937 72.6527 122.937 0 125.228 2.29167 0 2.29167ZM0 13.75C-7.59392 13.75-13.75 7.59392-13.75 0-13.75-7.59392-7.59392-13.75 0-13.75 7.59392-13.75 13.75-7.59392 13.75 0 13.75 7.59392 7.59392 13.75 0 13.75Z" fill="#FFC000" transform="matrix(1.83697e-16 1 1 -1.83697e-16 1735.5 886.5)"/><path d="M2006.5 1077.5 2006.5 1297.02" stroke="#FFC000" stroke-width="4.58333" stroke-miterlimit="8" fill="none" fill-rule="evenodd"/><rect x="145.5" y="1303.5" width="398" height="132" stroke="#FFC000" stroke-width="4.58333" stroke-miterlimit="8" fill="#FFFFFF"/><text font-family="Yu Gothic,Yu Gothic_MSFontService,sans-serif" font-weight="400" font-size="55" transform="matrix(1 0 0 1 288.936 1387)">商品<tspan font-size="55" x="-0.859467" y="-149">入荷</tspan></text><rect x="977.5" y="1733.5" width="398" height="131" stroke="#70AD47" stroke-width="4.58333" stroke-miterlimit="8" fill="#FFFFFF"/><text font-family="Yu Gothic,Yu Gothic_MSFontService,sans-serif" font-weight="400" font-size="55" transform="matrix(1 0 0 1 1010.85 1816)">移送作業指示</text><rect x="977.5" y="1304.5" width="398" height="131" stroke="#FFC000" stroke-width="4.58333" stroke-miterlimit="8" fill="#FFFFFF"/><text font-family="Yu Gothic,Yu Gothic_MSFontService,sans-serif" font-weight="400" font-size="55" transform="matrix(1 0 0 1 1120.85 1388)">商品</text><path d="M1176.5 1435.5 1176.5 1732.82" stroke="#FFC000" stroke-width="4.58333" stroke-miterlimit="8" fill="none" fill-rule="evenodd"/><text font-family="Yu Gothic,Yu Gothic_MSFontService,sans-serif" font-weight="400" font-size="55" transform="matrix(1 0 0 1 1119.99 1238)">移送<tspan font-size="55" x="603.258" y="-8">ストック</tspan></text><rect x="2638.5" y="1733.5" width="398" height="131" stroke="#70AD47" stroke-width="4.58333" stroke-miterlimit="8" fill="#FFFFFF"/><text font-family="Yu Gothic,Yu Gothic_MSFontService,sans-serif" font-weight="400" font-size="55" transform="matrix(1 0 0 1 2781.71 1816)">注文</text><rect x="2639.5" y="1303.5" width="398" height="132" stroke="#FFC000" stroke-width="4.58333" stroke-miterlimit="8" fill="#FFFFFF"/><text font-family="Yu Gothic,Yu Gothic_MSFontService,sans-serif" font-weight="400" font-size="55" transform="matrix(1 0 0 1 2783.07 1387)">商品</text><rect x="2638.5" y="2162.5" width="398" height="131" stroke="#4472C4" stroke-width="4.58333" stroke-miterlimit="8" fill="#FFFFFF"/><text font-family="Yu Gothic,Yu Gothic_MSFontService,sans-serif" font-weight="400" font-size="55" transform="matrix(1 0 0 1 2754.21 2245)">お客様</text><rect x="2076.5" y="567.5" width="398" height="131" stroke="#000000" stroke-width="4.58333" stroke-miterlimit="8" fill="#FFFFFF"/><text font-family="Yu Gothic,Yu Gothic_MSFontService,sans-serif" font-weight="400" font-size="55" transform="matrix(1 0 0 1 2192.29 650)">カメラ</text><path d="M1664.52 627.208 2076.28 630.148 2076.25 634.731 1664.48 631.792ZM1664.4 643.25C1656.81 643.195 1650.7 636.995 1650.75 629.402 1650.8 621.808 1657 615.696 1664.6 615.75 1672.19 615.804 1678.3 622.004 1678.25 629.598 1678.2 637.192 1672 643.304 1664.4 643.25Z" fill="#FFC000"/><text font-family="Yu Gothic,Yu Gothic_MSFontService,sans-serif" font-weight="400" font-size="37" transform="matrix(1 0 0 1 1176.72 675)">1..<tspan font-size="37" x="40.1043" y="0">＊</tspan><tspan font-size="37" x="284.19" y="207">1..</tspan><tspan font-size="37" x="324.294" y="207">＊</tspan><tspan font-size="37" x="590.869" y="377">＊</tspan><tspan font-size="37" x="783.491" y="611">＊</tspan></text><rect x="2076.5" y="353.5" width="398" height="132" stroke="#000000" stroke-width="4.58333" stroke-miterlimit="8" fill="#FFFFFF"/><text font-family="Yu Gothic,Yu Gothic_MSFontService,sans-serif" font-weight="400" font-size="55" transform="matrix(1 0 0 1 2179.4 437)">Beacon</text><path d="M1.04266-2.04073 412.809 208.341 410.724 212.423-1.04266 2.04073ZM-6.25597 12.2444C-13.0184 8.78933-15.6995 0.50643-12.2444-6.25597-8.78933-13.0184-0.50643-15.6995 6.25597-12.2444 13.0184-8.78933 15.6995-0.50643 12.2444 6.25597 8.78933 13.0184 0.50643 15.6995-6.25597 12.2444Z" fill="#FFC000" transform="matrix(1 0 0 -1 1664.5 629.882)"/><rect x="2376.5" y="948.5" width="415" height="131" stroke="#FFC000" stroke-width="4.58333" stroke-miterlimit="8" fill="#FFFFFF"/><text font-family="Yu Gothic,Yu Gothic_MSFontService,sans-serif" font-weight="400" font-size="55" transform="matrix(1 0 0 1 2418.48 1032)">商品スペック</text><path d="M2376.06 1014.49 2205.5 1011.5" stroke="#FFC000" stroke-width="4.58333" stroke-miterlimit="8" fill="none" fill-rule="evenodd"/><text font-family="Yu Gothic,Yu Gothic_MSFontService,sans-serif" font-weight="400" font-size="37" transform="matrix(1 0 0 1 2218.35 992)">＊</text><path d="M1.36961-1.83736 376.148 277.53 373.409 281.205-1.36961 1.83736ZM364.426 249.174 378.425 282.086 342.886 278.071C341.628 277.929 340.724 276.794 340.866 275.536 341.008 274.279 342.143 273.374 343.4 273.517L375.036 277.09 372.67 280.264 360.209 250.968C359.713 249.803 360.256 248.457 361.421 247.962 362.585 247.466 363.931 248.009 364.426 249.174Z" fill="#FFC000" transform="matrix(-1 0 0 1 2583.92 1079.5)"/><text font-family="Yu Gothic,Yu Gothic_MSFontService,sans-serif" font-weight="400" font-size="37" transform="matrix(1 0 0 1 2236.6 1380)">＊</text><rect x="2067.5" y="1731.5" width="416" height="131" stroke="#FFC000" stroke-width="4.58333" stroke-miterlimit="8" fill="#FFFFFF"/><text font-family="Yu Gothic,Yu Gothic_MSFontService,sans-serif" font-weight="400" font-size="55" transform="matrix(1 0 0 1 2109.79 1815)">商品スペック</text><path d="M2638.62 1801.3 2488.01 1799.84 2488.06 1795.25 2638.67 1796.72ZM2514.21 1815.82 2483.49 1797.5 2514.56 1779.78C2515.66 1779.15 2517.06 1779.54 2517.68 1780.64 2518.31 1781.74 2517.93 1783.14 2516.83 1783.76L2489.17 1799.53 2489.21 1795.58 2516.55 1811.89C2517.64 1812.53 2518 1813.94 2517.35 1815.03 2516.7 1816.11 2515.29 1816.47 2514.21 1815.82Z" fill="#FFC000"/><text font-family="Yu Gothic,Yu Gothic_MSFontService,sans-serif" font-weight="400" font-size="37" transform="matrix(1 0 0 1 2869.71 1484)">＊<tspan font-size="37" x="-374.362" y="364">＊</tspan></text><path d="M2837.5 1864.5 2837.5 2162.53" stroke="#FFC000" stroke-width="4.58333" stroke-miterlimit="8" fill="none" fill-rule="evenodd"/><text font-family="Yu Gothic,Yu Gothic_MSFontService,sans-serif" font-weight="400" font-size="37" transform="matrix(1 0 0 1 2869.71 1913)">＊</text><rect x="3166.5" y="1511.5" width="398" height="131" stroke="#70AD47" stroke-width="4.58333" stroke-miterlimit="8" fill="#FFFFFF"/><text font-family="Yu Gothic,Yu Gothic_MSFontService,sans-serif" font-weight="400" font-size="55" transform="matrix(1 0 0 1 3199.64 1595)">出荷作業指示</text><path d="M0 0 1.35407 298.033" stroke="#70AD47" stroke-width="4.58333" stroke-miterlimit="8" fill="none" fill-rule="evenodd" transform="matrix(-1 0 0 1 2838.85 1435.5)"/><text font-family="Yu Gothic,Yu Gothic_MSFontService,sans-serif" font-weight="400" font-size="37" transform="matrix(1 0 0 1 1203.15 1484)">＊</text><path d="M3166.52 1572.79 2842.04 1572.79 2842.04 1568.21 3166.52 1568.21ZM2868.38 1588.52 2837.49 1570.5 2868.38 1552.48C2869.48 1551.84 2870.88 1552.21 2871.52 1553.3 2872.15 1554.4 2871.79 1555.8 2870.69 1556.44L2843.19 1572.48 2843.19 1568.52 2870.69 1584.56C2871.79 1585.2 2872.15 1586.6 2871.52 1587.7 2870.88 1588.79 2869.48 1589.16 2868.38 1588.52Z" fill="#70AD47"/><rect x="977.5" y="2060.5" width="398" height="131" stroke="#ED7D31" stroke-width="4.58333" stroke-miterlimit="8" fill="#FFFFFF"/><text font-family="Yu Gothic,Yu Gothic_MSFontService,sans-serif" font-weight="400" font-size="55" transform="matrix(1 0 0 1 1093.35 2144)">作業者</text><path d="M1176.5 1864.5 1176.5 2061.14" stroke="#ED7D31" stroke-width="4.58333" stroke-miterlimit="8" fill="none" fill-rule="evenodd"/><text font-family="Yu Gothic,Yu Gothic_MSFontService,sans-serif" font-weight="400" font-size="37" transform="matrix(1 0 0 1 1203.15 2042)">0..1<tspan font-size="37" x="-10.9786" y="-134">0..1</tspan></text><rect x="3173.5" y="1837.5" width="398" height="131" stroke="#ED7D31" stroke-width="4.58333" stroke-miterlimit="8" fill="#FFFFFF"/><text font-family="Yu Gothic,Yu Gothic_MSFontService,sans-serif" font-weight="400" font-size="55" transform="matrix(1 0 0 1 3289.36 1920)">作業者</text><path d="M3372.5 1640.5 3372.5 1837.14" stroke="#ED7D31" stroke-width="4.58333" stroke-miterlimit="8" fill="none" fill-rule="evenodd"/><text font-family="Yu Gothic,Yu Gothic_MSFontService,sans-serif" font-weight="400" font-size="37" transform="matrix(1 0 0 1 3399.16 1818)">0..1<tspan font-size="37" x="-10.9788" y="-133">0..1</tspan></text><rect x="3735.5" y="1300.5" width="397" height="131" stroke="#FFC000" stroke-width="4.58333" stroke-miterlimit="8" fill="#FFFFFF"/><text font-family="Yu Gothic,Yu Gothic_MSFontService,sans-serif" font-weight="400" font-size="55" transform="matrix(1 0 0 1 3878.51 1383)">商品<tspan font-size="55" x="-1109.46" y="-147">配送</tspan><tspan font-size="55" x="-28.7297" y="-153">出荷</tspan></text><rect x="1572.5" y="2060.5" width="398" height="131" stroke="#000000" stroke-width="4.58333" stroke-miterlimit="8" fill="#FFFFFF"/><text font-family="Yu Gothic,Yu Gothic_MSFontService,sans-serif" font-weight="400" font-size="55" transform="matrix(1 0 0 1 1633.41 2144)">ターミナル</text><path d="M0 0 197.242 0.000360892" stroke="#000000" stroke-width="4.58333" stroke-miterlimit="8" fill="none" fill-rule="evenodd" transform="matrix(-1 0 0 1 1572.74 2126.5)"/><text font-family="Yu Gothic,Yu Gothic_MSFontService,sans-serif" font-weight="400" font-size="37" transform="matrix(1 0 0 1 1393.67 2176)">0..1<tspan font-size="37" x="137.387" y="-76">1</tspan></text><rect x="3781.5" y="1837.5" width="398" height="131" stroke="#000000" stroke-width="4.58333" stroke-miterlimit="8" fill="#FFFFFF"/><text font-family="Yu Gothic,Yu Gothic_MSFontService,sans-serif" font-weight="400" font-size="55" transform="matrix(1 0 0 1 3842.15 1920)">ターミナル</text><path d="M0 0 197.242 0.000360892" stroke="#000000" stroke-width="4.58333" stroke-miterlimit="8" fill="none" fill-rule="evenodd" transform="matrix(-1 0 0 1 3781.74 1902.5)"/><text font-family="Yu Gothic,Yu Gothic_MSFontService,sans-serif" font-weight="400" font-size="37" transform="matrix(1 0 0 1 3602.41 1953)">0..1<tspan font-size="37" x="137.387" y="-77">1</tspan></text><rect x="2076.5" y="154.5" width="398" height="131" stroke="#000000" stroke-width="4.58333" stroke-miterlimit="8" fill="#FFFFFF"/><text font-family="Yu Gothic,Yu Gothic_MSFontService,sans-serif" font-weight="400" font-size="55" transform="matrix(1 0 0 1 2109.79 237)">環境センサー</text><path d="M1.61745-1.62345 413.384 408.623 410.149 411.87-1.61745 1.62345ZM-9.70473 9.74068C-15.0844 4.38091-15.1005-4.3251-9.74068-9.70473-4.38091-15.0844 4.3251-15.1005 9.70473-9.74068 15.0844-4.38091 15.1005 4.3251 9.74068 9.70473 4.38091 15.0844-4.3251 15.1005-9.70473 9.74068Z" fill="#FFC000" transform="matrix(1 0 0 -1 1664.5 629.747)"/><path d="M2959 114 2959 1043.47" stroke="#000000" stroke-width="2.29167" stroke-miterlimit="8" fill="none" fill-rule="evenodd"/><path d="M0 0 1435.35 0.000360892" stroke="#000000" stroke-width="2.29167" stroke-miterlimit="8" fill="none" fill-rule="evenodd" transform="matrix(-1 0 0 1 4394.35 1043)"/><rect x="3371.5" y="801.5" width="397" height="131" stroke="#ED7D31" stroke-width="4.58333" stroke-miterlimit="8" fill="#FFFFFF"/><text font-family="Yu Gothic,Yu Gothic_MSFontService,sans-serif" font-weight="400" font-size="55" transform="matrix(1 0 0 1 3486.91 885)">作業者</text><rect x="3371.5" y="453.5" width="397" height="131" stroke="#70AD47" stroke-width="4.58333" stroke-miterlimit="8" fill="#FFFFFF"/><text font-family="Yu Gothic,Yu Gothic_MSFontService,sans-serif" font-weight="400" font-size="55" transform="matrix(1 0 0 1 3459.41 536)">作業指示</text><path d="M3569.5 584.5 3569.5 801.96" stroke="#ED7D31" stroke-width="4.58333" stroke-miterlimit="8" fill="none" fill-rule="evenodd"/><text font-family="Yu Gothic,Yu Gothic_MSFontService,sans-serif" font-weight="400" font-size="37" transform="matrix(1 0 0 1 3602.41 774)">0..1<tspan font-size="37" x="-10.9785" y="-134">0..1</tspan></text><rect x="3029.5" y="142.5" width="398" height="131" stroke="#70AD47" stroke-width="4.58333" stroke-miterlimit="8" fill="#FFFFFF"/><text font-family="Yu Gothic,Yu Gothic_MSFontService,sans-serif" font-weight="400" font-size="55" transform="matrix(1 0 0 1 3063.3 226)">移送作業指示</text><rect x="3697.5" y="142.5" width="398" height="131" stroke="#70AD47" stroke-width="4.58333" stroke-miterlimit="8" fill="#FFFFFF"/><text font-family="Yu Gothic,Yu Gothic_MSFontService,sans-serif" font-weight="400" font-size="55" transform="matrix(1 0 0 1 3731.29 226)">出荷作業指示</text><path d="M0 68.0001 39.9999 0 79.9997 68.0001Z" stroke="#70AD47" stroke-width="4.58333" stroke-miterlimit="8" fill="#FFFFFF" fill-rule="evenodd" transform="matrix(1 0 0 -1 3529.5 446.5)"/><path d="M3896.38 273.5 3896.38 325.643 3569.5 325.643 3569.5 377.786" stroke="#70AD47" stroke-width="4.58333" stroke-miterlimit="8" fill="none" fill-rule="evenodd"/><path d="M0 0 52.1434 0 52.1434 341.116 104.286 341.116" stroke="#70AD47" stroke-width="4.58333" stroke-miterlimit="8" fill="none" fill-rule="evenodd" transform="matrix(1.83697e-16 1 1 -1.83697e-16 3228.5 273.5)"/><text font-family="Yu Gothic,Yu Gothic_MSFontService,sans-serif" font-weight="400" font-size="37" transform="matrix(1 0 0 1 3652.33 398)">{complete, disjoint1</text><rect x="3980.5" y="801.5" width="397" height="131" stroke="#000000" stroke-width="4.58333" stroke-miterlimit="8" fill="#FFFFFF"/><text font-family="Yu Gothic,Yu Gothic_MSFontService,sans-serif" font-weight="400" font-size="55" transform="matrix(1 0 0 1 4041.06 885)">ターミナル</text><path d="M0 0 197.242 0.000360892" stroke="#000000" stroke-width="4.58333" stroke-miterlimit="8" fill="none" fill-rule="evenodd" transform="matrix(-1 0 0 1 3979.74 867.5)"/><text font-family="Yu Gothic,Yu Gothic_MSFontService,sans-serif" font-weight="400" font-size="37" transform="matrix(1 0 0 1 3801.32 917)">0..1<tspan font-size="37" x="137.387" y="-76">1</tspan><tspan font-size="37" x="-1801.43" y="-717">0..1</tspan><tspan font-size="37" x="-1787.83" y="-509">0..1</tspan><tspan font-size="37" x="-1766.97" y="-307">1</tspan></text><rect x="136.5" y="1586.5" width="416" height="131" stroke="#FFC000" stroke-width="4.58333" stroke-miterlimit="8" fill="#FFFFFF"/><text font-family="Yu Gothic,Yu Gothic_MSFontService,sans-serif" font-weight="400" font-size="55" transform="matrix(1 0 0 1 178.935 1669)">商品スペック</text><path d="M2.29167-5.46176e-06 2.29202 146.888-2.29132 146.888-2.29167 5.46176e-06ZM18.0214 120.542 0.000361376 151.435-18.0209 120.542C-18.6586 119.449-18.2893 118.045-17.1961 117.408-16.1028 116.77-14.6996 117.139-14.0619 118.233L1.97984 145.732-1.97915 145.732 14.0625 118.232C14.7002 117.139 16.1034 116.77 17.1967 117.408 18.2899 118.045 18.6592 119.449 18.0214 120.542Z" fill="#FFC000" transform="matrix(-1 0 0 1 344.5 1435.5)"/><text font-family="Yu Gothic,Yu Gothic_MSFontService,sans-serif" font-weight="400" font-size="37" transform="matrix(1 0 0 1 369.872 1474)">＊</text><rect x="1328.5" y="1503.5" width="416" height="131" stroke="#FFC000" stroke-width="4.58333" stroke-miterlimit="8" fill="#FFFFFF"/><text font-family="Yu Gothic,Yu Gothic_MSFontService,sans-serif" font-weight="400" font-size="55" transform="matrix(1 0 0 1 1370.68 1587)">商品スペック</text><path d="M1376.96 1368.74 1534.39 1499.46 1531.46 1502.98 1374.04 1372.26ZM1524.17 1470.53 1536.42 1504.13 1501.14 1498.26C1499.9 1498.05 1499.05 1496.87 1499.26 1495.62 1499.47 1494.37 1500.65 1493.53 1501.9 1493.73L1533.3 1498.96 1530.77 1502.01 1519.86 1472.1C1519.43 1470.91 1520.04 1469.59 1521.23 1469.16 1522.42 1468.72 1523.74 1469.34 1524.17 1470.53Z" fill="#FFC000"/><text font-family="Yu Gothic,Yu Gothic_MSFontService,sans-serif" font-weight="400" font-size="37" transform="matrix(1 0 0 1 1381.71 1441)">＊</text></g></svg>